<svg width="504" height="72" viewBox="0 0 504 72" fill="none" xmlns="http://www.w3.org/2000/svg">
<rect width="504" height="72" rx="36" fill="white"/>
<rect x="12" y="12" width="48" height="48" rx="24" fill="#111716"/>
<path d="M28.6805 43.5V29.38H31.8005V43.5H28.6805ZM25.9605 32.04V29.38H31.6005V32.04H25.9605ZM39.7991 43.72C38.6658 43.72 37.6391 43.4133 36.7191 42.8C35.7991 42.1867 35.0725 41.3333 34.5391 40.24C34.0191 39.1333 33.7591 37.86 33.7591 36.42C33.7591 34.9667 34.0191 33.7 34.5391 32.62C35.0591 31.5267 35.7725 30.68 36.6791 30.08C37.5858 29.4667 38.6125 29.16 39.7591 29.16C40.9191 29.16 41.9525 29.4667 42.8591 30.08C43.7658 30.68 44.4791 31.5267 44.9991 32.62C45.5325 33.7133 45.7991 34.9867 45.7991 36.44C45.7991 37.8933 45.5325 39.1667 44.9991 40.26C44.4791 41.3533 43.7658 42.2067 42.8591 42.82C41.9658 43.42 40.9458 43.72 39.7991 43.72ZM39.7791 40.94C40.3658 40.94 40.8725 40.7733 41.2991 40.44C41.7258 40.0933 42.0525 39.5867 42.2791 38.92C42.5191 38.24 42.6391 37.4133 42.6391 36.44C42.6391 35.4533 42.5191 34.6267 42.2791 33.96C42.0525 33.2933 41.7258 32.7933 41.2991 32.46C40.8725 32.1133 40.3591 31.94 39.7591 31.94C39.1858 31.94 38.6791 32.1067 38.2391 32.44C37.8125 32.7733 37.4858 33.2733 37.2591 33.94C37.0325 34.6067 36.9191 35.4333 36.9191 36.42C36.9191 37.4067 37.0325 38.2333 37.2591 38.9C37.4858 39.5667 37.8125 40.0733 38.2391 40.42C38.6791 40.7667 39.1925 40.94 39.7791 40.94Z" fill="white"/>
<path opacity="0.6" d="M106.557 10.9473H85.3789C83.6338 10.9473 82.2119 12.3771 82.2119 14.115V36.7511C82.2119 38.401 83.483 39.7429 85.0773 39.9189C85.0773 39.9628 85.0773 40.0068 85.0773 40.0508C85.0773 41.1727 85.9821 42.0527 87.1024 42.0527C88.2227 42.0527 89.1275 41.1507 89.1275 40.0508C89.1275 40.0068 89.1275 39.9848 89.1275 39.9409H102.873C102.873 39.9409 102.873 40.0068 102.873 40.0508C102.873 41.1727 103.777 42.0527 104.898 42.0527C106.018 42.0527 106.923 41.1507 106.923 40.0508C106.923 40.0068 106.923 39.9628 106.923 39.9189C108.517 39.7649 109.788 38.401 109.788 36.7511V14.115C109.788 12.3771 108.366 10.9473 106.621 10.9473M87.3178 13.1691H105.113C105.673 13.1691 106.147 13.631 106.147 14.203C106.147 14.7749 105.695 15.2369 105.113 15.2369H87.2748C86.6931 15.2369 86.2406 14.7749 86.2406 14.203C86.2406 13.631 86.6931 13.1691 87.2748 13.1691M86.5853 37.1691C85.7451 37.1691 85.0773 36.4871 85.0773 35.6732C85.0773 34.8593 85.7451 34.1553 86.5853 34.1553C87.4256 34.1553 88.0934 34.8373 88.0934 35.6732C88.0934 36.5091 87.4256 37.1691 86.5853 37.1691ZM95.4184 31.2736H87.1024C86.0037 31.2736 85.0988 30.3716 85.0988 29.2717V18.5586C85.0988 17.4587 86.0037 16.5348 87.1024 16.5348H95.4184V31.2736ZM105.393 37.1691C104.553 37.1691 103.885 36.4871 103.885 35.6732C103.885 34.8593 104.553 34.1553 105.393 34.1553C106.233 34.1553 106.901 34.8373 106.901 35.6732C106.901 36.5091 106.233 37.1691 105.393 37.1691ZM106.901 29.2497C106.901 30.3496 105.996 31.2516 104.898 31.2516H96.5602V16.5128H104.898C105.996 16.5128 106.901 17.4147 106.901 18.5366V29.2497Z" fill="#65BC4B"/>
<path d="M85.089 58.1727C84.545 58.1727 84.049 58.0727 83.601 57.8727C83.161 57.6647 82.789 57.3647 82.485 56.9727L83.253 56.2047C83.437 56.4847 83.689 56.7087 84.009 56.8767C84.329 57.0367 84.685 57.1167 85.077 57.1167C85.445 57.1167 85.761 57.0487 86.025 56.9127C86.297 56.7687 86.509 56.5687 86.661 56.3127C86.821 56.0567 86.901 55.7607 86.901 55.4247C86.901 55.0807 86.821 54.7847 86.661 54.5367C86.509 54.2807 86.293 54.0847 86.013 53.9487C85.733 53.8127 85.401 53.7447 85.017 53.7447C84.873 53.7447 84.729 53.7567 84.585 53.7807C84.441 53.7967 84.301 53.8247 84.165 53.8647L84.645 53.2167C84.797 53.1447 84.961 53.0887 85.137 53.0487C85.313 53.0087 85.489 52.9887 85.665 52.9887C86.113 52.9887 86.513 53.0927 86.865 53.3007C87.225 53.5087 87.509 53.8007 87.717 54.1767C87.933 54.5527 88.041 54.9887 88.041 55.4847C88.041 56.0127 87.913 56.4807 87.657 56.8887C87.409 57.2887 87.065 57.6047 86.625 57.8367C86.185 58.0607 85.673 58.1727 85.089 58.1727ZM84.165 53.8647V53.1807L86.601 50.4087L87.945 50.3967L85.437 53.2407L84.165 53.8647ZM82.881 50.7327V49.7247H87.945V50.3967L86.961 50.7327H82.881ZM95.8541 58.1727C95.2621 58.1727 94.7101 58.0647 94.1981 57.8487C93.6861 57.6247 93.2381 57.3167 92.8541 56.9247C92.4701 56.5247 92.1701 56.0647 91.9541 55.5447C91.7461 55.0247 91.6421 54.4687 91.6421 53.8767C91.6421 53.2767 91.7461 52.7207 91.9541 52.2087C92.1701 51.6887 92.4661 51.2327 92.8421 50.8407C93.2261 50.4487 93.6701 50.1447 94.1741 49.9287C94.6861 49.7127 95.2381 49.6047 95.8301 49.6047C96.4221 49.6047 96.9701 49.7127 97.4741 49.9287C97.9861 50.1447 98.4341 50.4487 98.8181 50.8407C99.2021 51.2327 99.5021 51.6887 99.7181 52.2087C99.9341 52.7287 100.042 53.2887 100.042 53.8887C100.042 54.4807 99.9341 55.0367 99.7181 55.5567C99.5021 56.0767 99.2021 56.5327 98.8181 56.9247C98.4421 57.3167 97.9981 57.6247 97.4861 57.8487C96.9821 58.0647 96.4381 58.1727 95.8541 58.1727ZM95.8301 57.0927C96.4301 57.0927 96.9541 56.9567 97.4021 56.6847C97.8581 56.4047 98.2181 56.0247 98.4821 55.5447C98.7461 55.0567 98.8781 54.5007 98.8781 53.8767C98.8781 53.4127 98.8021 52.9887 98.6501 52.6047C98.4981 52.2127 98.2861 51.8727 98.0141 51.5847C97.7421 51.2967 97.4221 51.0767 97.0541 50.9247C96.6861 50.7647 96.2781 50.6847 95.8301 50.6847C95.2381 50.6847 94.7141 50.8207 94.2581 51.0927C93.8101 51.3647 93.4541 51.7407 93.1901 52.2207C92.9341 52.7007 92.8061 53.2527 92.8061 53.8767C92.8061 54.3407 92.8781 54.7727 93.0221 55.1727C93.1741 55.5647 93.3821 55.9047 93.6461 56.1927C93.9181 56.4727 94.2381 56.6927 94.6061 56.8527C94.9821 57.0127 95.3901 57.0927 95.8301 57.0927ZM95.1221 48.8727L94.6301 48.3807L96.1901 46.4487L97.0421 47.3007L95.1221 48.8727ZM106.486 58.1727C105.934 58.1727 105.438 58.0447 104.998 57.7887C104.566 57.5327 104.222 57.1887 103.966 56.7567C103.71 56.3247 103.582 55.8447 103.582 55.3167C103.582 54.5807 103.838 53.8487 104.35 53.1207L106.798 49.7247H108.106L105.598 53.1447L105.19 53.3607C105.286 53.1927 105.402 53.0527 105.538 52.9407C105.674 52.8207 105.842 52.7287 106.042 52.6647C106.242 52.6007 106.478 52.5687 106.75 52.5687C107.238 52.5687 107.678 52.6847 108.07 52.9167C108.47 53.1487 108.79 53.4687 109.03 53.8767C109.278 54.2767 109.402 54.7447 109.402 55.2807C109.402 55.8087 109.27 56.2927 109.006 56.7327C108.75 57.1727 108.398 57.5247 107.95 57.7887C107.51 58.0447 107.022 58.1727 106.486 58.1727ZM106.486 57.1167C106.822 57.1167 107.122 57.0367 107.386 56.8767C107.658 56.7087 107.87 56.4887 108.022 56.2167C108.182 55.9367 108.262 55.6247 108.262 55.2807C108.262 54.9367 108.182 54.6287 108.022 54.3567C107.87 54.0767 107.658 53.8567 107.386 53.6967C107.122 53.5367 106.822 53.4567 106.486 53.4567C106.15 53.4567 105.846 53.5367 105.574 53.6967C105.31 53.8567 105.098 54.0767 104.938 54.3567C104.786 54.6287 104.71 54.9367 104.71 55.2807C104.71 55.6247 104.786 55.9367 104.938 56.2167C105.098 56.4967 105.31 56.7167 105.574 56.8767C105.846 57.0367 106.15 57.1167 106.486 57.1167Z" fill="#65BC4B"/>
<path d="M133.345 38.08V35.54H142.645V38.08H133.345ZM136.705 31.92H139.305V41.66H136.705V31.92Z" fill="#65BC4B"/>
<path d="M190.405 17.3452C190.298 16.468 189.568 15.8102 188.666 15.8102H181.75V10.1528H178.958V15.8102H171.377C170.497 15.8102 169.745 16.468 169.638 17.3452L167.597 35.6768C167.597 35.8084 167.597 35.9619 167.597 36.0934L168.285 41.3342C168.392 42.2113 169.122 42.8472 170.003 42.8472H189.997C190.856 42.8472 191.608 42.2113 191.716 41.3342L192.403 36.0934C192.403 35.9619 192.403 35.8084 192.403 35.6768L190.363 17.3452H190.405ZM172.494 20.0642C172.537 19.5818 172.945 19.2529 173.418 19.2529H186.626C187.12 19.2529 187.506 19.6037 187.549 20.0642L189.117 34.0761C189.16 34.3392 189.074 34.6024 188.902 34.7997C188.73 34.9971 188.473 35.1067 188.215 35.1067H171.871C171.614 35.1067 171.356 34.9971 171.184 34.7997C171.012 34.6024 170.926 34.3392 170.948 34.0761L172.516 20.0642H172.494ZM174.642 38.7467H171.528C171.012 38.7467 170.604 38.3301 170.604 37.8257C170.604 37.3214 171.012 36.9048 171.528 36.9048H174.642C175.157 36.9048 175.565 37.3214 175.565 37.8257C175.565 38.3301 175.157 38.7467 174.642 38.7467ZM188.666 38.7467H185.552C185.036 38.7467 184.628 38.3301 184.628 37.8257C184.628 37.3214 185.058 36.9048 185.552 36.9048H188.666C189.181 36.9048 189.589 37.3214 189.589 37.8257C189.589 38.3301 189.181 38.7467 188.666 38.7467Z" fill="#65BC4B"/>
<path d="M157.633 58.8472V50.7592H158.761V58.8472H157.633ZM154.801 51.5512V50.5192H161.581V51.5512H154.801ZM163.681 55.2232V54.2752H165.937C166.425 54.2752 166.801 54.1512 167.065 53.9032C167.329 53.6552 167.461 53.3192 167.461 52.8952C167.461 52.4952 167.329 52.1632 167.065 51.8992C166.809 51.6352 166.437 51.5032 165.949 51.5032H163.681V50.5192H165.985C166.513 50.5192 166.973 50.6232 167.365 50.8312C167.757 51.0312 168.057 51.3072 168.265 51.6592C168.481 52.0112 168.589 52.4152 168.589 52.8712C168.589 53.3432 168.481 53.7552 168.265 54.1072C168.057 54.4592 167.757 54.7352 167.365 54.9352C166.973 55.1272 166.513 55.2232 165.985 55.2232H163.681ZM162.925 58.8472V50.5192H164.053V58.8472H162.925ZM167.725 58.8472L164.701 55.1152L165.769 54.7432L169.153 58.8472H167.725ZM169.438 58.8472L172.846 50.5192H173.662L177.058 58.8472H175.834L173.038 51.8032H173.458L170.638 58.8472H169.438ZM171.058 56.9632V55.9792H175.438V56.9632H171.058ZM178.312 58.8472V50.5192H179.104L179.44 51.8272V58.8472H178.312ZM184.072 58.8472L178.96 52.0192L179.104 50.5192L184.228 57.3352L184.072 58.8472ZM184.072 58.8472L183.736 57.6112V50.5192H184.864V58.8472H184.072ZM189.556 58.8472L186.22 50.5192H187.444L190.192 57.5632H189.748L192.52 50.5192H193.732L190.372 58.8472H189.556ZM195.093 58.8472V50.5192H196.221V58.8472H195.093ZM194.949 49.6672L194.457 49.1752L196.017 47.2432L196.869 48.0952L194.949 49.6672ZM197.575 58.8472L200.983 50.5192H201.799L205.195 58.8472H203.971L201.175 51.8032H201.595L198.775 58.8472H197.575ZM199.195 56.9632V55.9792H203.575V56.9632H199.195Z" fill="#65BC4B"/>
<path d="M250.557 10.9473H229.379C227.634 10.9473 226.212 12.3771 226.212 14.115V36.7511C226.212 38.401 227.483 39.7429 229.077 39.9189C229.077 39.9628 229.077 40.0068 229.077 40.0508C229.077 41.1727 229.982 42.0527 231.102 42.0527C232.223 42.0527 233.128 41.1507 233.128 40.0508C233.128 40.0068 233.128 39.9848 233.128 39.9409H246.873C246.873 39.9409 246.873 40.0068 246.873 40.0508C246.873 41.1727 247.777 42.0527 248.898 42.0527C250.018 42.0527 250.923 41.1507 250.923 40.0508C250.923 40.0068 250.923 39.9628 250.923 39.9189C252.517 39.7649 253.788 38.401 253.788 36.7511V14.115C253.788 12.3771 252.366 10.9473 250.621 10.9473M231.318 13.1691H249.113C249.673 13.1691 250.147 13.631 250.147 14.203C250.147 14.7749 249.695 15.2369 249.113 15.2369H231.275C230.693 15.2369 230.241 14.7749 230.241 14.203C230.241 13.631 230.693 13.1691 231.275 13.1691M230.585 37.1691C229.745 37.1691 229.077 36.4871 229.077 35.6732C229.077 34.8593 229.745 34.1553 230.585 34.1553C231.426 34.1553 232.093 34.8373 232.093 35.6732C232.093 36.5091 231.426 37.1691 230.585 37.1691ZM239.418 31.2736H231.102C230.004 31.2736 229.099 30.3716 229.099 29.2717V18.5586C229.099 17.4587 230.004 16.5348 231.102 16.5348H239.418V31.2736ZM249.393 37.1691C248.553 37.1691 247.885 36.4871 247.885 35.6732C247.885 34.8593 248.553 34.1553 249.393 34.1553C250.233 34.1553 250.901 34.8373 250.901 35.6732C250.901 36.5091 250.233 37.1691 249.393 37.1691ZM250.901 29.2497C250.901 30.3496 249.996 31.2516 248.898 31.2516H240.56V16.5128H248.898C249.996 16.5128 250.901 17.4147 250.901 18.5366V29.2497Z" fill="#65BC4B"/>
<path d="M230.625 58.0527V57.0687H233.145C233.625 57.0687 234.001 56.9287 234.273 56.6487C234.545 56.3607 234.681 56.0167 234.681 55.6167C234.681 55.3447 234.621 55.1007 234.501 54.8847C234.381 54.6607 234.205 54.4847 233.973 54.3567C233.749 54.2287 233.485 54.1647 233.181 54.1647H230.625V53.1807H233.013C233.413 53.1807 233.729 53.0767 233.961 52.8687C234.201 52.6527 234.321 52.3447 234.321 51.9447C234.321 51.5447 234.197 51.2407 233.949 51.0327C233.701 50.8167 233.373 50.7087 232.965 50.7087H230.625V49.7247H232.989C233.533 49.7247 233.985 49.8247 234.345 50.0247C234.713 50.2167 234.989 50.4727 235.173 50.7927C235.365 51.1127 235.461 51.4647 235.461 51.8487C235.461 52.2967 235.337 52.6887 235.089 53.0247C234.849 53.3607 234.493 53.6247 234.021 53.8167L234.117 53.4567C234.653 53.6487 235.069 53.9407 235.365 54.3327C235.669 54.7167 235.821 55.1727 235.821 55.7007C235.821 56.1407 235.713 56.5367 235.497 56.8887C235.281 57.2407 234.969 57.5247 234.561 57.7407C234.161 57.9487 233.669 58.0527 233.085 58.0527H230.625ZM229.869 58.0527V49.7247H230.997V58.0527H229.869ZM240.465 58.1727C239.849 58.1727 239.297 58.0367 238.809 57.7647C238.329 57.4847 237.949 57.1047 237.669 56.6247C237.389 56.1367 237.249 55.5847 237.249 54.9687V49.7247H238.377V54.9447C238.377 55.3847 238.469 55.7647 238.653 56.0847C238.837 56.4047 239.085 56.6527 239.397 56.8287C239.717 57.0047 240.073 57.0927 240.465 57.0927C240.873 57.0927 241.229 57.0047 241.533 56.8287C241.845 56.6527 242.089 56.4047 242.265 56.0847C242.449 55.7647 242.541 55.3887 242.541 54.9567V49.7247H243.681V54.9807C243.681 55.5967 243.541 56.1447 243.261 56.6247C242.981 57.1047 242.601 57.4847 242.121 57.7647C241.641 58.0367 241.089 58.1727 240.465 58.1727ZM247.759 58.1727C247.103 58.1727 246.543 58.0527 246.079 57.8127C245.615 57.5727 245.203 57.2247 244.843 56.7687L245.611 56.0007C245.875 56.3687 246.179 56.6487 246.523 56.8407C246.867 57.0247 247.291 57.1167 247.795 57.1167C248.291 57.1167 248.687 57.0087 248.983 56.7927C249.287 56.5767 249.439 56.2807 249.439 55.9047C249.439 55.5927 249.367 55.3407 249.223 55.1487C249.079 54.9567 248.883 54.8007 248.635 54.6807C248.395 54.5527 248.131 54.4407 247.843 54.3447C247.555 54.2407 247.267 54.1327 246.979 54.0207C246.691 53.9007 246.427 53.7567 246.187 53.5887C245.947 53.4127 245.751 53.1847 245.599 52.9047C245.455 52.6247 245.383 52.2727 245.383 51.8487C245.383 51.3767 245.495 50.9767 245.719 50.6487C245.951 50.3127 246.263 50.0567 246.655 49.8807C247.055 49.6967 247.503 49.6047 247.999 49.6047C248.543 49.6047 249.031 49.7127 249.463 49.9287C249.895 50.1367 250.247 50.4127 250.519 50.7567L249.751 51.5247C249.503 51.2367 249.235 51.0207 248.947 50.8767C248.667 50.7327 248.343 50.6607 247.975 50.6607C247.527 50.6607 247.171 50.7607 246.907 50.9607C246.643 51.1527 246.511 51.4247 246.511 51.7767C246.511 52.0567 246.583 52.2847 246.727 52.4607C246.879 52.6287 247.075 52.7727 247.315 52.8927C247.555 53.0127 247.819 53.1247 248.107 53.2287C248.403 53.3247 248.695 53.4327 248.983 53.5527C249.271 53.6727 249.535 53.8247 249.775 54.0087C250.015 54.1927 250.207 54.4327 250.351 54.7287C250.503 55.0167 250.579 55.3807 250.579 55.8207C250.579 56.5567 250.323 57.1327 249.811 57.5487C249.307 57.9647 248.623 58.1727 247.759 58.1727Z" fill="#65BC4B"/>
<path d="M277.345 38.08V35.54H286.645V38.08H277.345ZM280.705 31.92H283.305V41.66H280.705V31.92Z" fill="#65BC4B"/>
<path d="M335.903 12.7772C335.786 11.7722 334.942 11.0065 333.91 11.0065H314.096C313.088 11.0065 312.22 11.7722 312.103 12.7772L309.758 33.7622C309.758 33.9297 309.758 34.0733 309.758 34.2408L310.555 40.2467C310.696 41.2278 311.54 41.9935 312.525 41.9935H335.458C336.443 41.9935 337.31 41.2517 337.428 40.2467L338.225 34.2408C338.248 34.0733 338.248 33.9297 338.225 33.7622L335.88 12.7772H335.903ZM313.58 31.9197L315.362 15.8878C315.432 15.3375 315.878 14.9546 316.417 14.9546H331.565C332.105 14.9546 332.574 15.3614 332.621 15.8878L334.426 31.9197C334.45 32.2069 334.356 32.5179 334.168 32.7572C333.957 32.9965 333.676 33.1161 333.371 33.1161H314.635C314.33 33.1161 314.049 32.9965 313.838 32.7572C313.65 32.5419 313.533 32.2308 313.58 31.9197ZM317.848 37.2796H314.283C313.697 37.2796 313.228 36.8011 313.228 36.2029C313.228 35.6047 313.697 35.15 314.283 35.15H317.848C318.434 35.15 318.903 35.6286 318.903 36.2029C318.903 36.7772 318.434 37.2796 317.848 37.2796ZM333.934 37.2796H330.369C329.783 37.2796 329.291 36.8011 329.291 36.2029C329.291 35.6047 329.76 35.15 330.369 35.15H333.934C334.52 35.15 334.989 35.6286 334.989 36.2029C334.989 36.7772 334.52 37.2796 333.934 37.2796Z" fill="#65BC4B"/>
<path d="M304.423 57.9935V49.6655H305.215L308.743 55.4615H308.203L311.731 49.6655H312.523V57.9935H311.395V51.6455L311.659 51.7175L308.875 56.2895H308.083L305.299 51.7175L305.551 51.6455V57.9935H304.423ZM314.49 57.9935V49.6655H315.618V57.9935H314.49ZM315.258 57.9935V56.9615H320.034V57.9935H315.258ZM315.258 54.2255V53.2415H319.638V54.2255H315.258ZM315.258 50.6975V49.6655H319.974V50.6975H315.258ZM323.46 57.9935V49.9055H324.588V57.9935H323.46ZM320.628 50.6975V49.6655H327.408V50.6975H320.628ZM329.508 54.3695V53.4215H331.764C332.252 53.4215 332.628 53.2975 332.892 53.0495C333.156 52.8015 333.288 52.4655 333.288 52.0415C333.288 51.6415 333.156 51.3095 332.892 51.0455C332.636 50.7815 332.264 50.6495 331.776 50.6495H329.508V49.6655H331.812C332.34 49.6655 332.8 49.7695 333.192 49.9775C333.584 50.1775 333.884 50.4535 334.092 50.8055C334.308 51.1575 334.416 51.5615 334.416 52.0175C334.416 52.4895 334.308 52.9015 334.092 53.2535C333.884 53.6055 333.584 53.8815 333.192 54.0815C332.8 54.2735 332.34 54.3695 331.812 54.3695H329.508ZM328.752 57.9935V49.6655H329.88V57.9935H328.752ZM333.552 57.9935L330.528 54.2615L331.596 53.8895L334.98 57.9935H333.552ZM339.809 58.1135C339.217 58.1135 338.665 58.0055 338.153 57.7895C337.641 57.5655 337.193 57.2575 336.809 56.8655C336.425 56.4655 336.125 56.0055 335.909 55.4855C335.701 54.9655 335.597 54.4095 335.597 53.8175C335.597 53.2175 335.701 52.6615 335.909 52.1495C336.125 51.6295 336.421 51.1735 336.797 50.7815C337.181 50.3895 337.625 50.0855 338.129 49.8695C338.641 49.6535 339.193 49.5455 339.785 49.5455C340.377 49.5455 340.925 49.6535 341.429 49.8695C341.941 50.0855 342.389 50.3895 342.773 50.7815C343.157 51.1735 343.457 51.6295 343.673 52.1495C343.889 52.6695 343.997 53.2295 343.997 53.8295C343.997 54.4215 343.889 54.9775 343.673 55.4975C343.457 56.0175 343.157 56.4735 342.773 56.8655C342.397 57.2575 341.953 57.5655 341.441 57.7895C340.937 58.0055 340.393 58.1135 339.809 58.1135ZM339.785 57.0335C340.385 57.0335 340.909 56.8975 341.357 56.6255C341.813 56.3455 342.173 55.9655 342.437 55.4855C342.701 54.9975 342.833 54.4415 342.833 53.8175C342.833 53.3535 342.757 52.9295 342.605 52.5455C342.453 52.1535 342.241 51.8135 341.969 51.5255C341.697 51.2375 341.377 51.0175 341.009 50.8655C340.641 50.7055 340.233 50.6255 339.785 50.6255C339.193 50.6255 338.669 50.7615 338.213 51.0335C337.765 51.3055 337.409 51.6815 337.145 52.1615C336.889 52.6415 336.761 53.1935 336.761 53.8175C336.761 54.2815 336.833 54.7135 336.977 55.1135C337.129 55.5055 337.337 55.8455 337.601 56.1335C337.873 56.4135 338.193 56.6335 338.561 56.7935C338.937 56.9535 339.345 57.0335 339.785 57.0335Z" fill="#65BC4B"/>
<path d="M395.845 25.0561C395.845 25.0561 395.826 24.9332 395.787 24.8718L391.829 11.6004C391.58 10.7607 390.739 10.3102 389.955 10.5764C389.171 10.8427 388.731 11.7233 388.98 12.5425L389.458 14.1605H378.5L378.979 12.5425C379.227 11.7233 378.787 10.8427 378.003 10.5764C377.219 10.3102 376.378 10.7812 376.129 11.6004L372.171 24.8718C372.171 24.8718 372.133 24.9947 372.133 25.0561C372.094 25.2609 371.769 27.1451 372.305 29.1727C373.07 32.2243 375.67 41.0309 375.785 41.3996C376.053 42.2393 376.875 42.6898 377.659 42.4236C378.29 42.2188 378.692 41.6044 378.711 40.949H389.305C389.305 41.6044 389.706 42.2188 390.337 42.4236C391.122 42.6898 391.963 42.2188 392.212 41.3996C392.326 41.0309 394.927 32.2243 395.711 29.1727C396.227 27.1451 395.902 25.2609 395.864 25.0561M392.823 28.374C392.613 29.2137 392.25 30.5244 391.848 31.9581H376.148C375.747 30.5039 375.383 29.2137 375.173 28.374C374.886 27.1861 375.02 25.9982 375.058 25.7115L377.659 16.9663H390.299L392.919 25.691C392.957 25.9777 393.11 27.1861 392.804 28.374" fill="#65BC4B"/>
<path d="M370.02 58.62C369.42 58.62 368.864 58.512 368.352 58.296C367.84 58.072 367.392 57.764 367.008 57.372C366.632 56.98 366.34 56.524 366.132 56.004C365.924 55.484 365.82 54.928 365.82 54.336C365.82 53.736 365.924 53.176 366.132 52.656C366.34 52.136 366.632 51.684 367.008 51.3C367.392 50.908 367.836 50.604 368.34 50.388C368.852 50.164 369.408 50.052 370.008 50.052C370.664 50.052 371.24 50.164 371.736 50.388C372.232 50.612 372.672 50.916 373.056 51.3L372.276 52.08C372.012 51.784 371.688 51.552 371.304 51.384C370.928 51.216 370.496 51.132 370.008 51.132C369.568 51.132 369.164 51.212 368.796 51.372C368.428 51.524 368.108 51.744 367.836 52.032C367.564 52.32 367.352 52.66 367.2 53.052C367.056 53.444 366.984 53.872 366.984 54.336C366.984 54.8 367.056 55.228 367.2 55.62C367.352 56.012 367.564 56.352 367.836 56.64C368.108 56.928 368.428 57.152 368.796 57.312C369.164 57.464 369.568 57.54 370.008 57.54C370.528 57.54 370.98 57.456 371.364 57.288C371.748 57.112 372.072 56.876 372.336 56.58L373.116 57.348C372.732 57.748 372.28 58.06 371.76 58.284C371.248 58.508 370.668 58.62 370.02 58.62ZM373.679 58.5L377.087 50.172H377.903L381.299 58.5H380.075L377.279 51.456H377.699L374.879 58.5H373.679ZM375.299 56.616V55.632H379.679V56.616H375.299ZM383.308 58.5V57.516H385.828C386.308 57.516 386.684 57.376 386.956 57.096C387.228 56.808 387.364 56.464 387.364 56.064C387.364 55.792 387.304 55.548 387.184 55.332C387.064 55.108 386.888 54.932 386.656 54.804C386.432 54.676 386.168 54.612 385.864 54.612H383.308V53.628H385.696C386.096 53.628 386.412 53.524 386.644 53.316C386.884 53.1 387.004 52.792 387.004 52.392C387.004 51.992 386.88 51.688 386.632 51.48C386.384 51.264 386.056 51.156 385.648 51.156H383.308V50.172H385.672C386.216 50.172 386.668 50.272 387.028 50.472C387.396 50.664 387.672 50.92 387.856 51.24C388.048 51.56 388.144 51.912 388.144 52.296C388.144 52.744 388.02 53.136 387.772 53.472C387.532 53.808 387.176 54.072 386.704 54.264L386.8 53.904C387.336 54.096 387.752 54.388 388.048 54.78C388.352 55.164 388.504 55.62 388.504 56.148C388.504 56.588 388.396 56.984 388.18 57.336C387.964 57.688 387.652 57.972 387.244 58.188C386.844 58.396 386.352 58.5 385.768 58.5H383.308ZM382.552 58.5V50.172H383.68V58.5H382.552ZM390.029 58.5V50.172H391.157V58.5H390.029ZM390.797 58.5V57.468H395.261V58.5H390.797ZM396.65 58.5V50.172H397.778V58.5H396.65ZM397.418 58.5V57.468H402.194V58.5H397.418ZM397.418 54.732V53.748H401.798V54.732H397.418ZM397.418 51.204V50.172H402.134V51.204H397.418Z" fill="#65BC4B"/>
<path d="M421.345 38.08V35.54H430.645V38.08H421.345ZM424.705 31.92H427.305V41.66H424.705V31.92Z" fill="#65BC4B"/>
<path opacity="0.6" d="M478.557 10.9473H457.379C455.634 10.9473 454.212 12.3771 454.212 14.115V36.7511C454.212 38.401 455.483 39.7429 457.077 39.9189C457.077 39.9628 457.077 40.0068 457.077 40.0508C457.077 41.1727 457.982 42.0527 459.102 42.0527C460.223 42.0527 461.128 41.1507 461.128 40.0508C461.128 40.0068 461.128 39.9848 461.128 39.9409H474.873C474.873 39.9409 474.873 40.0068 474.873 40.0508C474.873 41.1727 475.777 42.0527 476.898 42.0527C478.018 42.0527 478.923 41.1507 478.923 40.0508C478.923 40.0068 478.923 39.9628 478.923 39.9189C480.517 39.7649 481.788 38.401 481.788 36.7511V14.115C481.788 12.3771 480.366 10.9473 478.621 10.9473M459.318 13.1691H477.113C477.673 13.1691 478.147 13.631 478.147 14.203C478.147 14.7749 477.695 15.2369 477.113 15.2369H459.275C458.693 15.2369 458.241 14.7749 458.241 14.203C458.241 13.631 458.693 13.1691 459.275 13.1691M458.585 37.1691C457.745 37.1691 457.077 36.4871 457.077 35.6732C457.077 34.8593 457.745 34.1553 458.585 34.1553C459.426 34.1553 460.093 34.8373 460.093 35.6732C460.093 36.5091 459.426 37.1691 458.585 37.1691ZM467.418 31.2736H459.102C458.004 31.2736 457.099 30.3716 457.099 29.2717V18.5586C457.099 17.4587 458.004 16.5348 459.102 16.5348H467.418V31.2736ZM477.393 37.1691C476.553 37.1691 475.885 36.4871 475.885 35.6732C475.885 34.8593 476.553 34.1553 477.393 34.1553C478.233 34.1553 478.901 34.8373 478.901 35.6732C478.901 36.5091 478.233 37.1691 477.393 37.1691ZM478.901 29.2497C478.901 30.3496 477.996 31.2516 476.898 31.2516H468.56V16.5128H476.898C477.996 16.5128 478.901 17.4147 478.901 18.5366V29.2497Z" fill="#65BC4B"/>
<path d="M457.089 58.1727C456.545 58.1727 456.049 58.0727 455.601 57.8727C455.161 57.6647 454.789 57.3647 454.485 56.9727L455.253 56.2047C455.437 56.4847 455.689 56.7087 456.009 56.8767C456.329 57.0367 456.685 57.1167 457.077 57.1167C457.445 57.1167 457.761 57.0487 458.025 56.9127C458.297 56.7687 458.509 56.5687 458.661 56.3127C458.821 56.0567 458.901 55.7607 458.901 55.4247C458.901 55.0807 458.821 54.7847 458.661 54.5367C458.509 54.2807 458.293 54.0847 458.013 53.9487C457.733 53.8127 457.401 53.7447 457.017 53.7447C456.873 53.7447 456.729 53.7567 456.585 53.7807C456.441 53.7967 456.301 53.8247 456.165 53.8647L456.645 53.2167C456.797 53.1447 456.961 53.0887 457.137 53.0487C457.313 53.0087 457.489 52.9887 457.665 52.9887C458.113 52.9887 458.513 53.0927 458.865 53.3007C459.225 53.5087 459.509 53.8007 459.717 54.1767C459.933 54.5527 460.041 54.9887 460.041 55.4847C460.041 56.0127 459.913 56.4807 459.657 56.8887C459.409 57.2887 459.065 57.6047 458.625 57.8367C458.185 58.0607 457.673 58.1727 457.089 58.1727ZM456.165 53.8647V53.1807L458.601 50.4087L459.945 50.3967L457.437 53.2407L456.165 53.8647ZM454.881 50.7327V49.7247H459.945V50.3967L458.961 50.7327H454.881ZM467.854 58.1727C467.262 58.1727 466.71 58.0647 466.198 57.8487C465.686 57.6247 465.238 57.3167 464.854 56.9247C464.47 56.5247 464.17 56.0647 463.954 55.5447C463.746 55.0247 463.642 54.4687 463.642 53.8767C463.642 53.2767 463.746 52.7207 463.954 52.2087C464.17 51.6887 464.466 51.2327 464.842 50.8407C465.226 50.4487 465.67 50.1447 466.174 49.9287C466.686 49.7127 467.238 49.6047 467.83 49.6047C468.422 49.6047 468.97 49.7127 469.474 49.9287C469.986 50.1447 470.434 50.4487 470.818 50.8407C471.202 51.2327 471.502 51.6887 471.718 52.2087C471.934 52.7287 472.042 53.2887 472.042 53.8887C472.042 54.4807 471.934 55.0367 471.718 55.5567C471.502 56.0767 471.202 56.5327 470.818 56.9247C470.442 57.3167 469.998 57.6247 469.486 57.8487C468.982 58.0647 468.438 58.1727 467.854 58.1727ZM467.83 57.0927C468.43 57.0927 468.954 56.9567 469.402 56.6847C469.858 56.4047 470.218 56.0247 470.482 55.5447C470.746 55.0567 470.878 54.5007 470.878 53.8767C470.878 53.4127 470.802 52.9887 470.65 52.6047C470.498 52.2127 470.286 51.8727 470.014 51.5847C469.742 51.2967 469.422 51.0767 469.054 50.9247C468.686 50.7647 468.278 50.6847 467.83 50.6847C467.238 50.6847 466.714 50.8207 466.258 51.0927C465.81 51.3647 465.454 51.7407 465.19 52.2207C464.934 52.7007 464.806 53.2527 464.806 53.8767C464.806 54.3407 464.878 54.7727 465.022 55.1727C465.174 55.5647 465.382 55.9047 465.646 56.1927C465.918 56.4727 466.238 56.6927 466.606 56.8527C466.982 57.0127 467.39 57.0927 467.83 57.0927ZM467.122 48.8727L466.63 48.3807L468.19 46.4487L469.042 47.3007L467.122 48.8727ZM478.486 58.1727C477.934 58.1727 477.438 58.0447 476.998 57.7887C476.566 57.5327 476.222 57.1887 475.966 56.7567C475.71 56.3247 475.582 55.8447 475.582 55.3167C475.582 54.5807 475.838 53.8487 476.35 53.1207L478.798 49.7247H480.106L477.598 53.1447L477.19 53.3607C477.286 53.1927 477.402 53.0527 477.538 52.9407C477.674 52.8207 477.842 52.7287 478.042 52.6647C478.242 52.6007 478.478 52.5687 478.75 52.5687C479.238 52.5687 479.678 52.6847 480.07 52.9167C480.47 53.1487 480.79 53.4687 481.03 53.8767C481.278 54.2767 481.402 54.7447 481.402 55.2807C481.402 55.8087 481.27 56.2927 481.006 56.7327C480.75 57.1727 480.398 57.5247 479.95 57.7887C479.51 58.0447 479.022 58.1727 478.486 58.1727ZM478.486 57.1167C478.822 57.1167 479.122 57.0367 479.386 56.8767C479.658 56.7087 479.87 56.4887 480.022 56.2167C480.182 55.9367 480.262 55.6247 480.262 55.2807C480.262 54.9367 480.182 54.6287 480.022 54.3567C479.87 54.0767 479.658 53.8567 479.386 53.6967C479.122 53.5367 478.822 53.4567 478.486 53.4567C478.15 53.4567 477.846 53.5367 477.574 53.6967C477.31 53.8567 477.098 54.0767 476.938 54.3567C476.786 54.6287 476.71 54.9367 476.71 55.2807C476.71 55.6247 476.786 55.9367 476.938 56.2167C477.098 56.4967 477.31 56.7167 477.574 56.8767C477.846 57.0367 478.15 57.1167 478.486 57.1167Z" fill="#65BC4B"/>
</svg>
