<svg width="276" height="72" viewBox="0 0 276 72" fill="none" xmlns="http://www.w3.org/2000/svg">
<rect width="276" height="72" rx="36" fill="white"/>
<rect x="12" y="12" width="48" height="48" rx="24" fill="#111716"/>
<path d="M35.4741 43.72C34.5007 43.72 33.6074 43.5533 32.7941 43.22C31.9807 42.8733 31.2941 42.38 30.7341 41.74L32.7541 39.72C33.0074 40.0933 33.3741 40.4 33.8541 40.64C34.3474 40.8667 34.8674 40.98 35.4141 40.98C35.9074 40.98 36.3341 40.8933 36.6941 40.72C37.0541 40.5467 37.3341 40.3 37.5341 39.98C37.7474 39.66 37.8541 39.28 37.8541 38.84C37.8541 38.4 37.7474 38.0267 37.5341 37.72C37.3341 37.4 37.0341 37.1533 36.6341 36.98C36.2474 36.8067 35.7807 36.72 35.2341 36.72C34.9807 36.72 34.7141 36.74 34.4341 36.78C34.1674 36.8067 33.9407 36.8533 33.7541 36.92L35.1341 35.18C35.5074 35.0733 35.8607 34.9867 36.1941 34.92C36.5407 34.84 36.8607 34.8 37.1541 34.8C37.8741 34.8 38.5207 34.9733 39.0941 35.32C39.6674 35.6533 40.1207 36.1333 40.4541 36.76C40.8007 37.3733 40.9741 38.1067 40.9741 38.96C40.9741 39.8933 40.7407 40.72 40.2741 41.44C39.8207 42.16 39.1807 42.72 38.3541 43.12C37.5407 43.52 36.5807 43.72 35.4741 43.72ZM33.7541 36.92V35.18L37.1941 31.14L40.7141 31.12L37.1341 35.2L33.7541 36.92ZM31.6141 32.04V29.38H40.7141V31.12L38.2541 32.04H31.6141Z" fill="white"/>
<path opacity="0.6" d="M106.557 10.9473H85.3789C83.6338 10.9473 82.2119 12.3772 82.2119 14.115V36.7511C82.2119 38.401 83.483 39.7429 85.0773 39.9189C85.0773 39.9629 85.0773 40.0069 85.0773 40.0509C85.0773 41.1728 85.9821 42.0527 87.1024 42.0527C88.2227 42.0527 89.1275 41.1508 89.1275 40.0509C89.1275 40.0069 89.1275 39.9849 89.1275 39.9409H102.873C102.873 39.9409 102.873 40.0069 102.873 40.0509C102.873 41.1728 103.777 42.0527 104.898 42.0527C106.018 42.0527 106.923 41.1508 106.923 40.0509C106.923 40.0069 106.923 39.9629 106.923 39.9189C108.517 39.7649 109.788 38.401 109.788 36.7511V14.115C109.788 12.3772 108.366 10.9473 106.621 10.9473M87.3178 13.1691H105.113C105.673 13.1691 106.147 13.6311 106.147 14.203C106.147 14.775 105.695 15.2369 105.113 15.2369H87.2748C86.6931 15.2369 86.2406 14.775 86.2406 14.203C86.2406 13.6311 86.6931 13.1691 87.2748 13.1691M86.5853 37.1691C85.7451 37.1691 85.0773 36.4872 85.0773 35.6732C85.0773 34.8593 85.7451 34.1554 86.5853 34.1554C87.4256 34.1554 88.0934 34.8373 88.0934 35.6732C88.0934 36.5092 87.4256 37.1691 86.5853 37.1691ZM95.4184 31.2736H87.1024C86.0037 31.2736 85.0988 30.3717 85.0988 29.2718V18.5587C85.0988 17.4588 86.0037 16.5348 87.1024 16.5348H95.4184V31.2736ZM105.393 37.1691C104.553 37.1691 103.885 36.4872 103.885 35.6732C103.885 34.8593 104.553 34.1554 105.393 34.1554C106.233 34.1554 106.901 34.8373 106.901 35.6732C106.901 36.5092 106.233 37.1691 105.393 37.1691ZM106.901 29.2498C106.901 30.3497 105.996 31.2516 104.898 31.2516H96.5602V16.5128H104.898C105.996 16.5128 106.901 17.4148 106.901 18.5367V29.2498Z" fill="#65BC4B"/>
<path d="M79.7699 58.1727C79.1699 58.1727 78.6139 58.0647 78.1019 57.8487C77.5899 57.6247 77.1419 57.3167 76.7579 56.9247C76.3819 56.5327 76.0899 56.0767 75.8819 55.5567C75.6739 55.0367 75.5699 54.4807 75.5699 53.8887C75.5699 53.2887 75.6739 52.7287 75.8819 52.2087C76.0899 51.6887 76.3819 51.2367 76.7579 50.8527C77.1419 50.4607 77.5859 50.1567 78.0899 49.9407C78.6019 49.7167 79.1579 49.6047 79.7579 49.6047C80.4139 49.6047 80.9899 49.7167 81.4859 49.9407C81.9819 50.1647 82.4219 50.4687 82.8059 50.8527L82.0259 51.6327C81.7619 51.3367 81.4379 51.1047 81.0539 50.9367C80.6779 50.7687 80.2459 50.6847 79.7579 50.6847C79.3179 50.6847 78.9139 50.7647 78.5459 50.9247C78.1779 51.0767 77.8579 51.2967 77.5859 51.5847C77.3139 51.8727 77.1019 52.2127 76.9499 52.6047C76.8059 52.9967 76.7339 53.4247 76.7339 53.8887C76.7339 54.3527 76.8059 54.7807 76.9499 55.1727C77.1019 55.5647 77.3139 55.9047 77.5859 56.1927C77.8579 56.4807 78.1779 56.7047 78.5459 56.8647C78.9139 57.0167 79.3179 57.0927 79.7579 57.0927C80.2779 57.0927 80.7299 57.0087 81.1139 56.8407C81.4979 56.6647 81.8219 56.4287 82.0859 56.1327L82.8659 56.9007C82.4819 57.3007 82.0299 57.6127 81.5099 57.8367C80.9979 58.0607 80.4179 58.1727 79.7699 58.1727ZM85.0076 58.1727C84.7836 58.1727 84.5956 58.0967 84.4436 57.9447C84.2996 57.7847 84.2276 57.5967 84.2276 57.3807C84.2276 57.1567 84.2996 56.9727 84.4436 56.8287C84.5956 56.6767 84.7836 56.6007 85.0076 56.6007C85.2316 56.6007 85.4156 56.6767 85.5596 56.8287C85.7116 56.9727 85.7876 57.1567 85.7876 57.3807C85.7876 57.5967 85.7116 57.7847 85.5596 57.9447C85.4156 58.0967 85.2316 58.1727 85.0076 58.1727ZM92.2081 58.1727C91.6641 58.1727 91.1681 58.0727 90.7201 57.8727C90.2801 57.6647 89.9081 57.3647 89.6041 56.9727L90.3721 56.2047C90.5561 56.4847 90.8081 56.7087 91.1281 56.8767C91.4481 57.0367 91.8041 57.1167 92.1961 57.1167C92.5641 57.1167 92.8801 57.0487 93.1441 56.9127C93.4161 56.7687 93.6281 56.5687 93.7801 56.3127C93.9401 56.0567 94.0201 55.7607 94.0201 55.4247C94.0201 55.0807 93.9401 54.7847 93.7801 54.5367C93.6281 54.2807 93.4121 54.0847 93.1321 53.9487C92.8521 53.8127 92.5201 53.7447 92.1361 53.7447C91.9921 53.7447 91.8481 53.7567 91.7041 53.7807C91.5601 53.7967 91.4201 53.8247 91.2841 53.8647L91.7641 53.2167C91.9161 53.1447 92.0801 53.0887 92.2561 53.0487C92.4321 53.0087 92.6081 52.9887 92.7841 52.9887C93.2321 52.9887 93.6321 53.0927 93.9841 53.3007C94.3441 53.5087 94.6281 53.8007 94.8361 54.1767C95.0521 54.5527 95.1601 54.9887 95.1601 55.4847C95.1601 56.0127 95.0321 56.4807 94.7761 56.8887C94.5281 57.2887 94.1841 57.6047 93.7441 57.8367C93.3041 58.0607 92.7921 58.1727 92.2081 58.1727ZM91.2841 53.8647V53.1807L93.7201 50.4087L95.0641 50.3967L92.5561 53.2407L91.2841 53.8647ZM90.0001 50.7327V49.7247H95.0641V50.3967L94.0801 50.7327H90.0001ZM102.973 58.1727C102.381 58.1727 101.829 58.0647 101.317 57.8487C100.805 57.6247 100.357 57.3167 99.9733 56.9247C99.5893 56.5247 99.2893 56.0647 99.0733 55.5447C98.8653 55.0247 98.7613 54.4687 98.7613 53.8767C98.7613 53.2767 98.8653 52.7207 99.0733 52.2087C99.2893 51.6887 99.5853 51.2327 99.9613 50.8407C100.345 50.4487 100.789 50.1447 101.293 49.9287C101.805 49.7127 102.357 49.6047 102.949 49.6047C103.541 49.6047 104.089 49.7127 104.593 49.9287C105.105 50.1447 105.553 50.4487 105.937 50.8407C106.321 51.2327 106.621 51.6887 106.837 52.2087C107.053 52.7287 107.161 53.2887 107.161 53.8887C107.161 54.4807 107.053 55.0367 106.837 55.5567C106.621 56.0767 106.321 56.5327 105.937 56.9247C105.561 57.3167 105.117 57.6247 104.605 57.8487C104.101 58.0647 103.557 58.1727 102.973 58.1727ZM102.949 57.0927C103.549 57.0927 104.073 56.9567 104.521 56.6847C104.977 56.4047 105.337 56.0247 105.601 55.5447C105.865 55.0567 105.997 54.5007 105.997 53.8767C105.997 53.4127 105.921 52.9887 105.769 52.6047C105.617 52.2127 105.405 51.8727 105.133 51.5847C104.861 51.2967 104.541 51.0767 104.173 50.9247C103.805 50.7647 103.397 50.6847 102.949 50.6847C102.357 50.6847 101.833 50.8207 101.377 51.0927C100.929 51.3647 100.573 51.7407 100.309 52.2207C100.053 52.7007 99.9253 53.2527 99.9253 53.8767C99.9253 54.3407 99.9973 54.7727 100.141 55.1727C100.293 55.5647 100.501 55.9047 100.765 56.1927C101.037 56.4727 101.357 56.6927 101.725 56.8527C102.101 57.0127 102.509 57.0927 102.949 57.0927ZM102.241 48.8727L101.749 48.3807L103.309 46.4487L104.161 47.3007L102.241 48.8727ZM113.605 58.1727C113.053 58.1727 112.557 58.0447 112.117 57.7887C111.685 57.5327 111.341 57.1887 111.085 56.7567C110.829 56.3247 110.701 55.8447 110.701 55.3167C110.701 54.5807 110.957 53.8487 111.469 53.1207L113.917 49.7247H115.225L112.717 53.1447L112.309 53.3607C112.405 53.1927 112.521 53.0527 112.657 52.9407C112.793 52.8207 112.961 52.7287 113.161 52.6647C113.361 52.6007 113.597 52.5687 113.869 52.5687C114.357 52.5687 114.797 52.6847 115.189 52.9167C115.589 53.1487 115.909 53.4687 116.149 53.8767C116.397 54.2767 116.521 54.7447 116.521 55.2807C116.521 55.8087 116.389 56.2927 116.125 56.7327C115.869 57.1727 115.517 57.5247 115.069 57.7887C114.629 58.0447 114.141 58.1727 113.605 58.1727ZM113.605 57.1167C113.941 57.1167 114.241 57.0367 114.505 56.8767C114.777 56.7087 114.989 56.4887 115.141 56.2167C115.301 55.9367 115.381 55.6247 115.381 55.2807C115.381 54.9367 115.301 54.6287 115.141 54.3567C114.989 54.0767 114.777 53.8567 114.505 53.6967C114.241 53.5367 113.941 53.4567 113.605 53.4567C113.269 53.4567 112.965 53.5367 112.693 53.6967C112.429 53.8567 112.217 54.0767 112.057 54.3567C111.905 54.6287 111.829 54.9367 111.829 55.2807C111.829 55.6247 111.905 55.9367 112.057 56.2167C112.217 56.4967 112.429 56.7167 112.693 56.8767C112.965 57.0367 113.269 57.1167 113.605 57.1167Z" fill="#65BC4B"/>
<path d="M133.345 38.08V35.54H142.645V38.08H133.345ZM136.705 31.92H139.305V41.66H136.705V31.92Z" fill="#65BC4B"/>
<path d="M190.405 17.3451C190.298 16.468 189.568 15.8102 188.666 15.8102H181.75V10.1528H178.958V15.8102H171.377C170.497 15.8102 169.745 16.468 169.638 17.3451L167.597 35.6768C167.597 35.8084 167.597 35.9618 167.597 36.0934L168.285 41.3342C168.392 42.2113 169.122 42.8472 170.003 42.8472H189.997C190.856 42.8472 191.608 42.2113 191.716 41.3342L192.403 36.0934C192.403 35.9618 192.403 35.8084 192.403 35.6768L190.363 17.3451H190.405ZM172.494 20.0642C172.537 19.5818 172.945 19.2528 173.418 19.2528H186.626C187.12 19.2528 187.506 19.6037 187.549 20.0642L189.117 34.0761C189.16 34.3392 189.074 34.6023 188.902 34.7997C188.73 34.997 188.473 35.1067 188.215 35.1067H171.871C171.614 35.1067 171.356 34.997 171.184 34.7997C171.012 34.6023 170.926 34.3392 170.948 34.0761L172.516 20.0642H172.494ZM174.642 38.7467H171.528C171.012 38.7467 170.604 38.3301 170.604 37.8257C170.604 37.3214 171.012 36.9047 171.528 36.9047H174.642C175.157 36.9047 175.565 37.3214 175.565 37.8257C175.565 38.3301 175.157 38.7467 174.642 38.7467ZM188.666 38.7467H185.552C185.036 38.7467 184.628 38.3301 184.628 37.8257C184.628 37.3214 185.058 36.9047 185.552 36.9047H188.666C189.181 36.9047 189.589 37.3214 189.589 37.8257C189.589 38.3301 189.181 38.7467 188.666 38.7467Z" fill="#65BC4B"/>
<path d="M157.633 58.8472V50.7592H158.761V58.8472H157.633ZM154.801 51.5512V50.5192H161.581V51.5512H154.801ZM163.681 55.2232V54.2752H165.937C166.425 54.2752 166.801 54.1512 167.065 53.9032C167.329 53.6552 167.461 53.3192 167.461 52.8952C167.461 52.4952 167.329 52.1632 167.065 51.8992C166.809 51.6352 166.437 51.5032 165.949 51.5032H163.681V50.5192H165.985C166.513 50.5192 166.973 50.6232 167.365 50.8312C167.757 51.0312 168.057 51.3072 168.265 51.6592C168.481 52.0112 168.589 52.4152 168.589 52.8712C168.589 53.3432 168.481 53.7552 168.265 54.1072C168.057 54.4592 167.757 54.7352 167.365 54.9352C166.973 55.1272 166.513 55.2232 165.985 55.2232H163.681ZM162.925 58.8472V50.5192H164.053V58.8472H162.925ZM167.725 58.8472L164.701 55.1152L165.769 54.7432L169.153 58.8472H167.725ZM169.438 58.8472L172.846 50.5192H173.662L177.058 58.8472H175.834L173.038 51.8032H173.458L170.638 58.8472H169.438ZM171.058 56.9632V55.9792H175.438V56.9632H171.058ZM178.312 58.8472V50.5192H179.104L179.44 51.8272V58.8472H178.312ZM184.072 58.8472L178.96 52.0192L179.104 50.5192L184.228 57.3352L184.072 58.8472ZM184.072 58.8472L183.736 57.6112V50.5192H184.864V58.8472H184.072ZM189.556 58.8472L186.22 50.5192H187.444L190.192 57.5632H189.748L192.52 50.5192H193.732L190.372 58.8472H189.556ZM195.093 58.8472V50.5192H196.221V58.8472H195.093ZM194.949 49.6672L194.457 49.1752L196.017 47.2432L196.869 48.0952L194.949 49.6672ZM197.575 58.8472L200.983 50.5192H201.799L205.195 58.8472H203.971L201.175 51.8032H201.595L198.775 58.8472H197.575ZM199.195 56.9632V55.9792H203.575V56.9632H199.195Z" fill="#65BC4B"/>
<path d="M250.557 10.9473H229.379C227.634 10.9473 226.212 12.3772 226.212 14.115V36.7511C226.212 38.401 227.483 39.7429 229.077 39.9189C229.077 39.9629 229.077 40.0069 229.077 40.0509C229.077 41.1728 229.982 42.0527 231.102 42.0527C232.223 42.0527 233.128 41.1508 233.128 40.0509C233.128 40.0069 233.128 39.9849 233.128 39.9409H246.873C246.873 39.9409 246.873 40.0069 246.873 40.0509C246.873 41.1728 247.777 42.0527 248.898 42.0527C250.018 42.0527 250.923 41.1508 250.923 40.0509C250.923 40.0069 250.923 39.9629 250.923 39.9189C252.517 39.7649 253.788 38.401 253.788 36.7511V14.115C253.788 12.3772 252.366 10.9473 250.621 10.9473M231.318 13.1691H249.113C249.673 13.1691 250.147 13.6311 250.147 14.203C250.147 14.775 249.695 15.2369 249.113 15.2369H231.275C230.693 15.2369 230.241 14.775 230.241 14.203C230.241 13.6311 230.693 13.1691 231.275 13.1691M230.585 37.1691C229.745 37.1691 229.077 36.4872 229.077 35.6732C229.077 34.8593 229.745 34.1554 230.585 34.1554C231.426 34.1554 232.093 34.8373 232.093 35.6732C232.093 36.5092 231.426 37.1691 230.585 37.1691ZM239.418 31.2736H231.102C230.004 31.2736 229.099 30.3717 229.099 29.2718V18.5587C229.099 17.4588 230.004 16.5348 231.102 16.5348H239.418V31.2736ZM249.393 37.1691C248.553 37.1691 247.885 36.4872 247.885 35.6732C247.885 34.8593 248.553 34.1554 249.393 34.1554C250.233 34.1554 250.901 34.8373 250.901 35.6732C250.901 36.5092 250.233 37.1691 249.393 37.1691ZM250.901 29.2498C250.901 30.3497 249.996 31.2516 248.898 31.2516H240.56V16.5128H248.898C249.996 16.5128 250.901 17.4148 250.901 18.5367V29.2498Z" fill="#65BC4B"/>
<path d="M230.625 58.0527V57.0687H233.145C233.625 57.0687 234.001 56.9287 234.273 56.6487C234.545 56.3607 234.681 56.0167 234.681 55.6167C234.681 55.3447 234.621 55.1007 234.501 54.8847C234.381 54.6607 234.205 54.4847 233.973 54.3567C233.749 54.2287 233.485 54.1647 233.181 54.1647H230.625V53.1807H233.013C233.413 53.1807 233.729 53.0767 233.961 52.8687C234.201 52.6527 234.321 52.3447 234.321 51.9447C234.321 51.5447 234.197 51.2407 233.949 51.0327C233.701 50.8167 233.373 50.7087 232.965 50.7087H230.625V49.7247H232.989C233.533 49.7247 233.985 49.8247 234.345 50.0247C234.713 50.2167 234.989 50.4727 235.173 50.7927C235.365 51.1127 235.461 51.4647 235.461 51.8487C235.461 52.2967 235.337 52.6887 235.089 53.0247C234.849 53.3607 234.493 53.6247 234.021 53.8167L234.117 53.4567C234.653 53.6487 235.069 53.9407 235.365 54.3327C235.669 54.7167 235.821 55.1727 235.821 55.7007C235.821 56.1407 235.713 56.5367 235.497 56.8887C235.281 57.2407 234.969 57.5247 234.561 57.7407C234.161 57.9487 233.669 58.0527 233.085 58.0527H230.625ZM229.869 58.0527V49.7247H230.997V58.0527H229.869ZM240.465 58.1727C239.849 58.1727 239.297 58.0367 238.809 57.7647C238.329 57.4847 237.949 57.1047 237.669 56.6247C237.389 56.1367 237.249 55.5847 237.249 54.9687V49.7247H238.377V54.9447C238.377 55.3847 238.469 55.7647 238.653 56.0847C238.837 56.4047 239.085 56.6527 239.397 56.8287C239.717 57.0047 240.073 57.0927 240.465 57.0927C240.873 57.0927 241.229 57.0047 241.533 56.8287C241.845 56.6527 242.089 56.4047 242.265 56.0847C242.449 55.7647 242.541 55.3887 242.541 54.9567V49.7247H243.681V54.9807C243.681 55.5967 243.541 56.1447 243.261 56.6247C242.981 57.1047 242.601 57.4847 242.121 57.7647C241.641 58.0367 241.089 58.1727 240.465 58.1727ZM247.759 58.1727C247.103 58.1727 246.543 58.0527 246.079 57.8127C245.615 57.5727 245.203 57.2247 244.843 56.7687L245.611 56.0007C245.875 56.3687 246.179 56.6487 246.523 56.8407C246.867 57.0247 247.291 57.1167 247.795 57.1167C248.291 57.1167 248.687 57.0087 248.983 56.7927C249.287 56.5767 249.439 56.2807 249.439 55.9047C249.439 55.5927 249.367 55.3407 249.223 55.1487C249.079 54.9567 248.883 54.8007 248.635 54.6807C248.395 54.5527 248.131 54.4407 247.843 54.3447C247.555 54.2407 247.267 54.1327 246.979 54.0207C246.691 53.9007 246.427 53.7567 246.187 53.5887C245.947 53.4127 245.751 53.1847 245.599 52.9047C245.455 52.6247 245.383 52.2727 245.383 51.8487C245.383 51.3767 245.495 50.9767 245.719 50.6487C245.951 50.3127 246.263 50.0567 246.655 49.8807C247.055 49.6967 247.503 49.6047 247.999 49.6047C248.543 49.6047 249.031 49.7127 249.463 49.9287C249.895 50.1367 250.247 50.4127 250.519 50.7567L249.751 51.5247C249.503 51.2367 249.235 51.0207 248.947 50.8767C248.667 50.7327 248.343 50.6607 247.975 50.6607C247.527 50.6607 247.171 50.7607 246.907 50.9607C246.643 51.1527 246.511 51.4247 246.511 51.7767C246.511 52.0567 246.583 52.2847 246.727 52.4607C246.879 52.6287 247.075 52.7727 247.315 52.8927C247.555 53.0127 247.819 53.1247 248.107 53.2287C248.403 53.3247 248.695 53.4327 248.983 53.5527C249.271 53.6727 249.535 53.8247 249.775 54.0087C250.015 54.1927 250.207 54.4327 250.351 54.7287C250.503 55.0167 250.579 55.3807 250.579 55.8207C250.579 56.5567 250.323 57.1327 249.811 57.5487C249.307 57.9647 248.623 58.1727 247.759 58.1727Z" fill="#65BC4B"/>
</svg>
