<svg width="366" height="72" viewBox="0 0 366 72" fill="none" xmlns="http://www.w3.org/2000/svg">
<rect x="0.5" width="365" height="72" rx="36" fill="white"/>
<rect x="12.5" y="12" width="48" height="48" rx="24" fill="#111716"/>
<path d="M33.5066 43.5L38.3066 31.14H41.3666L36.7466 43.5H33.5066ZM31.6266 32.04V29.38H41.3666V31.14L40.3266 32.04H31.6266Z" fill="white"/>
<path opacity="0.6" d="M107.057 10.9473H85.8789C84.1338 10.9473 82.7119 12.3772 82.7119 14.115V36.7511C82.7119 38.401 83.983 39.7429 85.5773 39.9189C85.5773 39.9629 85.5773 40.0069 85.5773 40.0509C85.5773 41.1728 86.4821 42.0527 87.6024 42.0527C88.7227 42.0527 89.6275 41.1508 89.6275 40.0509C89.6275 40.0069 89.6275 39.9849 89.6275 39.9409H103.373C103.373 39.9409 103.373 40.0069 103.373 40.0509C103.373 41.1728 104.277 42.0527 105.398 42.0527C106.518 42.0527 107.423 41.1508 107.423 40.0509C107.423 40.0069 107.423 39.9629 107.423 39.9189C109.017 39.7649 110.288 38.401 110.288 36.7511V14.115C110.288 12.3772 108.866 10.9473 107.121 10.9473M87.8178 13.1691H105.613C106.173 13.1691 106.647 13.6311 106.647 14.203C106.647 14.775 106.195 15.2369 105.613 15.2369H87.7748C87.1931 15.2369 86.7406 14.775 86.7406 14.203C86.7406 13.6311 87.1931 13.1691 87.7748 13.1691M87.0853 37.1691C86.2451 37.1691 85.5773 36.4872 85.5773 35.6732C85.5773 34.8593 86.2451 34.1554 87.0853 34.1554C87.9256 34.1554 88.5934 34.8373 88.5934 35.6732C88.5934 36.5092 87.9256 37.1691 87.0853 37.1691ZM95.9184 31.2736H87.6024C86.5037 31.2736 85.5988 30.3717 85.5988 29.2718V18.5587C85.5988 17.4588 86.5037 16.5348 87.6024 16.5348H95.9184V31.2736ZM105.893 37.1691C105.053 37.1691 104.385 36.4872 104.385 35.6732C104.385 34.8593 105.053 34.1554 105.893 34.1554C106.733 34.1554 107.401 34.8373 107.401 35.6732C107.401 36.5092 106.733 37.1691 105.893 37.1691ZM107.401 29.2498C107.401 30.3497 106.496 31.2516 105.398 31.2516H97.0602V16.5128H105.398C106.496 16.5128 107.401 17.4148 107.401 18.5367V29.2498Z" fill="#65BC4B"/>
<path d="M90.9163 58.1727C90.3163 58.1727 89.7603 58.0647 89.2483 57.8487C88.7363 57.6247 88.2883 57.3167 87.9043 56.9247C87.5283 56.5327 87.2363 56.0767 87.0283 55.5567C86.8203 55.0367 86.7163 54.4807 86.7163 53.8887C86.7163 53.2887 86.8203 52.7287 87.0283 52.2087C87.2363 51.6887 87.5283 51.2367 87.9043 50.8527C88.2883 50.4607 88.7323 50.1567 89.2363 49.9407C89.7483 49.7167 90.3043 49.6047 90.9043 49.6047C91.5603 49.6047 92.1363 49.7167 92.6323 49.9407C93.1283 50.1647 93.5683 50.4687 93.9523 50.8527L93.1723 51.6327C92.9083 51.3367 92.5843 51.1047 92.2003 50.9367C91.8243 50.7687 91.3923 50.6847 90.9043 50.6847C90.4643 50.6847 90.0603 50.7647 89.6923 50.9247C89.3243 51.0767 89.0043 51.2967 88.7323 51.5847C88.4603 51.8727 88.2483 52.2127 88.0963 52.6047C87.9523 52.9967 87.8803 53.4247 87.8803 53.8887C87.8803 54.3527 87.9523 54.7807 88.0963 55.1727C88.2483 55.5647 88.4603 55.9047 88.7323 56.1927C89.0043 56.4807 89.3243 56.7047 89.6923 56.8647C90.0603 57.0167 90.4643 57.0927 90.9043 57.0927C91.4243 57.0927 91.8763 57.0087 92.2603 56.8407C92.6443 56.6647 92.9683 56.4287 93.2323 56.1327L94.0123 56.9007C93.6283 57.3007 93.1763 57.6127 92.6563 57.8367C92.1443 58.0607 91.5643 58.1727 90.9163 58.1727ZM96.1541 58.1727C95.9301 58.1727 95.7421 58.0967 95.5901 57.9447C95.4461 57.7847 95.3741 57.5967 95.3741 57.3807C95.3741 57.1567 95.4461 56.9727 95.5901 56.8287C95.7421 56.6767 95.9301 56.6007 96.1541 56.6007C96.3781 56.6007 96.5621 56.6767 96.7061 56.8287C96.8581 56.9727 96.9341 57.1567 96.9341 57.3807C96.9341 57.5967 96.8581 57.7847 96.7061 57.9447C96.5621 58.0967 96.3781 58.1727 96.1541 58.1727ZM103.355 58.1727C102.811 58.1727 102.315 58.0727 101.867 57.8727C101.427 57.6647 101.055 57.3647 100.751 56.9727L101.519 56.2047C101.703 56.4847 101.955 56.7087 102.275 56.8767C102.595 57.0367 102.951 57.1167 103.343 57.1167C103.711 57.1167 104.027 57.0487 104.291 56.9127C104.563 56.7687 104.775 56.5687 104.927 56.3127C105.087 56.0567 105.167 55.7607 105.167 55.4247C105.167 55.0807 105.087 54.7847 104.927 54.5367C104.775 54.2807 104.559 54.0847 104.279 53.9487C103.999 53.8127 103.667 53.7447 103.283 53.7447C103.139 53.7447 102.995 53.7567 102.851 53.7807C102.707 53.7967 102.567 53.8247 102.431 53.8647L102.911 53.2167C103.063 53.1447 103.227 53.0887 103.403 53.0487C103.579 53.0087 103.755 52.9887 103.931 52.9887C104.379 52.9887 104.779 53.0927 105.131 53.3007C105.491 53.5087 105.775 53.8007 105.983 54.1767C106.199 54.5527 106.307 54.9887 106.307 55.4847C106.307 56.0127 106.179 56.4807 105.923 56.8887C105.675 57.2887 105.331 57.6047 104.891 57.8367C104.451 58.0607 103.939 58.1727 103.355 58.1727ZM102.431 53.8647V53.1807L104.867 50.4087L106.211 50.3967L103.703 53.2407L102.431 53.8647ZM101.147 50.7327V49.7247H106.211V50.3967L105.227 50.7327H101.147Z" fill="#65BC4B"/>
<path d="M133.845 38.08V35.54H143.145V38.08H133.845ZM137.205 31.92H139.805V41.66H137.205V31.92Z" fill="#65BC4B"/>
<path opacity="0.6" d="M191.057 10.9473H169.879C168.134 10.9473 166.712 12.3772 166.712 14.115V36.7511C166.712 38.401 167.983 39.7429 169.577 39.9189C169.577 39.9629 169.577 40.0069 169.577 40.0509C169.577 41.1728 170.482 42.0527 171.602 42.0527C172.723 42.0527 173.628 41.1508 173.628 40.0509C173.628 40.0069 173.628 39.9849 173.628 39.9409H187.373C187.373 39.9409 187.373 40.0069 187.373 40.0509C187.373 41.1728 188.277 42.0527 189.398 42.0527C190.518 42.0527 191.423 41.1508 191.423 40.0509C191.423 40.0069 191.423 39.9629 191.423 39.9189C193.017 39.7649 194.288 38.401 194.288 36.7511V14.115C194.288 12.3772 192.866 10.9473 191.121 10.9473M171.818 13.1691H189.613C190.173 13.1691 190.647 13.6311 190.647 14.203C190.647 14.775 190.195 15.2369 189.613 15.2369H171.775C171.193 15.2369 170.741 14.775 170.741 14.203C170.741 13.6311 171.193 13.1691 171.775 13.1691M171.085 37.1691C170.245 37.1691 169.577 36.4872 169.577 35.6732C169.577 34.8593 170.245 34.1554 171.085 34.1554C171.926 34.1554 172.593 34.8373 172.593 35.6732C172.593 36.5092 171.926 37.1691 171.085 37.1691ZM179.918 31.2736H171.602C170.504 31.2736 169.599 30.3717 169.599 29.2718V18.5587C169.599 17.4588 170.504 16.5348 171.602 16.5348H179.918V31.2736ZM189.893 37.1691C189.053 37.1691 188.385 36.4872 188.385 35.6732C188.385 34.8593 189.053 34.1554 189.893 34.1554C190.733 34.1554 191.401 34.8373 191.401 35.6732C191.401 36.5092 190.733 37.1691 189.893 37.1691ZM191.401 29.2498C191.401 30.3497 190.496 31.2516 189.398 31.2516H181.06V16.5128H189.398C190.496 16.5128 191.401 17.4148 191.401 18.5367V29.2498Z" fill="#65BC4B"/>
<path d="M174.916 58.1727C174.316 58.1727 173.76 58.0647 173.248 57.8487C172.736 57.6247 172.288 57.3167 171.904 56.9247C171.528 56.5327 171.236 56.0767 171.028 55.5567C170.82 55.0367 170.716 54.4807 170.716 53.8887C170.716 53.2887 170.82 52.7287 171.028 52.2087C171.236 51.6887 171.528 51.2367 171.904 50.8527C172.288 50.4607 172.732 50.1567 173.236 49.9407C173.748 49.7167 174.304 49.6047 174.904 49.6047C175.56 49.6047 176.136 49.7167 176.632 49.9407C177.128 50.1647 177.568 50.4687 177.952 50.8527L177.172 51.6327C176.908 51.3367 176.584 51.1047 176.2 50.9367C175.824 50.7687 175.392 50.6847 174.904 50.6847C174.464 50.6847 174.06 50.7647 173.692 50.9247C173.324 51.0767 173.004 51.2967 172.732 51.5847C172.46 51.8727 172.248 52.2127 172.096 52.6047C171.952 52.9967 171.88 53.4247 171.88 53.8887C171.88 54.3527 171.952 54.7807 172.096 55.1727C172.248 55.5647 172.46 55.9047 172.732 56.1927C173.004 56.4807 173.324 56.7047 173.692 56.8647C174.06 57.0167 174.464 57.0927 174.904 57.0927C175.424 57.0927 175.876 57.0087 176.26 56.8407C176.644 56.6647 176.968 56.4287 177.232 56.1327L178.012 56.9007C177.628 57.3007 177.176 57.6127 176.656 57.8367C176.144 58.0607 175.564 58.1727 174.916 58.1727ZM180.154 58.1727C179.93 58.1727 179.742 58.0967 179.59 57.9447C179.446 57.7847 179.374 57.5967 179.374 57.3807C179.374 57.1567 179.446 56.9727 179.59 56.8287C179.742 56.6767 179.93 56.6007 180.154 56.6007C180.378 56.6007 180.562 56.6767 180.706 56.8287C180.858 56.9727 180.934 57.1567 180.934 57.3807C180.934 57.5967 180.858 57.7847 180.706 57.9447C180.562 58.0967 180.378 58.1727 180.154 58.1727ZM187.355 58.1727C186.811 58.1727 186.315 58.0727 185.867 57.8727C185.427 57.6647 185.055 57.3647 184.751 56.9727L185.519 56.2047C185.703 56.4847 185.955 56.7087 186.275 56.8767C186.595 57.0367 186.951 57.1167 187.343 57.1167C187.711 57.1167 188.027 57.0487 188.291 56.9127C188.563 56.7687 188.775 56.5687 188.927 56.3127C189.087 56.0567 189.167 55.7607 189.167 55.4247C189.167 55.0807 189.087 54.7847 188.927 54.5367C188.775 54.2807 188.559 54.0847 188.279 53.9487C187.999 53.8127 187.667 53.7447 187.283 53.7447C187.139 53.7447 186.995 53.7567 186.851 53.7807C186.707 53.7967 186.567 53.8247 186.431 53.8647L186.911 53.2167C187.063 53.1447 187.227 53.0887 187.403 53.0487C187.579 53.0087 187.755 52.9887 187.931 52.9887C188.379 52.9887 188.779 53.0927 189.131 53.3007C189.491 53.5087 189.775 53.8007 189.983 54.1767C190.199 54.5527 190.307 54.9887 190.307 55.4847C190.307 56.0127 190.179 56.4807 189.923 56.8887C189.675 57.2887 189.331 57.6047 188.891 57.8367C188.451 58.0607 187.939 58.1727 187.355 58.1727ZM186.431 53.8647V53.1807L188.867 50.4087L190.211 50.3967L187.703 53.2407L186.431 53.8647ZM185.147 50.7327V49.7247H190.211V50.3967L189.227 50.7327H185.147Z" fill="#65BC4B"/>
<path d="M225.043 43.74C223.977 43.74 222.99 43.5533 222.083 43.18C221.19 42.8067 220.403 42.2867 219.723 41.62C219.043 40.9533 218.517 40.18 218.143 39.3C217.77 38.4067 217.583 37.4467 217.583 36.42C217.583 35.38 217.77 34.42 218.143 33.54C218.517 32.66 219.037 31.8933 219.703 31.24C220.37 30.5733 221.15 30.06 222.043 29.7C222.95 29.3267 223.937 29.14 225.003 29.14C226.057 29.14 227.03 29.3267 227.923 29.7C228.83 30.06 229.617 30.5733 230.283 31.24C230.963 31.8933 231.49 32.6667 231.863 33.56C232.237 34.44 232.423 35.4 232.423 36.44C232.423 37.4667 232.237 38.4267 231.863 39.32C231.49 40.2 230.97 40.9733 230.303 41.64C229.637 42.2933 228.85 42.8067 227.943 43.18C227.05 43.5533 226.083 43.74 225.043 43.74ZM225.003 40.88C225.843 40.88 226.577 40.6933 227.203 40.32C227.843 39.9467 228.337 39.4267 228.683 38.76C229.03 38.08 229.203 37.3 229.203 36.42C229.203 35.7533 229.103 35.1533 228.903 34.62C228.703 34.0733 228.417 33.6067 228.043 33.22C227.67 32.82 227.223 32.52 226.703 32.32C226.197 32.1067 225.63 32 225.003 32C224.163 32 223.423 32.1867 222.783 32.56C222.157 32.92 221.67 33.4333 221.323 34.1C220.977 34.7533 220.803 35.5267 220.803 36.42C220.803 37.0867 220.903 37.6933 221.103 38.24C221.303 38.7867 221.583 39.26 221.943 39.66C222.317 40.0467 222.763 40.3467 223.283 40.56C223.803 40.7733 224.377 40.88 225.003 40.88ZM223.563 28.28L222.563 26.82L225.743 23.84L227.423 26.2L223.563 28.28Z" fill="#65BC4B"/>
<path opacity="0.6" d="M280.057 10.9473H258.879C257.134 10.9473 255.712 12.3772 255.712 14.115V36.7511C255.712 38.401 256.983 39.7429 258.577 39.9189C258.577 39.9629 258.577 40.0069 258.577 40.0509C258.577 41.1728 259.482 42.0527 260.602 42.0527C261.723 42.0527 262.628 41.1508 262.628 40.0509C262.628 40.0069 262.628 39.9849 262.628 39.9409H276.373C276.373 39.9409 276.373 40.0069 276.373 40.0509C276.373 41.1728 277.277 42.0527 278.398 42.0527C279.518 42.0527 280.423 41.1508 280.423 40.0509C280.423 40.0069 280.423 39.9629 280.423 39.9189C282.017 39.7649 283.288 38.401 283.288 36.7511V14.115C283.288 12.3772 281.866 10.9473 280.121 10.9473M260.818 13.1691H278.613C279.173 13.1691 279.647 13.6311 279.647 14.203C279.647 14.775 279.195 15.2369 278.613 15.2369H260.775C260.193 15.2369 259.741 14.775 259.741 14.203C259.741 13.6311 260.193 13.1691 260.775 13.1691M260.085 37.1691C259.245 37.1691 258.577 36.4872 258.577 35.6732C258.577 34.8593 259.245 34.1554 260.085 34.1554C260.926 34.1554 261.593 34.8373 261.593 35.6732C261.593 36.5092 260.926 37.1691 260.085 37.1691ZM268.918 31.2736H260.602C259.504 31.2736 258.599 30.3717 258.599 29.2718V18.5587C258.599 17.4588 259.504 16.5348 260.602 16.5348H268.918V31.2736ZM278.893 37.1691C278.053 37.1691 277.385 36.4872 277.385 35.6732C277.385 34.8593 278.053 34.1554 278.893 34.1554C279.733 34.1554 280.401 34.8373 280.401 35.6732C280.401 36.5092 279.733 37.1691 278.893 37.1691ZM280.401 29.2498C280.401 30.3497 279.496 31.2516 278.398 31.2516H270.06V16.5128H278.398C279.496 16.5128 280.401 17.4148 280.401 18.5367V29.2498Z" fill="#65BC4B"/>
<path d="M263.758 58.1727C263.158 58.1727 262.602 58.0647 262.09 57.8487C261.578 57.6247 261.13 57.3167 260.746 56.9247C260.37 56.5327 260.078 56.0767 259.87 55.5567C259.662 55.0367 259.558 54.4807 259.558 53.8887C259.558 53.2887 259.662 52.7287 259.87 52.2087C260.078 51.6887 260.37 51.2367 260.746 50.8527C261.13 50.4607 261.574 50.1567 262.078 49.9407C262.59 49.7167 263.146 49.6047 263.746 49.6047C264.402 49.6047 264.978 49.7167 265.474 49.9407C265.97 50.1647 266.41 50.4687 266.794 50.8527L266.014 51.6327C265.75 51.3367 265.426 51.1047 265.042 50.9367C264.666 50.7687 264.234 50.6847 263.746 50.6847C263.306 50.6847 262.902 50.7647 262.534 50.9247C262.166 51.0767 261.846 51.2967 261.574 51.5847C261.302 51.8727 261.09 52.2127 260.938 52.6047C260.794 52.9967 260.722 53.4247 260.722 53.8887C260.722 54.3527 260.794 54.7807 260.938 55.1727C261.09 55.5647 261.302 55.9047 261.574 56.1927C261.846 56.4807 262.166 56.7047 262.534 56.8647C262.902 57.0167 263.306 57.0927 263.746 57.0927C264.266 57.0927 264.718 57.0087 265.102 56.8407C265.486 56.6647 265.81 56.4287 266.074 56.1327L266.854 56.9007C266.47 57.3007 266.018 57.6127 265.498 57.8367C264.986 58.0607 264.406 58.1727 263.758 58.1727ZM268.996 58.1727C268.772 58.1727 268.584 58.0967 268.432 57.9447C268.288 57.7847 268.216 57.5967 268.216 57.3807C268.216 57.1567 268.288 56.9727 268.432 56.8287C268.584 56.6767 268.772 56.6007 268.996 56.6007C269.22 56.6007 269.404 56.6767 269.548 56.8287C269.7 56.9727 269.776 57.1567 269.776 57.3807C269.776 57.5967 269.7 57.7847 269.548 57.9447C269.404 58.0967 269.22 58.1727 268.996 58.1727ZM276.616 58.1727C276.064 58.1727 275.568 58.0447 275.128 57.7887C274.696 57.5327 274.352 57.1887 274.096 56.7567C273.84 56.3247 273.712 55.8447 273.712 55.3167C273.712 54.5807 273.968 53.8487 274.48 53.1207L276.928 49.7247H278.236L275.728 53.1447L275.32 53.3607C275.416 53.1927 275.532 53.0527 275.668 52.9407C275.804 52.8207 275.972 52.7287 276.172 52.6647C276.372 52.6007 276.608 52.5687 276.88 52.5687C277.368 52.5687 277.808 52.6847 278.2 52.9167C278.6 53.1487 278.92 53.4687 279.16 53.8767C279.408 54.2767 279.532 54.7447 279.532 55.2807C279.532 55.8087 279.4 56.2927 279.136 56.7327C278.88 57.1727 278.528 57.5247 278.08 57.7887C277.64 58.0447 277.152 58.1727 276.616 58.1727ZM276.616 57.1167C276.952 57.1167 277.252 57.0367 277.516 56.8767C277.788 56.7087 278 56.4887 278.152 56.2167C278.312 55.9367 278.392 55.6247 278.392 55.2807C278.392 54.9367 278.312 54.6287 278.152 54.3567C278 54.0767 277.788 53.8567 277.516 53.6967C277.252 53.5367 276.952 53.4567 276.616 53.4567C276.28 53.4567 275.976 53.5367 275.704 53.6967C275.44 53.8567 275.228 54.0767 275.068 54.3567C274.916 54.6287 274.84 54.9367 274.84 55.2807C274.84 55.6247 274.916 55.9367 275.068 56.2167C275.228 56.4967 275.44 56.7167 275.704 56.8767C275.976 57.0367 276.28 57.1167 276.616 57.1167Z" fill="#65BC4B"/>
<path opacity="0.6" d="M340.057 10.9473H318.879C317.134 10.9473 315.712 12.3772 315.712 14.115V36.7511C315.712 38.401 316.983 39.7429 318.577 39.9189C318.577 39.9629 318.577 40.0069 318.577 40.0509C318.577 41.1728 319.482 42.0527 320.602 42.0527C321.723 42.0527 322.628 41.1508 322.628 40.0509C322.628 40.0069 322.628 39.9849 322.628 39.9409H336.373C336.373 39.9409 336.373 40.0069 336.373 40.0509C336.373 41.1728 337.277 42.0527 338.398 42.0527C339.518 42.0527 340.423 41.1508 340.423 40.0509C340.423 40.0069 340.423 39.9629 340.423 39.9189C342.017 39.7649 343.288 38.401 343.288 36.7511V14.115C343.288 12.3772 341.866 10.9473 340.121 10.9473M320.818 13.1691H338.613C339.173 13.1691 339.647 13.6311 339.647 14.203C339.647 14.775 339.195 15.2369 338.613 15.2369H320.775C320.193 15.2369 319.741 14.775 319.741 14.203C319.741 13.6311 320.193 13.1691 320.775 13.1691M320.085 37.1691C319.245 37.1691 318.577 36.4872 318.577 35.6732C318.577 34.8593 319.245 34.1554 320.085 34.1554C320.926 34.1554 321.593 34.8373 321.593 35.6732C321.593 36.5092 320.926 37.1691 320.085 37.1691ZM328.918 31.2736H320.602C319.504 31.2736 318.599 30.3717 318.599 29.2718V18.5587C318.599 17.4588 319.504 16.5348 320.602 16.5348H328.918V31.2736ZM338.893 37.1691C338.053 37.1691 337.385 36.4872 337.385 35.6732C337.385 34.8593 338.053 34.1554 338.893 34.1554C339.733 34.1554 340.401 34.8373 340.401 35.6732C340.401 36.5092 339.733 37.1691 338.893 37.1691ZM340.401 29.2498C340.401 30.3497 339.496 31.2516 338.398 31.2516H330.06V16.5128H338.398C339.496 16.5128 340.401 17.4148 340.401 18.5367V29.2498Z" fill="#65BC4B"/>
<path d="M323.758 58.1727C323.158 58.1727 322.602 58.0647 322.09 57.8487C321.578 57.6247 321.13 57.3167 320.746 56.9247C320.37 56.5327 320.078 56.0767 319.87 55.5567C319.662 55.0367 319.558 54.4807 319.558 53.8887C319.558 53.2887 319.662 52.7287 319.87 52.2087C320.078 51.6887 320.37 51.2367 320.746 50.8527C321.13 50.4607 321.574 50.1567 322.078 49.9407C322.59 49.7167 323.146 49.6047 323.746 49.6047C324.402 49.6047 324.978 49.7167 325.474 49.9407C325.97 50.1647 326.41 50.4687 326.794 50.8527L326.014 51.6327C325.75 51.3367 325.426 51.1047 325.042 50.9367C324.666 50.7687 324.234 50.6847 323.746 50.6847C323.306 50.6847 322.902 50.7647 322.534 50.9247C322.166 51.0767 321.846 51.2967 321.574 51.5847C321.302 51.8727 321.09 52.2127 320.938 52.6047C320.794 52.9967 320.722 53.4247 320.722 53.8887C320.722 54.3527 320.794 54.7807 320.938 55.1727C321.09 55.5647 321.302 55.9047 321.574 56.1927C321.846 56.4807 322.166 56.7047 322.534 56.8647C322.902 57.0167 323.306 57.0927 323.746 57.0927C324.266 57.0927 324.718 57.0087 325.102 56.8407C325.486 56.6647 325.81 56.4287 326.074 56.1327L326.854 56.9007C326.47 57.3007 326.018 57.6127 325.498 57.8367C324.986 58.0607 324.406 58.1727 323.758 58.1727ZM328.996 58.1727C328.772 58.1727 328.584 58.0967 328.432 57.9447C328.288 57.7847 328.216 57.5967 328.216 57.3807C328.216 57.1567 328.288 56.9727 328.432 56.8287C328.584 56.6767 328.772 56.6007 328.996 56.6007C329.22 56.6007 329.404 56.6767 329.548 56.8287C329.7 56.9727 329.776 57.1567 329.776 57.3807C329.776 57.5967 329.7 57.7847 329.548 57.9447C329.404 58.0967 329.22 58.1727 328.996 58.1727ZM336.616 58.1727C336.064 58.1727 335.568 58.0447 335.128 57.7887C334.696 57.5327 334.352 57.1887 334.096 56.7567C333.84 56.3247 333.712 55.8447 333.712 55.3167C333.712 54.5807 333.968 53.8487 334.48 53.1207L336.928 49.7247H338.236L335.728 53.1447L335.32 53.3607C335.416 53.1927 335.532 53.0527 335.668 52.9407C335.804 52.8207 335.972 52.7287 336.172 52.6647C336.372 52.6007 336.608 52.5687 336.88 52.5687C337.368 52.5687 337.808 52.6847 338.2 52.9167C338.6 53.1487 338.92 53.4687 339.16 53.8767C339.408 54.2767 339.532 54.7447 339.532 55.2807C339.532 55.8087 339.4 56.2927 339.136 56.7327C338.88 57.1727 338.528 57.5247 338.08 57.7887C337.64 58.0447 337.152 58.1727 336.616 58.1727ZM336.616 57.1167C336.952 57.1167 337.252 57.0367 337.516 56.8767C337.788 56.7087 338 56.4887 338.152 56.2167C338.312 55.9367 338.392 55.6247 338.392 55.2807C338.392 54.9367 338.312 54.6287 338.152 54.3567C338 54.0767 337.788 53.8567 337.516 53.6967C337.252 53.5367 336.952 53.4567 336.616 53.4567C336.28 53.4567 335.976 53.5367 335.704 53.6967C335.44 53.8567 335.228 54.0767 335.068 54.3567C334.916 54.6287 334.84 54.9367 334.84 55.2807C334.84 55.6247 334.916 55.9367 335.068 56.2167C335.228 56.4967 335.44 56.7167 335.704 56.8767C335.976 57.0367 336.28 57.1167 336.616 57.1167Z" fill="#65BC4B"/>
</svg>
