<svg width="276" height="72" viewBox="0 0 276 72" fill="none" xmlns="http://www.w3.org/2000/svg">
<rect width="276" height="72" rx="36" fill="white"/>
<rect x="12" y="12" width="48" height="48" rx="24" fill="#111716"/>
<path d="M30.3263 38.6L34.9663 29.38H38.3863L33.6463 38.6H30.3263ZM30.3263 40.36V38.6L31.3663 37.7H41.6463V40.36H30.3263ZM36.9863 43.5V34.76H40.0663V43.5H36.9863Z" fill="white"/>
<path d="M106.405 17.3451C106.298 16.468 105.568 15.8102 104.666 15.8102H97.7504V10.1528H94.9585V15.8102H87.3773C86.4967 15.8102 85.7451 16.468 85.6377 17.3451L83.5974 35.6768C83.5974 35.8084 83.5974 35.9618 83.5974 36.0934L84.2847 41.3342C84.392 42.2113 85.1222 42.8472 86.0028 42.8472H105.997C106.856 42.8472 107.608 42.2113 107.716 41.3342L108.403 36.0934C108.403 35.9618 108.403 35.8084 108.403 35.6768L106.363 17.3451H106.405ZM88.4941 20.0642C88.537 19.5818 88.9451 19.2528 89.4175 19.2528H102.626C103.12 19.2528 103.506 19.6037 103.549 20.0642L105.117 34.0761C105.16 34.3392 105.074 34.6023 104.902 34.7997C104.73 34.997 104.473 35.1067 104.215 35.1067H87.8712C87.6135 35.1067 87.3558 34.997 87.184 34.7997C87.0122 34.6023 86.9263 34.3392 86.9477 34.0761L88.5155 20.0642H88.4941ZM90.6417 38.7467H87.5276C87.0122 38.7467 86.6041 38.3301 86.6041 37.8257C86.6041 37.3214 87.0122 36.9047 87.5276 36.9047H90.6417C91.1571 36.9047 91.5652 37.3214 91.5652 37.8257C91.5652 38.3301 91.1571 38.7467 90.6417 38.7467ZM104.666 38.7467H101.552C101.036 38.7467 100.628 38.3301 100.628 37.8257C100.628 37.3214 101.058 36.9047 101.552 36.9047H104.666C105.181 36.9047 105.589 37.3214 105.589 37.8257C105.589 38.3301 105.181 38.7467 104.666 38.7467Z" fill="#65BC4B"/>
<path d="M73.6334 58.8472V50.7592H74.7614V58.8472H73.6334ZM70.8014 51.5512V50.5192H77.5814V51.5512H70.8014ZM79.6814 55.2232V54.2752H81.9374C82.4254 54.2752 82.8014 54.1512 83.0654 53.9032C83.3294 53.6552 83.4614 53.3192 83.4614 52.8952C83.4614 52.4952 83.3294 52.1632 83.0654 51.8992C82.8094 51.6352 82.4374 51.5032 81.9494 51.5032H79.6814V50.5192H81.9854C82.5134 50.5192 82.9734 50.6232 83.3654 50.8312C83.7574 51.0312 84.0574 51.3072 84.2654 51.6592C84.4814 52.0112 84.5894 52.4152 84.5894 52.8712C84.5894 53.3432 84.4814 53.7552 84.2654 54.1072C84.0574 54.4592 83.7574 54.7352 83.3654 54.9352C82.9734 55.1272 82.5134 55.2232 81.9854 55.2232H79.6814ZM78.9254 58.8472V50.5192H80.0534V58.8472H78.9254ZM83.7254 58.8472L80.7014 55.1152L81.7694 54.7432L85.1534 58.8472H83.7254ZM85.4384 58.8472L88.8464 50.5192H89.6624L93.0584 58.8472H91.8344L89.0384 51.8032H89.4584L86.6384 58.8472H85.4384ZM87.0584 56.9632V55.9792H91.4384V56.9632H87.0584ZM94.3121 58.8472V50.5192H95.1041L95.4401 51.8272V58.8472H94.3121ZM100.072 58.8472L94.9601 52.0192L95.1041 50.5192L100.228 57.3352L100.072 58.8472ZM100.072 58.8472L99.7361 57.6112V50.5192H100.864V58.8472H100.072ZM105.556 58.8472L102.22 50.5192H103.444L106.192 57.5632H105.748L108.52 50.5192H109.732L106.372 58.8472H105.556ZM111.093 58.8472V50.5192H112.221V58.8472H111.093ZM110.949 49.6672L110.457 49.1752L112.017 47.2432L112.869 48.0952L110.949 49.6672ZM113.575 58.8472L116.983 50.5192H117.799L121.195 58.8472H119.971L117.175 51.8032H117.595L114.775 58.8472H113.575ZM115.195 56.9632V55.9792H119.575V56.9632H115.195Z" fill="#65BC4B"/>
<path d="M133.345 38.08V35.54H142.645V38.08H133.345ZM136.705 31.92H139.305V41.66H136.705V31.92Z" fill="#65BC4B"/>
<path d="M191.903 12.7772C191.786 11.7722 190.942 11.0065 189.91 11.0065H170.096C169.088 11.0065 168.22 11.7722 168.103 12.7772L165.758 33.7622C165.758 33.9297 165.758 34.0733 165.758 34.2408L166.555 40.2467C166.696 41.2278 167.54 41.9935 168.525 41.9935H191.458C192.443 41.9935 193.31 41.2517 193.428 40.2467L194.225 34.2408C194.248 34.0733 194.248 33.9297 194.225 33.7622L191.88 12.7772H191.903ZM169.58 31.9197L171.362 15.8878C171.432 15.3375 171.878 14.9546 172.417 14.9546H187.565C188.105 14.9546 188.574 15.3614 188.621 15.8878L190.426 31.9197C190.45 32.2069 190.356 32.5179 190.168 32.7572C189.957 32.9965 189.676 33.1161 189.371 33.1161H170.635C170.33 33.1161 170.049 32.9965 169.838 32.7572C169.65 32.5419 169.533 32.2308 169.58 31.9197ZM173.848 37.2796H170.283C169.697 37.2796 169.228 36.8011 169.228 36.2029C169.228 35.6047 169.697 35.15 170.283 35.15H173.848C174.434 35.15 174.903 35.6286 174.903 36.2029C174.903 36.7772 174.434 37.2796 173.848 37.2796ZM189.934 37.2796H186.369C185.783 37.2796 185.291 36.8011 185.291 36.2029C185.291 35.6047 185.76 35.15 186.369 35.15H189.934C190.52 35.15 190.989 35.6286 190.989 36.2029C190.989 36.7772 190.52 37.2796 189.934 37.2796Z" fill="#65BC4B"/>
<path d="M160.423 57.9935V49.6655H161.215L164.743 55.4615H164.203L167.731 49.6655H168.523V57.9935H167.395V51.6455L167.659 51.7175L164.875 56.2895H164.083L161.299 51.7175L161.551 51.6455V57.9935H160.423ZM170.49 57.9935V49.6655H171.618V57.9935H170.49ZM171.258 57.9935V56.9615H176.034V57.9935H171.258ZM171.258 54.2255V53.2415H175.638V54.2255H171.258ZM171.258 50.6975V49.6655H175.974V50.6975H171.258ZM179.46 57.9935V49.9055H180.588V57.9935H179.46ZM176.628 50.6975V49.6655H183.408V50.6975H176.628ZM185.508 54.3695V53.4215H187.764C188.252 53.4215 188.628 53.2975 188.892 53.0495C189.156 52.8015 189.288 52.4655 189.288 52.0415C189.288 51.6415 189.156 51.3095 188.892 51.0455C188.636 50.7815 188.264 50.6495 187.776 50.6495H185.508V49.6655H187.812C188.34 49.6655 188.8 49.7695 189.192 49.9775C189.584 50.1775 189.884 50.4535 190.092 50.8055C190.308 51.1575 190.416 51.5615 190.416 52.0175C190.416 52.4895 190.308 52.9015 190.092 53.2535C189.884 53.6055 189.584 53.8815 189.192 54.0815C188.8 54.2735 188.34 54.3695 187.812 54.3695H185.508ZM184.752 57.9935V49.6655H185.88V57.9935H184.752ZM189.552 57.9935L186.528 54.2615L187.596 53.8895L190.98 57.9935H189.552ZM195.809 58.1135C195.217 58.1135 194.665 58.0055 194.153 57.7895C193.641 57.5655 193.193 57.2575 192.809 56.8655C192.425 56.4655 192.125 56.0055 191.909 55.4855C191.701 54.9655 191.597 54.4095 191.597 53.8175C191.597 53.2175 191.701 52.6615 191.909 52.1495C192.125 51.6295 192.421 51.1735 192.797 50.7815C193.181 50.3895 193.625 50.0855 194.129 49.8695C194.641 49.6535 195.193 49.5455 195.785 49.5455C196.377 49.5455 196.925 49.6535 197.429 49.8695C197.941 50.0855 198.389 50.3895 198.773 50.7815C199.157 51.1735 199.457 51.6295 199.673 52.1495C199.889 52.6695 199.997 53.2295 199.997 53.8295C199.997 54.4215 199.889 54.9775 199.673 55.4975C199.457 56.0175 199.157 56.4735 198.773 56.8655C198.397 57.2575 197.953 57.5655 197.441 57.7895C196.937 58.0055 196.393 58.1135 195.809 58.1135ZM195.785 57.0335C196.385 57.0335 196.909 56.8975 197.357 56.6255C197.813 56.3455 198.173 55.9655 198.437 55.4855C198.701 54.9975 198.833 54.4415 198.833 53.8175C198.833 53.3535 198.757 52.9295 198.605 52.5455C198.453 52.1535 198.241 51.8135 197.969 51.5255C197.697 51.2375 197.377 51.0175 197.009 50.8655C196.641 50.7055 196.233 50.6255 195.785 50.6255C195.193 50.6255 194.669 50.7615 194.213 51.0335C193.765 51.3055 193.409 51.6815 193.145 52.1615C192.889 52.6415 192.761 53.1935 192.761 53.8175C192.761 54.2815 192.833 54.7135 192.977 55.1135C193.129 55.5055 193.337 55.8455 193.601 56.1335C193.873 56.4135 194.193 56.6335 194.561 56.7935C194.937 56.9535 195.345 57.0335 195.785 57.0335Z" fill="#65BC4B"/>
<path d="M251.845 25.0561C251.845 25.0561 251.826 24.9332 251.787 24.8718L247.829 11.6004C247.58 10.7607 246.739 10.3102 245.955 10.5764C245.171 10.8427 244.731 11.7233 244.98 12.5425L245.458 14.1605H234.5L234.979 12.5425C235.227 11.7233 234.787 10.8427 234.003 10.5764C233.219 10.3102 232.378 10.7812 232.129 11.6004L228.171 24.8718C228.171 24.8718 228.133 24.9947 228.133 25.0561C228.094 25.2609 227.769 27.1451 228.305 29.1727C229.07 32.2243 231.67 41.0309 231.785 41.3996C232.053 42.2393 232.875 42.6898 233.659 42.4236C234.29 42.2188 234.692 41.6044 234.711 40.949H245.305C245.305 41.6044 245.706 42.2188 246.337 42.4236C247.122 42.6898 247.963 42.2188 248.212 41.3996C248.326 41.0309 250.927 32.2243 251.711 29.1727C252.227 27.1451 251.902 25.2609 251.864 25.0561M248.823 28.374C248.613 29.2137 248.25 30.5244 247.848 31.9581H232.148C231.747 30.5039 231.383 29.2137 231.173 28.374C230.886 27.1861 231.02 25.9982 231.058 25.7115L233.659 16.9663H246.299L248.919 25.691C248.957 25.9777 249.11 27.1861 248.804 28.374" fill="#65BC4B"/>
<path d="M226.02 58.62C225.42 58.62 224.864 58.512 224.352 58.296C223.84 58.072 223.392 57.764 223.008 57.372C222.632 56.98 222.34 56.524 222.132 56.004C221.924 55.484 221.82 54.928 221.82 54.336C221.82 53.736 221.924 53.176 222.132 52.656C222.34 52.136 222.632 51.684 223.008 51.3C223.392 50.908 223.836 50.604 224.34 50.388C224.852 50.164 225.408 50.052 226.008 50.052C226.664 50.052 227.24 50.164 227.736 50.388C228.232 50.612 228.672 50.916 229.056 51.3L228.276 52.08C228.012 51.784 227.688 51.552 227.304 51.384C226.928 51.216 226.496 51.132 226.008 51.132C225.568 51.132 225.164 51.212 224.796 51.372C224.428 51.524 224.108 51.744 223.836 52.032C223.564 52.32 223.352 52.66 223.2 53.052C223.056 53.444 222.984 53.872 222.984 54.336C222.984 54.8 223.056 55.228 223.2 55.62C223.352 56.012 223.564 56.352 223.836 56.64C224.108 56.928 224.428 57.152 224.796 57.312C225.164 57.464 225.568 57.54 226.008 57.54C226.528 57.54 226.98 57.456 227.364 57.288C227.748 57.112 228.072 56.876 228.336 56.58L229.116 57.348C228.732 57.748 228.28 58.06 227.76 58.284C227.248 58.508 226.668 58.62 226.02 58.62ZM229.679 58.5L233.087 50.172H233.903L237.299 58.5H236.075L233.279 51.456H233.699L230.879 58.5H229.679ZM231.299 56.616V55.632H235.679V56.616H231.299ZM239.308 58.5V57.516H241.828C242.308 57.516 242.684 57.376 242.956 57.096C243.228 56.808 243.364 56.464 243.364 56.064C243.364 55.792 243.304 55.548 243.184 55.332C243.064 55.108 242.888 54.932 242.656 54.804C242.432 54.676 242.168 54.612 241.864 54.612H239.308V53.628H241.696C242.096 53.628 242.412 53.524 242.644 53.316C242.884 53.1 243.004 52.792 243.004 52.392C243.004 51.992 242.88 51.688 242.632 51.48C242.384 51.264 242.056 51.156 241.648 51.156H239.308V50.172H241.672C242.216 50.172 242.668 50.272 243.028 50.472C243.396 50.664 243.672 50.92 243.856 51.24C244.048 51.56 244.144 51.912 244.144 52.296C244.144 52.744 244.02 53.136 243.772 53.472C243.532 53.808 243.176 54.072 242.704 54.264L242.8 53.904C243.336 54.096 243.752 54.388 244.048 54.78C244.352 55.164 244.504 55.62 244.504 56.148C244.504 56.588 244.396 56.984 244.18 57.336C243.964 57.688 243.652 57.972 243.244 58.188C242.844 58.396 242.352 58.5 241.768 58.5H239.308ZM238.552 58.5V50.172H239.68V58.5H238.552ZM246.029 58.5V50.172H247.157V58.5H246.029ZM246.797 58.5V57.468H251.261V58.5H246.797ZM252.65 58.5V50.172H253.778V58.5H252.65ZM253.418 58.5V57.468H258.194V58.5H253.418ZM253.418 54.732V53.748H257.798V54.732H253.418ZM253.418 51.204V50.172H258.134V51.204H253.418Z" fill="#65BC4B"/>
</svg>
