<svg width="372" height="72" viewBox="0 0 372 72" fill="none" xmlns="http://www.w3.org/2000/svg">
<rect width="372" height="72" rx="36" fill="white"/>
<rect x="12" y="12" width="48" height="48" rx="24" fill="#111716"/>
<path d="M35.3407 43.5V29.38H38.4607V43.5H35.3407ZM32.6207 32.04V29.38H38.2607V32.04H32.6207Z" fill="white"/>
<path d="M107.903 12.7772C107.786 11.7722 106.942 11.0065 105.91 11.0065H86.0959C85.0876 11.0065 84.22 11.7722 84.1027 12.7772L81.7578 33.7622C81.7578 33.9297 81.7578 34.0733 81.7578 34.2408L82.5551 40.2467C82.6958 41.2278 83.5399 41.9935 84.5248 41.9935H107.458C108.443 41.9935 109.31 41.2517 109.428 40.2467L110.225 34.2408C110.248 34.0733 110.248 33.9297 110.225 33.7622L107.88 12.7772H107.903ZM85.58 31.9197L87.3621 15.8878C87.4325 15.3375 87.878 14.9546 88.4173 14.9546H103.565C104.105 14.9546 104.574 15.3614 104.621 15.8878L106.426 31.9197C106.45 32.2069 106.356 32.5179 106.168 32.7572C105.957 32.9965 105.676 33.1161 105.371 33.1161H86.6352C86.3304 33.1161 86.049 32.9965 85.8379 32.7572C85.6503 32.5419 85.5331 32.2308 85.58 31.9197ZM89.8477 37.2796H86.2835C85.6972 37.2796 85.2283 36.8011 85.2283 36.2029C85.2283 35.6047 85.6972 35.15 86.2835 35.15H89.8477C90.4339 35.15 90.9029 35.6286 90.9029 36.2029C90.9029 36.7772 90.4339 37.2796 89.8477 37.2796ZM105.934 37.2796H102.369C101.783 37.2796 101.291 36.8011 101.291 36.2029C101.291 35.6047 101.76 35.15 102.369 35.15H105.934C106.52 35.15 106.989 35.6286 106.989 36.2029C106.989 36.7772 106.52 37.2796 105.934 37.2796Z" fill="#65BC4B"/>
<path d="M76.4235 57.9935V49.6655H77.2155L80.7435 55.4615H80.2035L83.7315 49.6655H84.5235V57.9935H83.3955V51.6455L83.6595 51.7175L80.8755 56.2895H80.0835L77.2995 51.7175L77.5515 51.6455V57.9935H76.4235ZM86.4899 57.9935V49.6655H87.6179V57.9935H86.4899ZM87.2579 57.9935V56.9615H92.0339V57.9935H87.2579ZM87.2579 54.2255V53.2415H91.6379V54.2255H87.2579ZM87.2579 50.6975V49.6655H91.9739V50.6975H87.2579ZM95.4596 57.9935V49.9055H96.5876V57.9935H95.4596ZM92.6276 50.6975V49.6655H99.4076V50.6975H92.6276ZM101.508 54.3695V53.4215H103.764C104.252 53.4215 104.628 53.2975 104.892 53.0495C105.156 52.8015 105.288 52.4655 105.288 52.0415C105.288 51.6415 105.156 51.3095 104.892 51.0455C104.636 50.7815 104.264 50.6495 103.776 50.6495H101.508V49.6655H103.812C104.34 49.6655 104.8 49.7695 105.192 49.9775C105.584 50.1775 105.884 50.4535 106.092 50.8055C106.308 51.1575 106.416 51.5615 106.416 52.0175C106.416 52.4895 106.308 52.9015 106.092 53.2535C105.884 53.6055 105.584 53.8815 105.192 54.0815C104.8 54.2735 104.34 54.3695 103.812 54.3695H101.508ZM100.752 57.9935V49.6655H101.88V57.9935H100.752ZM105.552 57.9935L102.528 54.2615L103.596 53.8895L106.98 57.9935H105.552ZM111.809 58.1135C111.217 58.1135 110.665 58.0055 110.153 57.7895C109.641 57.5655 109.193 57.2575 108.809 56.8655C108.425 56.4655 108.125 56.0055 107.909 55.4855C107.701 54.9655 107.597 54.4095 107.597 53.8175C107.597 53.2175 107.701 52.6615 107.909 52.1495C108.125 51.6295 108.421 51.1735 108.797 50.7815C109.181 50.3895 109.625 50.0855 110.129 49.8695C110.641 49.6535 111.193 49.5455 111.785 49.5455C112.377 49.5455 112.925 49.6535 113.429 49.8695C113.941 50.0855 114.389 50.3895 114.773 50.7815C115.157 51.1735 115.457 51.6295 115.673 52.1495C115.889 52.6695 115.997 53.2295 115.997 53.8295C115.997 54.4215 115.889 54.9775 115.673 55.4975C115.457 56.0175 115.157 56.4735 114.773 56.8655C114.397 57.2575 113.953 57.5655 113.441 57.7895C112.937 58.0055 112.393 58.1135 111.809 58.1135ZM111.785 57.0335C112.385 57.0335 112.909 56.8975 113.357 56.6255C113.813 56.3455 114.173 55.9655 114.437 55.4855C114.701 54.9975 114.833 54.4415 114.833 53.8175C114.833 53.3535 114.757 52.9295 114.605 52.5455C114.453 52.1535 114.241 51.8135 113.969 51.5255C113.697 51.2375 113.377 51.0175 113.009 50.8655C112.641 50.7055 112.233 50.6255 111.785 50.6255C111.193 50.6255 110.669 50.7615 110.213 51.0335C109.765 51.3055 109.409 51.6815 109.145 52.1615C108.889 52.6415 108.761 53.1935 108.761 53.8175C108.761 54.2815 108.833 54.7135 108.977 55.1135C109.129 55.5055 109.337 55.8455 109.601 56.1335C109.873 56.4135 110.193 56.6335 110.561 56.7935C110.937 56.9535 111.345 57.0335 111.785 57.0335Z" fill="#65BC4B"/>
<path opacity="0.6" d="M166.557 10.9473H145.379C143.634 10.9473 142.212 12.3772 142.212 14.115V36.7511C142.212 38.401 143.483 39.7429 145.077 39.9189C145.077 39.9629 145.077 40.0069 145.077 40.0509C145.077 41.1728 145.982 42.0527 147.102 42.0527C148.223 42.0527 149.128 41.1508 149.128 40.0509C149.128 40.0069 149.128 39.9849 149.128 39.9409H162.873C162.873 39.9409 162.873 40.0069 162.873 40.0509C162.873 41.1728 163.777 42.0527 164.898 42.0527C166.018 42.0527 166.923 41.1508 166.923 40.0509C166.923 40.0069 166.923 39.9629 166.923 39.9189C168.517 39.7649 169.788 38.401 169.788 36.7511V14.115C169.788 12.3772 168.366 10.9473 166.621 10.9473M147.318 13.1691H165.113C165.673 13.1691 166.147 13.6311 166.147 14.203C166.147 14.775 165.695 15.2369 165.113 15.2369H147.275C146.693 15.2369 146.241 14.775 146.241 14.203C146.241 13.6311 146.693 13.1691 147.275 13.1691M146.585 37.1691C145.745 37.1691 145.077 36.4872 145.077 35.6732C145.077 34.8593 145.745 34.1554 146.585 34.1554C147.426 34.1554 148.093 34.8373 148.093 35.6732C148.093 36.5092 147.426 37.1691 146.585 37.1691ZM155.418 31.2736H147.102C146.004 31.2736 145.099 30.3717 145.099 29.2718V18.5587C145.099 17.4588 146.004 16.5348 147.102 16.5348H155.418V31.2736ZM165.393 37.1691C164.553 37.1691 163.885 36.4872 163.885 35.6732C163.885 34.8593 164.553 34.1554 165.393 34.1554C166.233 34.1554 166.901 34.8373 166.901 35.6732C166.901 36.5092 166.233 37.1691 165.393 37.1691ZM166.901 29.2498C166.901 30.3497 165.996 31.2516 164.898 31.2516H156.56V16.5128H164.898C165.996 16.5128 166.901 17.4148 166.901 18.5367V29.2498Z" fill="#65BC4B"/>
<path d="M139.77 58.1727C139.17 58.1727 138.614 58.0647 138.102 57.8487C137.59 57.6247 137.142 57.3167 136.758 56.9247C136.382 56.5327 136.09 56.0767 135.882 55.5567C135.674 55.0367 135.57 54.4807 135.57 53.8887C135.57 53.2887 135.674 52.7287 135.882 52.2087C136.09 51.6887 136.382 51.2367 136.758 50.8527C137.142 50.4607 137.586 50.1567 138.09 49.9407C138.602 49.7167 139.158 49.6047 139.758 49.6047C140.414 49.6047 140.99 49.7167 141.486 49.9407C141.982 50.1647 142.422 50.4687 142.806 50.8527L142.026 51.6327C141.762 51.3367 141.438 51.1047 141.054 50.9367C140.678 50.7687 140.246 50.6847 139.758 50.6847C139.318 50.6847 138.914 50.7647 138.546 50.9247C138.178 51.0767 137.858 51.2967 137.586 51.5847C137.314 51.8727 137.102 52.2127 136.95 52.6047C136.806 52.9967 136.734 53.4247 136.734 53.8887C136.734 54.3527 136.806 54.7807 136.95 55.1727C137.102 55.5647 137.314 55.9047 137.586 56.1927C137.858 56.4807 138.178 56.7047 138.546 56.8647C138.914 57.0167 139.318 57.0927 139.758 57.0927C140.278 57.0927 140.73 57.0087 141.114 56.8407C141.498 56.6647 141.822 56.4287 142.086 56.1327L142.866 56.9007C142.482 57.3007 142.03 57.6127 141.51 57.8367C140.998 58.0607 140.418 58.1727 139.77 58.1727ZM145.008 58.1727C144.784 58.1727 144.596 58.0967 144.444 57.9447C144.3 57.7847 144.228 57.5967 144.228 57.3807C144.228 57.1567 144.3 56.9727 144.444 56.8287C144.596 56.6767 144.784 56.6007 145.008 56.6007C145.232 56.6007 145.416 56.6767 145.56 56.8287C145.712 56.9727 145.788 57.1567 145.788 57.3807C145.788 57.5967 145.712 57.7847 145.56 57.9447C145.416 58.0967 145.232 58.1727 145.008 58.1727ZM152.208 58.1727C151.664 58.1727 151.168 58.0727 150.72 57.8727C150.28 57.6647 149.908 57.3647 149.604 56.9727L150.372 56.2047C150.556 56.4847 150.808 56.7087 151.128 56.8767C151.448 57.0367 151.804 57.1167 152.196 57.1167C152.564 57.1167 152.88 57.0487 153.144 56.9127C153.416 56.7687 153.628 56.5687 153.78 56.3127C153.94 56.0567 154.02 55.7607 154.02 55.4247C154.02 55.0807 153.94 54.7847 153.78 54.5367C153.628 54.2807 153.412 54.0847 153.132 53.9487C152.852 53.8127 152.52 53.7447 152.136 53.7447C151.992 53.7447 151.848 53.7567 151.704 53.7807C151.56 53.7967 151.42 53.8247 151.284 53.8647L151.764 53.2167C151.916 53.1447 152.08 53.0887 152.256 53.0487C152.432 53.0087 152.608 52.9887 152.784 52.9887C153.232 52.9887 153.632 53.0927 153.984 53.3007C154.344 53.5087 154.628 53.8007 154.836 54.1767C155.052 54.5527 155.16 54.9887 155.16 55.4847C155.16 56.0127 155.032 56.4807 154.776 56.8887C154.528 57.2887 154.184 57.6047 153.744 57.8367C153.304 58.0607 152.792 58.1727 152.208 58.1727ZM151.284 53.8647V53.1807L153.72 50.4087L155.064 50.3967L152.556 53.2407L151.284 53.8647ZM150 50.7327V49.7247H155.064V50.3967L154.08 50.7327H150ZM162.973 58.1727C162.381 58.1727 161.829 58.0647 161.317 57.8487C160.805 57.6247 160.357 57.3167 159.973 56.9247C159.589 56.5247 159.289 56.0647 159.073 55.5447C158.865 55.0247 158.761 54.4687 158.761 53.8767C158.761 53.2767 158.865 52.7207 159.073 52.2087C159.289 51.6887 159.585 51.2327 159.961 50.8407C160.345 50.4487 160.789 50.1447 161.293 49.9287C161.805 49.7127 162.357 49.6047 162.949 49.6047C163.541 49.6047 164.089 49.7127 164.593 49.9287C165.105 50.1447 165.553 50.4487 165.937 50.8407C166.321 51.2327 166.621 51.6887 166.837 52.2087C167.053 52.7287 167.161 53.2887 167.161 53.8887C167.161 54.4807 167.053 55.0367 166.837 55.5567C166.621 56.0767 166.321 56.5327 165.937 56.9247C165.561 57.3167 165.117 57.6247 164.605 57.8487C164.101 58.0647 163.557 58.1727 162.973 58.1727ZM162.949 57.0927C163.549 57.0927 164.073 56.9567 164.521 56.6847C164.977 56.4047 165.337 56.0247 165.601 55.5447C165.865 55.0567 165.997 54.5007 165.997 53.8767C165.997 53.4127 165.921 52.9887 165.769 52.6047C165.617 52.2127 165.405 51.8727 165.133 51.5847C164.861 51.2967 164.541 51.0767 164.173 50.9247C163.805 50.7647 163.397 50.6847 162.949 50.6847C162.357 50.6847 161.833 50.8207 161.377 51.0927C160.929 51.3647 160.573 51.7407 160.309 52.2207C160.053 52.7007 159.925 53.2527 159.925 53.8767C159.925 54.3407 159.997 54.7727 160.141 55.1727C160.293 55.5647 160.501 55.9047 160.765 56.1927C161.037 56.4727 161.357 56.6927 161.725 56.8527C162.101 57.0127 162.509 57.0927 162.949 57.0927ZM162.241 48.8727L161.749 48.3807L163.309 46.4487L164.161 47.3007L162.241 48.8727ZM173.605 58.1727C173.053 58.1727 172.557 58.0447 172.117 57.7887C171.685 57.5327 171.341 57.1887 171.085 56.7567C170.829 56.3247 170.701 55.8447 170.701 55.3167C170.701 54.5807 170.957 53.8487 171.469 53.1207L173.917 49.7247H175.225L172.717 53.1447L172.309 53.3607C172.405 53.1927 172.521 53.0527 172.657 52.9407C172.793 52.8207 172.961 52.7287 173.161 52.6647C173.361 52.6007 173.597 52.5687 173.869 52.5687C174.357 52.5687 174.797 52.6847 175.189 52.9167C175.589 53.1487 175.909 53.4687 176.149 53.8767C176.397 54.2767 176.521 54.7447 176.521 55.2807C176.521 55.8087 176.389 56.2927 176.125 56.7327C175.869 57.1727 175.517 57.5247 175.069 57.7887C174.629 58.0447 174.141 58.1727 173.605 58.1727ZM173.605 57.1167C173.941 57.1167 174.241 57.0367 174.505 56.8767C174.777 56.7087 174.989 56.4887 175.141 56.2167C175.301 55.9367 175.381 55.6247 175.381 55.2807C175.381 54.9367 175.301 54.6287 175.141 54.3567C174.989 54.0767 174.777 53.8567 174.505 53.6967C174.241 53.5367 173.941 53.4567 173.605 53.4567C173.269 53.4567 172.965 53.5367 172.693 53.6967C172.429 53.8567 172.217 54.0767 172.057 54.3567C171.905 54.6287 171.829 54.9367 171.829 55.2807C171.829 55.6247 171.905 55.9367 172.057 56.2167C172.217 56.4967 172.429 56.7167 172.693 56.8767C172.965 57.0367 173.269 57.1167 173.605 57.1167Z" fill="#65BC4B"/>
<path d="M226.405 17.3451C226.298 16.468 225.568 15.8102 224.666 15.8102H217.75V10.1528H214.958V15.8102H207.377C206.497 15.8102 205.745 16.468 205.638 17.3451L203.597 35.6768C203.597 35.8084 203.597 35.9618 203.597 36.0934L204.285 41.3342C204.392 42.2113 205.122 42.8472 206.003 42.8472H225.997C226.856 42.8472 227.608 42.2113 227.716 41.3342L228.403 36.0934C228.403 35.9618 228.403 35.8084 228.403 35.6768L226.363 17.3451H226.405ZM208.494 20.0642C208.537 19.5818 208.945 19.2528 209.418 19.2528H222.626C223.12 19.2528 223.506 19.6037 223.549 20.0642L225.117 34.0761C225.16 34.3392 225.074 34.6023 224.902 34.7997C224.73 34.997 224.473 35.1067 224.215 35.1067H207.871C207.614 35.1067 207.356 34.997 207.184 34.7997C207.012 34.6023 206.926 34.3392 206.948 34.0761L208.516 20.0642H208.494ZM210.642 38.7467H207.528C207.012 38.7467 206.604 38.3301 206.604 37.8257C206.604 37.3214 207.012 36.9047 207.528 36.9047H210.642C211.157 36.9047 211.565 37.3214 211.565 37.8257C211.565 38.3301 211.157 38.7467 210.642 38.7467ZM224.666 38.7467H221.552C221.036 38.7467 220.628 38.3301 220.628 37.8257C220.628 37.3214 221.058 36.9047 221.552 36.9047H224.666C225.181 36.9047 225.589 37.3214 225.589 37.8257C225.589 38.3301 225.181 38.7467 224.666 38.7467Z" fill="#65BC4B"/>
<path d="M193.633 58.8472V50.7592H194.761V58.8472H193.633ZM190.801 51.5512V50.5192H197.581V51.5512H190.801ZM199.681 55.2232V54.2752H201.937C202.425 54.2752 202.801 54.1512 203.065 53.9032C203.329 53.6552 203.461 53.3192 203.461 52.8952C203.461 52.4952 203.329 52.1632 203.065 51.8992C202.809 51.6352 202.437 51.5032 201.949 51.5032H199.681V50.5192H201.985C202.513 50.5192 202.973 50.6232 203.365 50.8312C203.757 51.0312 204.057 51.3072 204.265 51.6592C204.481 52.0112 204.589 52.4152 204.589 52.8712C204.589 53.3432 204.481 53.7552 204.265 54.1072C204.057 54.4592 203.757 54.7352 203.365 54.9352C202.973 55.1272 202.513 55.2232 201.985 55.2232H199.681ZM198.925 58.8472V50.5192H200.053V58.8472H198.925ZM203.725 58.8472L200.701 55.1152L201.769 54.7432L205.153 58.8472H203.725ZM205.438 58.8472L208.846 50.5192H209.662L213.058 58.8472H211.834L209.038 51.8032H209.458L206.638 58.8472H205.438ZM207.058 56.9632V55.9792H211.438V56.9632H207.058ZM214.312 58.8472V50.5192H215.104L215.44 51.8272V58.8472H214.312ZM220.072 58.8472L214.96 52.0192L215.104 50.5192L220.228 57.3352L220.072 58.8472ZM220.072 58.8472L219.736 57.6112V50.5192H220.864V58.8472H220.072ZM225.556 58.8472L222.22 50.5192H223.444L226.192 57.5632H225.748L228.52 50.5192H229.732L226.372 58.8472H225.556ZM231.093 58.8472V50.5192H232.221V58.8472H231.093ZM230.949 49.6672L230.457 49.1752L232.017 47.2432L232.869 48.0952L230.949 49.6672ZM233.575 58.8472L236.983 50.5192H237.799L241.195 58.8472H239.971L237.175 51.8032H237.595L234.775 58.8472H233.575ZM235.195 56.9632V55.9792H239.575V56.9632H235.195Z" fill="#65BC4B"/>
<path d="M286.557 10.9473H265.379C263.634 10.9473 262.212 12.3772 262.212 14.115V36.7511C262.212 38.401 263.483 39.7429 265.077 39.9189C265.077 39.9629 265.077 40.0069 265.077 40.0509C265.077 41.1728 265.982 42.0527 267.102 42.0527C268.223 42.0527 269.128 41.1508 269.128 40.0509C269.128 40.0069 269.128 39.9849 269.128 39.9409H282.873C282.873 39.9409 282.873 40.0069 282.873 40.0509C282.873 41.1728 283.777 42.0527 284.898 42.0527C286.018 42.0527 286.923 41.1508 286.923 40.0509C286.923 40.0069 286.923 39.9629 286.923 39.9189C288.517 39.7649 289.788 38.401 289.788 36.7511V14.115C289.788 12.3772 288.366 10.9473 286.621 10.9473M267.318 13.1691H285.113C285.673 13.1691 286.147 13.6311 286.147 14.203C286.147 14.775 285.695 15.2369 285.113 15.2369H267.275C266.693 15.2369 266.241 14.775 266.241 14.203C266.241 13.6311 266.693 13.1691 267.275 13.1691M266.585 37.1691C265.745 37.1691 265.077 36.4872 265.077 35.6732C265.077 34.8593 265.745 34.1554 266.585 34.1554C267.426 34.1554 268.093 34.8373 268.093 35.6732C268.093 36.5092 267.426 37.1691 266.585 37.1691ZM275.418 31.2736H267.102C266.004 31.2736 265.099 30.3717 265.099 29.2718V18.5587C265.099 17.4588 266.004 16.5348 267.102 16.5348H275.418V31.2736ZM285.393 37.1691C284.553 37.1691 283.885 36.4872 283.885 35.6732C283.885 34.8593 284.553 34.1554 285.393 34.1554C286.233 34.1554 286.901 34.8373 286.901 35.6732C286.901 36.5092 286.233 37.1691 285.393 37.1691ZM286.901 29.2498C286.901 30.3497 285.996 31.2516 284.898 31.2516H276.56V16.5128H284.898C285.996 16.5128 286.901 17.4148 286.901 18.5367V29.2498Z" fill="#65BC4B"/>
<path d="M266.625 58.0527V57.0687H269.145C269.625 57.0687 270.001 56.9287 270.273 56.6487C270.545 56.3607 270.681 56.0167 270.681 55.6167C270.681 55.3447 270.621 55.1007 270.501 54.8847C270.381 54.6607 270.205 54.4847 269.973 54.3567C269.749 54.2287 269.485 54.1647 269.181 54.1647H266.625V53.1807H269.013C269.413 53.1807 269.729 53.0767 269.961 52.8687C270.201 52.6527 270.321 52.3447 270.321 51.9447C270.321 51.5447 270.197 51.2407 269.949 51.0327C269.701 50.8167 269.373 50.7087 268.965 50.7087H266.625V49.7247H268.989C269.533 49.7247 269.985 49.8247 270.345 50.0247C270.713 50.2167 270.989 50.4727 271.173 50.7927C271.365 51.1127 271.461 51.4647 271.461 51.8487C271.461 52.2967 271.337 52.6887 271.089 53.0247C270.849 53.3607 270.493 53.6247 270.021 53.8167L270.117 53.4567C270.653 53.6487 271.069 53.9407 271.365 54.3327C271.669 54.7167 271.821 55.1727 271.821 55.7007C271.821 56.1407 271.713 56.5367 271.497 56.8887C271.281 57.2407 270.969 57.5247 270.561 57.7407C270.161 57.9487 269.669 58.0527 269.085 58.0527H266.625ZM265.869 58.0527V49.7247H266.997V58.0527H265.869ZM276.465 58.1727C275.849 58.1727 275.297 58.0367 274.809 57.7647C274.329 57.4847 273.949 57.1047 273.669 56.6247C273.389 56.1367 273.249 55.5847 273.249 54.9687V49.7247H274.377V54.9447C274.377 55.3847 274.469 55.7647 274.653 56.0847C274.837 56.4047 275.085 56.6527 275.397 56.8287C275.717 57.0047 276.073 57.0927 276.465 57.0927C276.873 57.0927 277.229 57.0047 277.533 56.8287C277.845 56.6527 278.089 56.4047 278.265 56.0847C278.449 55.7647 278.541 55.3887 278.541 54.9567V49.7247H279.681V54.9807C279.681 55.5967 279.541 56.1447 279.261 56.6247C278.981 57.1047 278.601 57.4847 278.121 57.7647C277.641 58.0367 277.089 58.1727 276.465 58.1727ZM283.759 58.1727C283.103 58.1727 282.543 58.0527 282.079 57.8127C281.615 57.5727 281.203 57.2247 280.843 56.7687L281.611 56.0007C281.875 56.3687 282.179 56.6487 282.523 56.8407C282.867 57.0247 283.291 57.1167 283.795 57.1167C284.291 57.1167 284.687 57.0087 284.983 56.7927C285.287 56.5767 285.439 56.2807 285.439 55.9047C285.439 55.5927 285.367 55.3407 285.223 55.1487C285.079 54.9567 284.883 54.8007 284.635 54.6807C284.395 54.5527 284.131 54.4407 283.843 54.3447C283.555 54.2407 283.267 54.1327 282.979 54.0207C282.691 53.9007 282.427 53.7567 282.187 53.5887C281.947 53.4127 281.751 53.1847 281.599 52.9047C281.455 52.6247 281.383 52.2727 281.383 51.8487C281.383 51.3767 281.495 50.9767 281.719 50.6487C281.951 50.3127 282.263 50.0567 282.655 49.8807C283.055 49.6967 283.503 49.6047 283.999 49.6047C284.543 49.6047 285.031 49.7127 285.463 49.9287C285.895 50.1367 286.247 50.4127 286.519 50.7567L285.751 51.5247C285.503 51.2367 285.235 51.0207 284.947 50.8767C284.667 50.7327 284.343 50.6607 283.975 50.6607C283.527 50.6607 283.171 50.7607 282.907 50.9607C282.643 51.1527 282.511 51.4247 282.511 51.7767C282.511 52.0567 282.583 52.2847 282.727 52.4607C282.879 52.6287 283.075 52.7727 283.315 52.8927C283.555 53.0127 283.819 53.1247 284.107 53.2287C284.403 53.3247 284.695 53.4327 284.983 53.5527C285.271 53.6727 285.535 53.8247 285.775 54.0087C286.015 54.1927 286.207 54.4327 286.351 54.7287C286.503 55.0167 286.579 55.3807 286.579 55.8207C286.579 56.5567 286.323 57.1327 285.811 57.5487C285.307 57.9647 284.623 58.1727 283.759 58.1727Z" fill="#65BC4B"/>
<path d="M347.845 25.0561C347.845 25.0561 347.826 24.9332 347.787 24.8718L343.829 11.6004C343.58 10.7607 342.739 10.3102 341.955 10.5764C341.171 10.8427 340.731 11.7233 340.98 12.5425L341.458 14.1605H330.5L330.979 12.5425C331.227 11.7233 330.787 10.8427 330.003 10.5764C329.219 10.3102 328.378 10.7812 328.129 11.6004L324.171 24.8718C324.171 24.8718 324.133 24.9947 324.133 25.0561C324.094 25.2609 323.769 27.1451 324.305 29.1727C325.07 32.2243 327.67 41.0309 327.785 41.3996C328.053 42.2393 328.875 42.6898 329.659 42.4236C330.29 42.2188 330.692 41.6044 330.711 40.949H341.305C341.305 41.6044 341.706 42.2188 342.337 42.4236C343.122 42.6898 343.963 42.2188 344.212 41.3996C344.326 41.0309 346.927 32.2243 347.711 29.1727C348.227 27.1451 347.902 25.2609 347.864 25.0561M344.823 28.374C344.613 29.2137 344.25 30.5244 343.848 31.9581H328.148C327.747 30.5039 327.383 29.2137 327.173 28.374C326.886 27.1861 327.02 25.9982 327.058 25.7115L329.659 16.9663H342.299L344.919 25.691C344.957 25.9777 345.11 27.1861 344.804 28.374" fill="#65BC4B"/>
<path d="M322.02 58.62C321.42 58.62 320.864 58.512 320.352 58.296C319.84 58.072 319.392 57.764 319.008 57.372C318.632 56.98 318.34 56.524 318.132 56.004C317.924 55.484 317.82 54.928 317.82 54.336C317.82 53.736 317.924 53.176 318.132 52.656C318.34 52.136 318.632 51.684 319.008 51.3C319.392 50.908 319.836 50.604 320.34 50.388C320.852 50.164 321.408 50.052 322.008 50.052C322.664 50.052 323.24 50.164 323.736 50.388C324.232 50.612 324.672 50.916 325.056 51.3L324.276 52.08C324.012 51.784 323.688 51.552 323.304 51.384C322.928 51.216 322.496 51.132 322.008 51.132C321.568 51.132 321.164 51.212 320.796 51.372C320.428 51.524 320.108 51.744 319.836 52.032C319.564 52.32 319.352 52.66 319.2 53.052C319.056 53.444 318.984 53.872 318.984 54.336C318.984 54.8 319.056 55.228 319.2 55.62C319.352 56.012 319.564 56.352 319.836 56.64C320.108 56.928 320.428 57.152 320.796 57.312C321.164 57.464 321.568 57.54 322.008 57.54C322.528 57.54 322.98 57.456 323.364 57.288C323.748 57.112 324.072 56.876 324.336 56.58L325.116 57.348C324.732 57.748 324.28 58.06 323.76 58.284C323.248 58.508 322.668 58.62 322.02 58.62ZM325.679 58.5L329.087 50.172H329.903L333.299 58.5H332.075L329.279 51.456H329.699L326.879 58.5H325.679ZM327.299 56.616V55.632H331.679V56.616H327.299ZM335.308 58.5V57.516H337.828C338.308 57.516 338.684 57.376 338.956 57.096C339.228 56.808 339.364 56.464 339.364 56.064C339.364 55.792 339.304 55.548 339.184 55.332C339.064 55.108 338.888 54.932 338.656 54.804C338.432 54.676 338.168 54.612 337.864 54.612H335.308V53.628H337.696C338.096 53.628 338.412 53.524 338.644 53.316C338.884 53.1 339.004 52.792 339.004 52.392C339.004 51.992 338.88 51.688 338.632 51.48C338.384 51.264 338.056 51.156 337.648 51.156H335.308V50.172H337.672C338.216 50.172 338.668 50.272 339.028 50.472C339.396 50.664 339.672 50.92 339.856 51.24C340.048 51.56 340.144 51.912 340.144 52.296C340.144 52.744 340.02 53.136 339.772 53.472C339.532 53.808 339.176 54.072 338.704 54.264L338.8 53.904C339.336 54.096 339.752 54.388 340.048 54.78C340.352 55.164 340.504 55.62 340.504 56.148C340.504 56.588 340.396 56.984 340.18 57.336C339.964 57.688 339.652 57.972 339.244 58.188C338.844 58.396 338.352 58.5 337.768 58.5H335.308ZM334.552 58.5V50.172H335.68V58.5H334.552ZM342.029 58.5V50.172H343.157V58.5H342.029ZM342.797 58.5V57.468H347.261V58.5H342.797ZM348.65 58.5V50.172H349.778V58.5H348.65ZM349.418 58.5V57.468H354.194V58.5H349.418ZM349.418 54.732V53.748H353.798V54.732H349.418ZM349.418 51.204V50.172H354.134V51.204H349.418Z" fill="#65BC4B"/>
</svg>
