<svg width="277" height="72" viewBox="0 0 277 72" fill="none" xmlns="http://www.w3.org/2000/svg">
<rect x="0.5" width="276" height="72" rx="36" fill="white"/>
<rect x="12.5" y="12" width="48" height="48" rx="24" fill="#111716"/>
<path d="M35.9843 43.72C35.011 43.72 34.0976 43.5533 33.2443 43.22C32.4043 42.8733 31.7043 42.38 31.1443 41.74L33.1843 39.72C33.4376 40.0933 33.8043 40.4 34.2843 40.64C34.7776 40.8667 35.311 40.98 35.8843 40.98C36.391 40.98 36.831 40.8933 37.2043 40.72C37.5776 40.5333 37.871 40.2733 38.0843 39.94C38.2976 39.5933 38.4043 39.1933 38.4043 38.74C38.4043 38.2733 38.2976 37.8733 38.0843 37.54C37.871 37.2067 37.571 36.9533 37.1843 36.78C36.811 36.5933 36.3843 36.5 35.9043 36.5C35.4243 36.5 34.9843 36.5667 34.5843 36.7C34.1843 36.82 33.8176 37.0067 33.4843 37.26L33.7443 35.26C34.051 35.02 34.3443 34.8267 34.6243 34.68C34.9043 34.52 35.211 34.4 35.5443 34.32C35.8776 34.24 36.271 34.2 36.7243 34.2C37.7643 34.2 38.6376 34.4133 39.3443 34.84C40.0643 35.2667 40.6043 35.8333 40.9643 36.54C41.3376 37.2467 41.5243 38.0267 41.5243 38.88C41.5243 39.8133 41.291 40.6467 40.8243 41.38C40.371 42.1133 39.731 42.6867 38.9043 43.1C38.0776 43.5133 37.1043 43.72 35.9843 43.72ZM33.4843 37.26L32.1243 36L32.8043 29.38H35.6443L34.9043 35.94L33.4843 37.26ZM33.2243 32.04L32.8043 29.38H40.7443V32.04H33.2243Z" fill="white"/>
<path opacity="0.6" d="M107.057 10.9473H85.8789C84.1338 10.9473 82.7119 12.3772 82.7119 14.115V36.7511C82.7119 38.401 83.983 39.7429 85.5773 39.9189C85.5773 39.9629 85.5773 40.0069 85.5773 40.0509C85.5773 41.1728 86.4821 42.0527 87.6024 42.0527C88.7227 42.0527 89.6275 41.1508 89.6275 40.0509C89.6275 40.0069 89.6275 39.9849 89.6275 39.9409H103.373C103.373 39.9409 103.373 40.0069 103.373 40.0509C103.373 41.1728 104.277 42.0527 105.398 42.0527C106.518 42.0527 107.423 41.1508 107.423 40.0509C107.423 40.0069 107.423 39.9629 107.423 39.9189C109.017 39.7649 110.288 38.401 110.288 36.7511V14.115C110.288 12.3772 108.866 10.9473 107.121 10.9473M87.8178 13.1691H105.613C106.173 13.1691 106.647 13.6311 106.647 14.203C106.647 14.775 106.195 15.2369 105.613 15.2369H87.7748C87.1931 15.2369 86.7406 14.775 86.7406 14.203C86.7406 13.6311 87.1931 13.1691 87.7748 13.1691M87.0853 37.1691C86.2451 37.1691 85.5773 36.4872 85.5773 35.6732C85.5773 34.8593 86.2451 34.1554 87.0853 34.1554C87.9256 34.1554 88.5934 34.8373 88.5934 35.6732C88.5934 36.5092 87.9256 37.1691 87.0853 37.1691ZM95.9184 31.2736H87.6024C86.5037 31.2736 85.5988 30.3717 85.5988 29.2718V18.5587C85.5988 17.4588 86.5037 16.5348 87.6024 16.5348H95.9184V31.2736ZM105.893 37.1691C105.053 37.1691 104.385 36.4872 104.385 35.6732C104.385 34.8593 105.053 34.1554 105.893 34.1554C106.733 34.1554 107.401 34.8373 107.401 35.6732C107.401 36.5092 106.733 37.1691 105.893 37.1691ZM107.401 29.2498C107.401 30.3497 106.496 31.2516 105.398 31.2516H97.0602V16.5128H105.398C106.496 16.5128 107.401 17.4148 107.401 18.5367V29.2498Z" fill="#65BC4B"/>
<path d="M80.2699 58.1727C79.6699 58.1727 79.1139 58.0647 78.6019 57.8487C78.0899 57.6247 77.6419 57.3167 77.2579 56.9247C76.8819 56.5327 76.5899 56.0767 76.3819 55.5567C76.1739 55.0367 76.0699 54.4807 76.0699 53.8887C76.0699 53.2887 76.1739 52.7287 76.3819 52.2087C76.5899 51.6887 76.8819 51.2367 77.2579 50.8527C77.6419 50.4607 78.0859 50.1567 78.5899 49.9407C79.1019 49.7167 79.6579 49.6047 80.2579 49.6047C80.9139 49.6047 81.4899 49.7167 81.9859 49.9407C82.4819 50.1647 82.9219 50.4687 83.3059 50.8527L82.5259 51.6327C82.2619 51.3367 81.9379 51.1047 81.5539 50.9367C81.1779 50.7687 80.7459 50.6847 80.2579 50.6847C79.8179 50.6847 79.4139 50.7647 79.0459 50.9247C78.6779 51.0767 78.3579 51.2967 78.0859 51.5847C77.8139 51.8727 77.6019 52.2127 77.4499 52.6047C77.3059 52.9967 77.2339 53.4247 77.2339 53.8887C77.2339 54.3527 77.3059 54.7807 77.4499 55.1727C77.6019 55.5647 77.8139 55.9047 78.0859 56.1927C78.3579 56.4807 78.6779 56.7047 79.0459 56.8647C79.4139 57.0167 79.8179 57.0927 80.2579 57.0927C80.7779 57.0927 81.2299 57.0087 81.6139 56.8407C81.9979 56.6647 82.3219 56.4287 82.5859 56.1327L83.3659 56.9007C82.9819 57.3007 82.5299 57.6127 82.0099 57.8367C81.4979 58.0607 80.9179 58.1727 80.2699 58.1727ZM85.5076 58.1727C85.2836 58.1727 85.0956 58.0967 84.9436 57.9447C84.7996 57.7847 84.7276 57.5967 84.7276 57.3807C84.7276 57.1567 84.7996 56.9727 84.9436 56.8287C85.0956 56.6767 85.2836 56.6007 85.5076 56.6007C85.7316 56.6007 85.9156 56.6767 86.0596 56.8287C86.2116 56.9727 86.2876 57.1567 86.2876 57.3807C86.2876 57.5967 86.2116 57.7847 86.0596 57.9447C85.9156 58.0967 85.7316 58.1727 85.5076 58.1727ZM92.7081 58.1727C92.1641 58.1727 91.6681 58.0727 91.2201 57.8727C90.7801 57.6647 90.4081 57.3647 90.1041 56.9727L90.8721 56.2047C91.0561 56.4847 91.3081 56.7087 91.6281 56.8767C91.9481 57.0367 92.3041 57.1167 92.6961 57.1167C93.0641 57.1167 93.3801 57.0487 93.6441 56.9127C93.9161 56.7687 94.1281 56.5687 94.2801 56.3127C94.4401 56.0567 94.5201 55.7607 94.5201 55.4247C94.5201 55.0807 94.4401 54.7847 94.2801 54.5367C94.1281 54.2807 93.9121 54.0847 93.6321 53.9487C93.3521 53.8127 93.0201 53.7447 92.6361 53.7447C92.4921 53.7447 92.3481 53.7567 92.2041 53.7807C92.0601 53.7967 91.9201 53.8247 91.7841 53.8647L92.2641 53.2167C92.4161 53.1447 92.5801 53.0887 92.7561 53.0487C92.9321 53.0087 93.1081 52.9887 93.2841 52.9887C93.7321 52.9887 94.1321 53.0927 94.4841 53.3007C94.8441 53.5087 95.1281 53.8007 95.3361 54.1767C95.5521 54.5527 95.6601 54.9887 95.6601 55.4847C95.6601 56.0127 95.5321 56.4807 95.2761 56.8887C95.0281 57.2887 94.6841 57.6047 94.2441 57.8367C93.8041 58.0607 93.2921 58.1727 92.7081 58.1727ZM91.7841 53.8647V53.1807L94.2201 50.4087L95.5641 50.3967L93.0561 53.2407L91.7841 53.8647ZM90.5001 50.7327V49.7247H95.5641V50.3967L94.5801 50.7327H90.5001ZM103.473 58.1727C102.881 58.1727 102.329 58.0647 101.817 57.8487C101.305 57.6247 100.857 57.3167 100.473 56.9247C100.089 56.5247 99.7893 56.0647 99.5733 55.5447C99.3653 55.0247 99.2613 54.4687 99.2613 53.8767C99.2613 53.2767 99.3653 52.7207 99.5733 52.2087C99.7893 51.6887 100.085 51.2327 100.461 50.8407C100.845 50.4487 101.289 50.1447 101.793 49.9287C102.305 49.7127 102.857 49.6047 103.449 49.6047C104.041 49.6047 104.589 49.7127 105.093 49.9287C105.605 50.1447 106.053 50.4487 106.437 50.8407C106.821 51.2327 107.121 51.6887 107.337 52.2087C107.553 52.7287 107.661 53.2887 107.661 53.8887C107.661 54.4807 107.553 55.0367 107.337 55.5567C107.121 56.0767 106.821 56.5327 106.437 56.9247C106.061 57.3167 105.617 57.6247 105.105 57.8487C104.601 58.0647 104.057 58.1727 103.473 58.1727ZM103.449 57.0927C104.049 57.0927 104.573 56.9567 105.021 56.6847C105.477 56.4047 105.837 56.0247 106.101 55.5447C106.365 55.0567 106.497 54.5007 106.497 53.8767C106.497 53.4127 106.421 52.9887 106.269 52.6047C106.117 52.2127 105.905 51.8727 105.633 51.5847C105.361 51.2967 105.041 51.0767 104.673 50.9247C104.305 50.7647 103.897 50.6847 103.449 50.6847C102.857 50.6847 102.333 50.8207 101.877 51.0927C101.429 51.3647 101.073 51.7407 100.809 52.2207C100.553 52.7007 100.425 53.2527 100.425 53.8767C100.425 54.3407 100.497 54.7727 100.641 55.1727C100.793 55.5647 101.001 55.9047 101.265 56.1927C101.537 56.4727 101.857 56.6927 102.225 56.8527C102.601 57.0127 103.009 57.0927 103.449 57.0927ZM102.741 48.8727L102.249 48.3807L103.809 46.4487L104.661 47.3007L102.741 48.8727ZM114.105 58.1727C113.553 58.1727 113.057 58.0447 112.617 57.7887C112.185 57.5327 111.841 57.1887 111.585 56.7567C111.329 56.3247 111.201 55.8447 111.201 55.3167C111.201 54.5807 111.457 53.8487 111.969 53.1207L114.417 49.7247H115.725L113.217 53.1447L112.809 53.3607C112.905 53.1927 113.021 53.0527 113.157 52.9407C113.293 52.8207 113.461 52.7287 113.661 52.6647C113.861 52.6007 114.097 52.5687 114.369 52.5687C114.857 52.5687 115.297 52.6847 115.689 52.9167C116.089 53.1487 116.409 53.4687 116.649 53.8767C116.897 54.2767 117.021 54.7447 117.021 55.2807C117.021 55.8087 116.889 56.2927 116.625 56.7327C116.369 57.1727 116.017 57.5247 115.569 57.7887C115.129 58.0447 114.641 58.1727 114.105 58.1727ZM114.105 57.1167C114.441 57.1167 114.741 57.0367 115.005 56.8767C115.277 56.7087 115.489 56.4887 115.641 56.2167C115.801 55.9367 115.881 55.6247 115.881 55.2807C115.881 54.9367 115.801 54.6287 115.641 54.3567C115.489 54.0767 115.277 53.8567 115.005 53.6967C114.741 53.5367 114.441 53.4567 114.105 53.4567C113.769 53.4567 113.465 53.5367 113.193 53.6967C112.929 53.8567 112.717 54.0767 112.557 54.3567C112.405 54.6287 112.329 54.9367 112.329 55.2807C112.329 55.6247 112.405 55.9367 112.557 56.2167C112.717 56.4967 112.929 56.7167 113.193 56.8767C113.465 57.0367 113.769 57.1167 114.105 57.1167Z" fill="#65BC4B"/>
<path d="M133.845 38.08V35.54H143.145V38.08H133.845ZM137.205 31.92H139.805V41.66H137.205V31.92Z" fill="#65BC4B"/>
<path d="M192.403 12.7772C192.286 11.7722 191.442 11.0065 190.41 11.0065H170.596C169.588 11.0065 168.72 11.7722 168.603 12.7772L166.258 33.7622C166.258 33.9297 166.258 34.0733 166.258 34.2408L167.055 40.2468C167.196 41.2278 168.04 41.9935 169.025 41.9935H191.958C192.943 41.9935 193.81 41.2517 193.928 40.2468L194.725 34.2408C194.748 34.0733 194.748 33.9297 194.725 33.7622L192.38 12.7772H192.403ZM170.08 31.9197L171.862 15.8878C171.932 15.3375 172.378 14.9546 172.917 14.9546H188.065C188.605 14.9546 189.074 15.3614 189.121 15.8878L190.926 31.9197C190.95 32.2069 190.856 32.5179 190.668 32.7572C190.457 32.9965 190.176 33.1161 189.871 33.1161H171.135C170.83 33.1161 170.549 32.9965 170.338 32.7572C170.15 32.5419 170.033 32.2308 170.08 31.9197ZM174.348 37.2797H170.783C170.197 37.2797 169.728 36.8011 169.728 36.2029C169.728 35.6047 170.197 35.15 170.783 35.15H174.348C174.934 35.15 175.403 35.6286 175.403 36.2029C175.403 36.7772 174.934 37.2797 174.348 37.2797ZM190.434 37.2797H186.869C186.283 37.2797 185.791 36.8011 185.791 36.2029C185.791 35.6047 186.26 35.15 186.869 35.15H190.434C191.02 35.15 191.489 35.6286 191.489 36.2029C191.489 36.7772 191.02 37.2797 190.434 37.2797Z" fill="#65BC4B"/>
<path d="M160.923 57.9935V49.6655H161.715L165.243 55.4615H164.703L168.231 49.6655H169.023V57.9935H167.895V51.6455L168.159 51.7175L165.375 56.2895H164.583L161.799 51.7175L162.051 51.6455V57.9935H160.923ZM170.99 57.9935V49.6655H172.118V57.9935H170.99ZM171.758 57.9935V56.9615H176.534V57.9935H171.758ZM171.758 54.2255V53.2415H176.138V54.2255H171.758ZM171.758 50.6975V49.6655H176.474V50.6975H171.758ZM179.96 57.9935V49.9055H181.088V57.9935H179.96ZM177.128 50.6975V49.6655H183.908V50.6975H177.128ZM186.008 54.3695V53.4215H188.264C188.752 53.4215 189.128 53.2975 189.392 53.0495C189.656 52.8015 189.788 52.4655 189.788 52.0415C189.788 51.6415 189.656 51.3095 189.392 51.0455C189.136 50.7815 188.764 50.6495 188.276 50.6495H186.008V49.6655H188.312C188.84 49.6655 189.3 49.7695 189.692 49.9775C190.084 50.1775 190.384 50.4535 190.592 50.8055C190.808 51.1575 190.916 51.5615 190.916 52.0175C190.916 52.4895 190.808 52.9015 190.592 53.2535C190.384 53.6055 190.084 53.8815 189.692 54.0815C189.3 54.2735 188.84 54.3695 188.312 54.3695H186.008ZM185.252 57.9935V49.6655H186.38V57.9935H185.252ZM190.052 57.9935L187.028 54.2615L188.096 53.8895L191.48 57.9935H190.052ZM196.309 58.1135C195.717 58.1135 195.165 58.0055 194.653 57.7895C194.141 57.5655 193.693 57.2575 193.309 56.8655C192.925 56.4655 192.625 56.0055 192.409 55.4855C192.201 54.9655 192.097 54.4095 192.097 53.8175C192.097 53.2175 192.201 52.6615 192.409 52.1495C192.625 51.6295 192.921 51.1735 193.297 50.7815C193.681 50.3895 194.125 50.0855 194.629 49.8695C195.141 49.6535 195.693 49.5455 196.285 49.5455C196.877 49.5455 197.425 49.6535 197.929 49.8695C198.441 50.0855 198.889 50.3895 199.273 50.7815C199.657 51.1735 199.957 51.6295 200.173 52.1495C200.389 52.6695 200.497 53.2295 200.497 53.8295C200.497 54.4215 200.389 54.9775 200.173 55.4975C199.957 56.0175 199.657 56.4735 199.273 56.8655C198.897 57.2575 198.453 57.5655 197.941 57.7895C197.437 58.0055 196.893 58.1135 196.309 58.1135ZM196.285 57.0335C196.885 57.0335 197.409 56.8975 197.857 56.6255C198.313 56.3455 198.673 55.9655 198.937 55.4855C199.201 54.9975 199.333 54.4415 199.333 53.8175C199.333 53.3535 199.257 52.9295 199.105 52.5455C198.953 52.1535 198.741 51.8135 198.469 51.5255C198.197 51.2375 197.877 51.0175 197.509 50.8655C197.141 50.7055 196.733 50.6255 196.285 50.6255C195.693 50.6255 195.169 50.7615 194.713 51.0335C194.265 51.3055 193.909 51.6815 193.645 52.1615C193.389 52.6415 193.261 53.1935 193.261 53.8175C193.261 54.2815 193.333 54.7135 193.477 55.1135C193.629 55.5055 193.837 55.8455 194.101 56.1335C194.373 56.4135 194.693 56.6335 195.061 56.7935C195.437 56.9535 195.845 57.0335 196.285 57.0335Z" fill="#65BC4B"/>
<path d="M252.345 25.0561C252.345 25.0561 252.326 24.9332 252.287 24.8718L248.329 11.6004C248.08 10.7607 247.239 10.3102 246.455 10.5764C245.671 10.8427 245.231 11.7233 245.48 12.5425L245.958 14.1605H235L235.479 12.5425C235.727 11.7233 235.287 10.8427 234.503 10.5764C233.719 10.3102 232.878 10.7812 232.629 11.6004L228.671 24.8718C228.671 24.8718 228.633 24.9947 228.633 25.0561C228.594 25.2609 228.269 27.1451 228.805 29.1727C229.57 32.2243 232.17 41.0309 232.285 41.3996C232.553 42.2393 233.375 42.6898 234.159 42.4236C234.79 42.2188 235.192 41.6044 235.211 40.949H245.805C245.805 41.6044 246.206 42.2188 246.837 42.4236C247.622 42.6898 248.463 42.2188 248.712 41.3996C248.826 41.0309 251.427 32.2243 252.211 29.1727C252.727 27.1451 252.402 25.2609 252.364 25.0561M249.323 28.374C249.113 29.2137 248.75 30.5244 248.348 31.9581H232.648C232.247 30.5039 231.883 29.2137 231.673 28.374C231.386 27.1861 231.52 25.9982 231.558 25.7115L234.159 16.9663H246.799L249.419 25.691C249.457 25.9777 249.61 27.1861 249.304 28.374" fill="#65BC4B"/>
<path d="M226.52 58.62C225.92 58.62 225.364 58.512 224.852 58.296C224.34 58.072 223.892 57.764 223.508 57.372C223.132 56.98 222.84 56.524 222.632 56.004C222.424 55.484 222.32 54.928 222.32 54.336C222.32 53.736 222.424 53.176 222.632 52.656C222.84 52.136 223.132 51.684 223.508 51.3C223.892 50.908 224.336 50.604 224.84 50.388C225.352 50.164 225.908 50.052 226.508 50.052C227.164 50.052 227.74 50.164 228.236 50.388C228.732 50.612 229.172 50.916 229.556 51.3L228.776 52.08C228.512 51.784 228.188 51.552 227.804 51.384C227.428 51.216 226.996 51.132 226.508 51.132C226.068 51.132 225.664 51.212 225.296 51.372C224.928 51.524 224.608 51.744 224.336 52.032C224.064 52.32 223.852 52.66 223.7 53.052C223.556 53.444 223.484 53.872 223.484 54.336C223.484 54.8 223.556 55.228 223.7 55.62C223.852 56.012 224.064 56.352 224.336 56.64C224.608 56.928 224.928 57.152 225.296 57.312C225.664 57.464 226.068 57.54 226.508 57.54C227.028 57.54 227.48 57.456 227.864 57.288C228.248 57.112 228.572 56.876 228.836 56.58L229.616 57.348C229.232 57.748 228.78 58.06 228.26 58.284C227.748 58.508 227.168 58.62 226.52 58.62ZM230.179 58.5L233.587 50.172H234.403L237.799 58.5H236.575L233.779 51.456H234.199L231.379 58.5H230.179ZM231.799 56.616V55.632H236.179V56.616H231.799ZM239.808 58.5V57.516H242.328C242.808 57.516 243.184 57.376 243.456 57.096C243.728 56.808 243.864 56.464 243.864 56.064C243.864 55.792 243.804 55.548 243.684 55.332C243.564 55.108 243.388 54.932 243.156 54.804C242.932 54.676 242.668 54.612 242.364 54.612H239.808V53.628H242.196C242.596 53.628 242.912 53.524 243.144 53.316C243.384 53.1 243.504 52.792 243.504 52.392C243.504 51.992 243.38 51.688 243.132 51.48C242.884 51.264 242.556 51.156 242.148 51.156H239.808V50.172H242.172C242.716 50.172 243.168 50.272 243.528 50.472C243.896 50.664 244.172 50.92 244.356 51.24C244.548 51.56 244.644 51.912 244.644 52.296C244.644 52.744 244.52 53.136 244.272 53.472C244.032 53.808 243.676 54.072 243.204 54.264L243.3 53.904C243.836 54.096 244.252 54.388 244.548 54.78C244.852 55.164 245.004 55.62 245.004 56.148C245.004 56.588 244.896 56.984 244.68 57.336C244.464 57.688 244.152 57.972 243.744 58.188C243.344 58.396 242.852 58.5 242.268 58.5H239.808ZM239.052 58.5V50.172H240.18V58.5H239.052ZM246.529 58.5V50.172H247.657V58.5H246.529ZM247.297 58.5V57.468H251.761V58.5H247.297ZM253.15 58.5V50.172H254.278V58.5H253.15ZM253.918 58.5V57.468H258.694V58.5H253.918ZM253.918 54.732V53.748H258.298V54.732H253.918ZM253.918 51.204V50.172H258.634V51.204H253.918Z" fill="#65BC4B"/>
</svg>
