<svg width="336" height="72" viewBox="0 0 336 72" fill="none" xmlns="http://www.w3.org/2000/svg">
<rect width="336" height="72" rx="36" fill="white"/>
<rect x="12" y="12" width="48" height="48" rx="24" fill="#111716"/>
<path d="M30.8355 41.74L36.2555 36.14C36.5888 35.8067 36.8555 35.5 37.0555 35.22C37.2555 34.94 37.4021 34.68 37.4955 34.44C37.5888 34.1867 37.6355 33.9333 37.6355 33.68C37.6355 33.1333 37.4555 32.7067 37.0955 32.4C36.7488 32.08 36.2888 31.92 35.7155 31.92C35.1555 31.92 34.6488 32.0733 34.1955 32.38C33.7555 32.6733 33.3288 33.16 32.9155 33.84L30.8155 32.02C31.3755 31.0733 32.0888 30.36 32.9555 29.88C33.8221 29.4 34.8155 29.16 35.9355 29.16C36.9088 29.16 37.7488 29.34 38.4555 29.7C39.1755 30.06 39.7288 30.5733 40.1155 31.24C40.5155 31.9067 40.7155 32.6867 40.7155 33.58C40.7155 34.14 40.6421 34.66 40.4955 35.14C40.3488 35.6067 40.1088 36.0733 39.7755 36.54C39.4555 36.9933 39.0221 37.4933 38.4755 38.04L34.7155 41.78L30.8355 41.74ZM30.8355 43.5V41.74L33.4955 40.82H40.9955V43.5H30.8355Z" fill="white"/>
<path d="M106.405 17.3451C106.298 16.468 105.568 15.8102 104.666 15.8102H97.7504V10.1528H94.9585V15.8102H87.3773C86.4967 15.8102 85.7451 16.468 85.6377 17.3451L83.5974 35.6768C83.5974 35.8084 83.5974 35.9618 83.5974 36.0934L84.2847 41.3342C84.392 42.2113 85.1222 42.8472 86.0028 42.8472H105.997C106.856 42.8472 107.608 42.2113 107.716 41.3342L108.403 36.0934C108.403 35.9618 108.403 35.8084 108.403 35.6768L106.363 17.3451H106.405ZM88.4941 20.0642C88.537 19.5818 88.9451 19.2528 89.4175 19.2528H102.626C103.12 19.2528 103.506 19.6037 103.549 20.0642L105.117 34.0761C105.16 34.3392 105.074 34.6023 104.902 34.7997C104.73 34.997 104.473 35.1067 104.215 35.1067H87.8712C87.6135 35.1067 87.3558 34.997 87.184 34.7997C87.0122 34.6023 86.9263 34.3392 86.9477 34.0761L88.5155 20.0642H88.4941ZM90.6417 38.7467H87.5276C87.0122 38.7467 86.6041 38.3301 86.6041 37.8257C86.6041 37.3214 87.0122 36.9047 87.5276 36.9047H90.6417C91.1571 36.9047 91.5652 37.3214 91.5652 37.8257C91.5652 38.3301 91.1571 38.7467 90.6417 38.7467ZM104.666 38.7467H101.552C101.036 38.7467 100.628 38.3301 100.628 37.8257C100.628 37.3214 101.058 36.9047 101.552 36.9047H104.666C105.181 36.9047 105.589 37.3214 105.589 37.8257C105.589 38.3301 105.181 38.7467 104.666 38.7467Z" fill="#65BC4B"/>
<path d="M73.6334 58.8472V50.7592H74.7614V58.8472H73.6334ZM70.8014 51.5512V50.5192H77.5814V51.5512H70.8014ZM79.6814 55.2232V54.2752H81.9374C82.4254 54.2752 82.8014 54.1512 83.0654 53.9032C83.3294 53.6552 83.4614 53.3192 83.4614 52.8952C83.4614 52.4952 83.3294 52.1632 83.0654 51.8992C82.8094 51.6352 82.4374 51.5032 81.9494 51.5032H79.6814V50.5192H81.9854C82.5134 50.5192 82.9734 50.6232 83.3654 50.8312C83.7574 51.0312 84.0574 51.3072 84.2654 51.6592C84.4814 52.0112 84.5894 52.4152 84.5894 52.8712C84.5894 53.3432 84.4814 53.7552 84.2654 54.1072C84.0574 54.4592 83.7574 54.7352 83.3654 54.9352C82.9734 55.1272 82.5134 55.2232 81.9854 55.2232H79.6814ZM78.9254 58.8472V50.5192H80.0534V58.8472H78.9254ZM83.7254 58.8472L80.7014 55.1152L81.7694 54.7432L85.1534 58.8472H83.7254ZM85.4384 58.8472L88.8464 50.5192H89.6624L93.0584 58.8472H91.8344L89.0384 51.8032H89.4584L86.6384 58.8472H85.4384ZM87.0584 56.9632V55.9792H91.4384V56.9632H87.0584ZM94.3121 58.8472V50.5192H95.1041L95.4401 51.8272V58.8472H94.3121ZM100.072 58.8472L94.9601 52.0192L95.1041 50.5192L100.228 57.3352L100.072 58.8472ZM100.072 58.8472L99.7361 57.6112V50.5192H100.864V58.8472H100.072ZM105.556 58.8472L102.22 50.5192H103.444L106.192 57.5632H105.748L108.52 50.5192H109.732L106.372 58.8472H105.556ZM111.093 58.8472V50.5192H112.221V58.8472H111.093ZM110.949 49.6672L110.457 49.1752L112.017 47.2432L112.869 48.0952L110.949 49.6672ZM113.575 58.8472L116.983 50.5192H117.799L121.195 58.8472H119.971L117.175 51.8032H117.595L114.775 58.8472H113.575ZM115.195 56.9632V55.9792H119.575V56.9632H115.195Z" fill="#65BC4B"/>
<path d="M166.557 10.9473H145.379C143.634 10.9473 142.212 12.3772 142.212 14.115V36.7511C142.212 38.401 143.483 39.7429 145.077 39.9189C145.077 39.9629 145.077 40.0069 145.077 40.0509C145.077 41.1728 145.982 42.0527 147.102 42.0527C148.223 42.0527 149.128 41.1508 149.128 40.0509C149.128 40.0069 149.128 39.9849 149.128 39.9409H162.873C162.873 39.9409 162.873 40.0069 162.873 40.0509C162.873 41.1728 163.777 42.0527 164.898 42.0527C166.018 42.0527 166.923 41.1508 166.923 40.0509C166.923 40.0069 166.923 39.9629 166.923 39.9189C168.517 39.7649 169.788 38.401 169.788 36.7511V14.115C169.788 12.3772 168.366 10.9473 166.621 10.9473M147.318 13.1691H165.113C165.673 13.1691 166.147 13.6311 166.147 14.203C166.147 14.775 165.695 15.2369 165.113 15.2369H147.275C146.693 15.2369 146.241 14.775 146.241 14.203C146.241 13.6311 146.693 13.1691 147.275 13.1691M146.585 37.1691C145.745 37.1691 145.077 36.4872 145.077 35.6732C145.077 34.8593 145.745 34.1554 146.585 34.1554C147.426 34.1554 148.093 34.8373 148.093 35.6732C148.093 36.5092 147.426 37.1691 146.585 37.1691ZM155.418 31.2736H147.102C146.004 31.2736 145.099 30.3717 145.099 29.2718V18.5587C145.099 17.4588 146.004 16.5348 147.102 16.5348H155.418V31.2736ZM165.393 37.1691C164.553 37.1691 163.885 36.4872 163.885 35.6732C163.885 34.8593 164.553 34.1554 165.393 34.1554C166.233 34.1554 166.901 34.8373 166.901 35.6732C166.901 36.5092 166.233 37.1691 165.393 37.1691ZM166.901 29.2498C166.901 30.3497 165.996 31.2516 164.898 31.2516H156.56V16.5128H164.898C165.996 16.5128 166.901 17.4148 166.901 18.5367V29.2498Z" fill="#65BC4B"/>
<path d="M146.625 58.0527V57.0687H149.145C149.625 57.0687 150.001 56.9287 150.273 56.6487C150.545 56.3607 150.681 56.0167 150.681 55.6167C150.681 55.3447 150.621 55.1007 150.501 54.8847C150.381 54.6607 150.205 54.4847 149.973 54.3567C149.749 54.2287 149.485 54.1647 149.181 54.1647H146.625V53.1807H149.013C149.413 53.1807 149.729 53.0767 149.961 52.8687C150.201 52.6527 150.321 52.3447 150.321 51.9447C150.321 51.5447 150.197 51.2407 149.949 51.0327C149.701 50.8167 149.373 50.7087 148.965 50.7087H146.625V49.7247H148.989C149.533 49.7247 149.985 49.8247 150.345 50.0247C150.713 50.2167 150.989 50.4727 151.173 50.7927C151.365 51.1127 151.461 51.4647 151.461 51.8487C151.461 52.2967 151.337 52.6887 151.089 53.0247C150.849 53.3607 150.493 53.6247 150.021 53.8167L150.117 53.4567C150.653 53.6487 151.069 53.9407 151.365 54.3327C151.669 54.7167 151.821 55.1727 151.821 55.7007C151.821 56.1407 151.713 56.5367 151.497 56.8887C151.281 57.2407 150.969 57.5247 150.561 57.7407C150.161 57.9487 149.669 58.0527 149.085 58.0527H146.625ZM145.869 58.0527V49.7247H146.997V58.0527H145.869ZM156.465 58.1727C155.849 58.1727 155.297 58.0367 154.809 57.7647C154.329 57.4847 153.949 57.1047 153.669 56.6247C153.389 56.1367 153.249 55.5847 153.249 54.9687V49.7247H154.377V54.9447C154.377 55.3847 154.469 55.7647 154.653 56.0847C154.837 56.4047 155.085 56.6527 155.397 56.8287C155.717 57.0047 156.073 57.0927 156.465 57.0927C156.873 57.0927 157.229 57.0047 157.533 56.8287C157.845 56.6527 158.089 56.4047 158.265 56.0847C158.449 55.7647 158.541 55.3887 158.541 54.9567V49.7247H159.681V54.9807C159.681 55.5967 159.541 56.1447 159.261 56.6247C158.981 57.1047 158.601 57.4847 158.121 57.7647C157.641 58.0367 157.089 58.1727 156.465 58.1727ZM163.759 58.1727C163.103 58.1727 162.543 58.0527 162.079 57.8127C161.615 57.5727 161.203 57.2247 160.843 56.7687L161.611 56.0007C161.875 56.3687 162.179 56.6487 162.523 56.8407C162.867 57.0247 163.291 57.1167 163.795 57.1167C164.291 57.1167 164.687 57.0087 164.983 56.7927C165.287 56.5767 165.439 56.2807 165.439 55.9047C165.439 55.5927 165.367 55.3407 165.223 55.1487C165.079 54.9567 164.883 54.8007 164.635 54.6807C164.395 54.5527 164.131 54.4407 163.843 54.3447C163.555 54.2407 163.267 54.1327 162.979 54.0207C162.691 53.9007 162.427 53.7567 162.187 53.5887C161.947 53.4127 161.751 53.1847 161.599 52.9047C161.455 52.6247 161.383 52.2727 161.383 51.8487C161.383 51.3767 161.495 50.9767 161.719 50.6487C161.951 50.3127 162.263 50.0567 162.655 49.8807C163.055 49.6967 163.503 49.6047 163.999 49.6047C164.543 49.6047 165.031 49.7127 165.463 49.9287C165.895 50.1367 166.247 50.4127 166.519 50.7567L165.751 51.5247C165.503 51.2367 165.235 51.0207 164.947 50.8767C164.667 50.7327 164.343 50.6607 163.975 50.6607C163.527 50.6607 163.171 50.7607 162.907 50.9607C162.643 51.1527 162.511 51.4247 162.511 51.7767C162.511 52.0567 162.583 52.2847 162.727 52.4607C162.879 52.6287 163.075 52.7727 163.315 52.8927C163.555 53.0127 163.819 53.1247 164.107 53.2287C164.403 53.3247 164.695 53.4327 164.983 53.5527C165.271 53.6727 165.535 53.8247 165.775 54.0087C166.015 54.1927 166.207 54.4327 166.351 54.7287C166.503 55.0167 166.579 55.3807 166.579 55.8207C166.579 56.5567 166.323 57.1327 165.811 57.5487C165.307 57.9647 164.623 58.1727 163.759 58.1727Z" fill="#65BC4B"/>
<path d="M193.345 38.08V35.54H202.645V38.08H193.345ZM196.705 31.92H199.305V41.66H196.705V31.92Z" fill="#65BC4B"/>
<path d="M251.903 12.7772C251.786 11.7722 250.942 11.0065 249.91 11.0065H230.096C229.088 11.0065 228.22 11.7722 228.103 12.7772L225.758 33.7622C225.758 33.9297 225.758 34.0733 225.758 34.2408L226.555 40.2467C226.696 41.2278 227.54 41.9935 228.525 41.9935H251.458C252.443 41.9935 253.31 41.2517 253.428 40.2467L254.225 34.2408C254.248 34.0733 254.248 33.9297 254.225 33.7622L251.88 12.7772H251.903ZM229.58 31.9197L231.362 15.8878C231.432 15.3375 231.878 14.9546 232.417 14.9546H247.565C248.105 14.9546 248.574 15.3614 248.621 15.8878L250.426 31.9197C250.45 32.2069 250.356 32.5179 250.168 32.7572C249.957 32.9965 249.676 33.1161 249.371 33.1161H230.635C230.33 33.1161 230.049 32.9965 229.838 32.7572C229.65 32.5419 229.533 32.2308 229.58 31.9197ZM233.848 37.2796H230.283C229.697 37.2796 229.228 36.8011 229.228 36.2029C229.228 35.6047 229.697 35.15 230.283 35.15H233.848C234.434 35.15 234.903 35.6286 234.903 36.2029C234.903 36.7772 234.434 37.2796 233.848 37.2796ZM249.934 37.2796H246.369C245.783 37.2796 245.291 36.8011 245.291 36.2029C245.291 35.6047 245.76 35.15 246.369 35.15H249.934C250.52 35.15 250.989 35.6286 250.989 36.2029C250.989 36.7772 250.52 37.2796 249.934 37.2796Z" fill="#65BC4B"/>
<path d="M220.423 57.9935V49.6655H221.215L224.743 55.4615H224.203L227.731 49.6655H228.523V57.9935H227.395V51.6455L227.659 51.7175L224.875 56.2895H224.083L221.299 51.7175L221.551 51.6455V57.9935H220.423ZM230.49 57.9935V49.6655H231.618V57.9935H230.49ZM231.258 57.9935V56.9615H236.034V57.9935H231.258ZM231.258 54.2255V53.2415H235.638V54.2255H231.258ZM231.258 50.6975V49.6655H235.974V50.6975H231.258ZM239.46 57.9935V49.9055H240.588V57.9935H239.46ZM236.628 50.6975V49.6655H243.408V50.6975H236.628ZM245.508 54.3695V53.4215H247.764C248.252 53.4215 248.628 53.2975 248.892 53.0495C249.156 52.8015 249.288 52.4655 249.288 52.0415C249.288 51.6415 249.156 51.3095 248.892 51.0455C248.636 50.7815 248.264 50.6495 247.776 50.6495H245.508V49.6655H247.812C248.34 49.6655 248.8 49.7695 249.192 49.9775C249.584 50.1775 249.884 50.4535 250.092 50.8055C250.308 51.1575 250.416 51.5615 250.416 52.0175C250.416 52.4895 250.308 52.9015 250.092 53.2535C249.884 53.6055 249.584 53.8815 249.192 54.0815C248.8 54.2735 248.34 54.3695 247.812 54.3695H245.508ZM244.752 57.9935V49.6655H245.88V57.9935H244.752ZM249.552 57.9935L246.528 54.2615L247.596 53.8895L250.98 57.9935H249.552ZM255.809 58.1135C255.217 58.1135 254.665 58.0055 254.153 57.7895C253.641 57.5655 253.193 57.2575 252.809 56.8655C252.425 56.4655 252.125 56.0055 251.909 55.4855C251.701 54.9655 251.597 54.4095 251.597 53.8175C251.597 53.2175 251.701 52.6615 251.909 52.1495C252.125 51.6295 252.421 51.1735 252.797 50.7815C253.181 50.3895 253.625 50.0855 254.129 49.8695C254.641 49.6535 255.193 49.5455 255.785 49.5455C256.377 49.5455 256.925 49.6535 257.429 49.8695C257.941 50.0855 258.389 50.3895 258.773 50.7815C259.157 51.1735 259.457 51.6295 259.673 52.1495C259.889 52.6695 259.997 53.2295 259.997 53.8295C259.997 54.4215 259.889 54.9775 259.673 55.4975C259.457 56.0175 259.157 56.4735 258.773 56.8655C258.397 57.2575 257.953 57.5655 257.441 57.7895C256.937 58.0055 256.393 58.1135 255.809 58.1135ZM255.785 57.0335C256.385 57.0335 256.909 56.8975 257.357 56.6255C257.813 56.3455 258.173 55.9655 258.437 55.4855C258.701 54.9975 258.833 54.4415 258.833 53.8175C258.833 53.3535 258.757 52.9295 258.605 52.5455C258.453 52.1535 258.241 51.8135 257.969 51.5255C257.697 51.2375 257.377 51.0175 257.009 50.8655C256.641 50.7055 256.233 50.6255 255.785 50.6255C255.193 50.6255 254.669 50.7615 254.213 51.0335C253.765 51.3055 253.409 51.6815 253.145 52.1615C252.889 52.6415 252.761 53.1935 252.761 53.8175C252.761 54.2815 252.833 54.7135 252.977 55.1135C253.129 55.5055 253.337 55.8455 253.601 56.1335C253.873 56.4135 254.193 56.6335 254.561 56.7935C254.937 56.9535 255.345 57.0335 255.785 57.0335Z" fill="#65BC4B"/>
<path d="M311.845 25.0561C311.845 25.0561 311.826 24.9332 311.787 24.8718L307.829 11.6004C307.58 10.7607 306.739 10.3102 305.955 10.5764C305.171 10.8427 304.731 11.7233 304.98 12.5425L305.458 14.1605H294.5L294.979 12.5425C295.227 11.7233 294.787 10.8427 294.003 10.5764C293.219 10.3102 292.378 10.7812 292.129 11.6004L288.171 24.8718C288.171 24.8718 288.133 24.9947 288.133 25.0561C288.094 25.2609 287.769 27.1451 288.305 29.1727C289.07 32.2243 291.67 41.0309 291.785 41.3996C292.053 42.2393 292.875 42.6898 293.659 42.4236C294.29 42.2188 294.692 41.6044 294.711 40.949H305.305C305.305 41.6044 305.706 42.2188 306.337 42.4236C307.122 42.6898 307.963 42.2188 308.212 41.3996C308.326 41.0309 310.927 32.2243 311.711 29.1727C312.227 27.1451 311.902 25.2609 311.864 25.0561M308.823 28.374C308.613 29.2137 308.25 30.5244 307.848 31.9581H292.148C291.747 30.5039 291.383 29.2137 291.173 28.374C290.886 27.1861 291.02 25.9982 291.058 25.7115L293.659 16.9663H306.299L308.919 25.691C308.957 25.9777 309.11 27.1861 308.804 28.374" fill="#65BC4B"/>
<path d="M286.02 58.62C285.42 58.62 284.864 58.512 284.352 58.296C283.84 58.072 283.392 57.764 283.008 57.372C282.632 56.98 282.34 56.524 282.132 56.004C281.924 55.484 281.82 54.928 281.82 54.336C281.82 53.736 281.924 53.176 282.132 52.656C282.34 52.136 282.632 51.684 283.008 51.3C283.392 50.908 283.836 50.604 284.34 50.388C284.852 50.164 285.408 50.052 286.008 50.052C286.664 50.052 287.24 50.164 287.736 50.388C288.232 50.612 288.672 50.916 289.056 51.3L288.276 52.08C288.012 51.784 287.688 51.552 287.304 51.384C286.928 51.216 286.496 51.132 286.008 51.132C285.568 51.132 285.164 51.212 284.796 51.372C284.428 51.524 284.108 51.744 283.836 52.032C283.564 52.32 283.352 52.66 283.2 53.052C283.056 53.444 282.984 53.872 282.984 54.336C282.984 54.8 283.056 55.228 283.2 55.62C283.352 56.012 283.564 56.352 283.836 56.64C284.108 56.928 284.428 57.152 284.796 57.312C285.164 57.464 285.568 57.54 286.008 57.54C286.528 57.54 286.98 57.456 287.364 57.288C287.748 57.112 288.072 56.876 288.336 56.58L289.116 57.348C288.732 57.748 288.28 58.06 287.76 58.284C287.248 58.508 286.668 58.62 286.02 58.62ZM289.679 58.5L293.087 50.172H293.903L297.299 58.5H296.075L293.279 51.456H293.699L290.879 58.5H289.679ZM291.299 56.616V55.632H295.679V56.616H291.299ZM299.308 58.5V57.516H301.828C302.308 57.516 302.684 57.376 302.956 57.096C303.228 56.808 303.364 56.464 303.364 56.064C303.364 55.792 303.304 55.548 303.184 55.332C303.064 55.108 302.888 54.932 302.656 54.804C302.432 54.676 302.168 54.612 301.864 54.612H299.308V53.628H301.696C302.096 53.628 302.412 53.524 302.644 53.316C302.884 53.1 303.004 52.792 303.004 52.392C303.004 51.992 302.88 51.688 302.632 51.48C302.384 51.264 302.056 51.156 301.648 51.156H299.308V50.172H301.672C302.216 50.172 302.668 50.272 303.028 50.472C303.396 50.664 303.672 50.92 303.856 51.24C304.048 51.56 304.144 51.912 304.144 52.296C304.144 52.744 304.02 53.136 303.772 53.472C303.532 53.808 303.176 54.072 302.704 54.264L302.8 53.904C303.336 54.096 303.752 54.388 304.048 54.78C304.352 55.164 304.504 55.62 304.504 56.148C304.504 56.588 304.396 56.984 304.18 57.336C303.964 57.688 303.652 57.972 303.244 58.188C302.844 58.396 302.352 58.5 301.768 58.5H299.308ZM298.552 58.5V50.172H299.68V58.5H298.552ZM306.029 58.5V50.172H307.157V58.5H306.029ZM306.797 58.5V57.468H311.261V58.5H306.797ZM312.65 58.5V50.172H313.778V58.5H312.65ZM313.418 58.5V57.468H318.194V58.5H313.418ZM313.418 54.732V53.748H317.798V54.732H313.418ZM313.418 51.204V50.172H318.134V51.204H313.418Z" fill="#65BC4B"/>
</svg>
