<svg width="421" height="72" viewBox="0 0 421 72" fill="none" xmlns="http://www.w3.org/2000/svg">
<rect x="0.5" width="420" height="72" rx="36" fill="white"/>
<rect x="12.5" y="12" width="48" height="48" rx="24" fill="#111716"/>
<path d="M36.5076 43.72C35.5209 43.72 34.6276 43.5 33.8276 43.06C33.0409 42.62 32.4142 42.0333 31.9476 41.3C31.4942 40.5533 31.2676 39.72 31.2676 38.8C31.2676 37.6 31.6876 36.3867 32.5276 35.16L36.5076 29.38H40.0476L35.6276 35.54L34.4476 35.64C34.6342 35.32 34.8276 35.0467 35.0276 34.82C35.2409 34.58 35.5076 34.4 35.8276 34.28C36.1476 34.1467 36.5542 34.08 37.0476 34.08C37.9276 34.08 38.7142 34.2867 39.4076 34.7C40.1142 35.1 40.6809 35.6533 41.1076 36.36C41.5342 37.0533 41.7476 37.8533 41.7476 38.76C41.7476 39.68 41.5142 40.52 41.0476 41.28C40.5809 42.0267 39.9542 42.62 39.1676 43.06C38.3809 43.5 37.4942 43.72 36.5076 43.72ZM36.5076 40.98C36.9209 40.98 37.2942 40.88 37.6276 40.68C37.9609 40.48 38.2209 40.2067 38.4076 39.86C38.5942 39.5133 38.6876 39.1267 38.6876 38.7C38.6876 38.26 38.5942 37.8733 38.4076 37.54C38.2209 37.1933 37.9609 36.9267 37.6276 36.74C37.2942 36.54 36.9209 36.44 36.5076 36.44C36.0809 36.44 35.7009 36.54 35.3676 36.74C35.0476 36.9267 34.7942 37.1933 34.6076 37.54C34.4209 37.8733 34.3276 38.26 34.3276 38.7C34.3276 39.1267 34.4209 39.5133 34.6076 39.86C34.7942 40.2067 35.0476 40.48 35.3676 40.68C35.7009 40.88 36.0809 40.98 36.5076 40.98Z" fill="white"/>
<path opacity="0.6" d="M107.057 10.9473H85.8789C84.1338 10.9473 82.7119 12.3772 82.7119 14.115V36.7511C82.7119 38.401 83.983 39.7429 85.5773 39.9189C85.5773 39.9629 85.5773 40.0069 85.5773 40.0509C85.5773 41.1728 86.4821 42.0527 87.6024 42.0527C88.7227 42.0527 89.6275 41.1508 89.6275 40.0509C89.6275 40.0069 89.6275 39.9849 89.6275 39.9409H103.373C103.373 39.9409 103.373 40.0069 103.373 40.0509C103.373 41.1728 104.277 42.0527 105.398 42.0527C106.518 42.0527 107.423 41.1508 107.423 40.0509C107.423 40.0069 107.423 39.9629 107.423 39.9189C109.017 39.7649 110.288 38.401 110.288 36.7511V14.115C110.288 12.3772 108.866 10.9473 107.121 10.9473M87.8178 13.1691H105.613C106.173 13.1691 106.647 13.6311 106.647 14.203C106.647 14.775 106.195 15.2369 105.613 15.2369H87.7748C87.1931 15.2369 86.7406 14.775 86.7406 14.203C86.7406 13.6311 87.1931 13.1691 87.7748 13.1691M87.0853 37.1691C86.2451 37.1691 85.5773 36.4872 85.5773 35.6732C85.5773 34.8593 86.2451 34.1554 87.0853 34.1554C87.9256 34.1554 88.5934 34.8373 88.5934 35.6732C88.5934 36.5092 87.9256 37.1691 87.0853 37.1691ZM95.9184 31.2736H87.6024C86.5037 31.2736 85.5988 30.3717 85.5988 29.2718V18.5587C85.5988 17.4588 86.5037 16.5348 87.6024 16.5348H95.9184V31.2736ZM105.893 37.1691C105.053 37.1691 104.385 36.4872 104.385 35.6732C104.385 34.8593 105.053 34.1554 105.893 34.1554C106.733 34.1554 107.401 34.8373 107.401 35.6732C107.401 36.5092 106.733 37.1691 105.893 37.1691ZM107.401 29.2498C107.401 30.3497 106.496 31.2516 105.398 31.2516H97.0602V16.5128H105.398C106.496 16.5128 107.401 17.4148 107.401 18.5367V29.2498Z" fill="#65BC4B"/>
<path d="M85.589 58.1727C85.045 58.1727 84.549 58.0727 84.101 57.8727C83.661 57.6647 83.289 57.3647 82.985 56.9727L83.753 56.2047C83.937 56.4847 84.189 56.7087 84.509 56.8767C84.829 57.0367 85.185 57.1167 85.577 57.1167C85.945 57.1167 86.261 57.0487 86.525 56.9127C86.797 56.7687 87.009 56.5687 87.161 56.3127C87.321 56.0567 87.401 55.7607 87.401 55.4247C87.401 55.0807 87.321 54.7847 87.161 54.5367C87.009 54.2807 86.793 54.0847 86.513 53.9487C86.233 53.8127 85.901 53.7447 85.517 53.7447C85.373 53.7447 85.229 53.7567 85.085 53.7807C84.941 53.7967 84.801 53.8247 84.665 53.8647L85.145 53.2167C85.297 53.1447 85.461 53.0887 85.637 53.0487C85.813 53.0087 85.989 52.9887 86.165 52.9887C86.613 52.9887 87.013 53.0927 87.365 53.3007C87.725 53.5087 88.009 53.8007 88.217 54.1767C88.433 54.5527 88.541 54.9887 88.541 55.4847C88.541 56.0127 88.413 56.4807 88.157 56.8887C87.909 57.2887 87.565 57.6047 87.125 57.8367C86.685 58.0607 86.173 58.1727 85.589 58.1727ZM84.665 53.8647V53.1807L87.101 50.4087L88.445 50.3967L85.937 53.2407L84.665 53.8647ZM83.381 50.7327V49.7247H88.445V50.3967L87.461 50.7327H83.381ZM96.3541 58.1727C95.7621 58.1727 95.2101 58.0647 94.6981 57.8487C94.1861 57.6247 93.7381 57.3167 93.3541 56.9247C92.9701 56.5247 92.6701 56.0647 92.4541 55.5447C92.2461 55.0247 92.1421 54.4687 92.1421 53.8767C92.1421 53.2767 92.2461 52.7207 92.4541 52.2087C92.6701 51.6887 92.9661 51.2327 93.3421 50.8407C93.7261 50.4487 94.1701 50.1447 94.6741 49.9287C95.1861 49.7127 95.7381 49.6047 96.3301 49.6047C96.9221 49.6047 97.4701 49.7127 97.9741 49.9287C98.4861 50.1447 98.9341 50.4487 99.3181 50.8407C99.7021 51.2327 100.002 51.6887 100.218 52.2087C100.434 52.7287 100.542 53.2887 100.542 53.8887C100.542 54.4807 100.434 55.0367 100.218 55.5567C100.002 56.0767 99.7021 56.5327 99.3181 56.9247C98.9421 57.3167 98.4981 57.6247 97.9861 57.8487C97.4821 58.0647 96.9381 58.1727 96.3541 58.1727ZM96.3301 57.0927C96.9301 57.0927 97.4541 56.9567 97.9021 56.6847C98.3581 56.4047 98.7181 56.0247 98.9821 55.5447C99.2461 55.0567 99.3781 54.5007 99.3781 53.8767C99.3781 53.4127 99.3021 52.9887 99.1501 52.6047C98.9981 52.2127 98.7861 51.8727 98.5141 51.5847C98.2421 51.2967 97.9221 51.0767 97.5541 50.9247C97.1861 50.7647 96.7781 50.6847 96.3301 50.6847C95.7381 50.6847 95.2141 50.8207 94.7581 51.0927C94.3101 51.3647 93.9541 51.7407 93.6901 52.2207C93.4341 52.7007 93.3061 53.2527 93.3061 53.8767C93.3061 54.3407 93.3781 54.7727 93.5221 55.1727C93.6741 55.5647 93.8821 55.9047 94.1461 56.1927C94.4181 56.4727 94.7381 56.6927 95.1061 56.8527C95.4821 57.0127 95.8901 57.0927 96.3301 57.0927ZM95.6221 48.8727L95.1301 48.3807L96.6901 46.4487L97.5421 47.3007L95.6221 48.8727ZM106.986 58.1727C106.434 58.1727 105.938 58.0447 105.498 57.7887C105.066 57.5327 104.722 57.1887 104.466 56.7567C104.21 56.3247 104.082 55.8447 104.082 55.3167C104.082 54.5807 104.338 53.8487 104.85 53.1207L107.298 49.7247H108.606L106.098 53.1447L105.69 53.3607C105.786 53.1927 105.902 53.0527 106.038 52.9407C106.174 52.8207 106.342 52.7287 106.542 52.6647C106.742 52.6007 106.978 52.5687 107.25 52.5687C107.738 52.5687 108.178 52.6847 108.57 52.9167C108.97 53.1487 109.29 53.4687 109.53 53.8767C109.778 54.2767 109.902 54.7447 109.902 55.2807C109.902 55.8087 109.77 56.2927 109.506 56.7327C109.25 57.1727 108.898 57.5247 108.45 57.7887C108.01 58.0447 107.522 58.1727 106.986 58.1727ZM106.986 57.1167C107.322 57.1167 107.622 57.0367 107.886 56.8767C108.158 56.7087 108.37 56.4887 108.522 56.2167C108.682 55.9367 108.762 55.6247 108.762 55.2807C108.762 54.9367 108.682 54.6287 108.522 54.3567C108.37 54.0767 108.158 53.8567 107.886 53.6967C107.622 53.5367 107.322 53.4567 106.986 53.4567C106.65 53.4567 106.346 53.5367 106.074 53.6967C105.81 53.8567 105.598 54.0767 105.438 54.3567C105.286 54.6287 105.21 54.9367 105.21 55.2807C105.21 55.6247 105.286 55.9367 105.438 56.2167C105.598 56.4967 105.81 56.7167 106.074 56.8767C106.346 57.0367 106.65 57.1167 106.986 57.1167Z" fill="#65BC4B"/>
<path d="M133.845 38.08V35.54H143.145V38.08H133.845ZM137.205 31.92H139.805V41.66H137.205V31.92Z" fill="#65BC4B"/>
<path d="M190.905 17.3451C190.798 16.468 190.068 15.8102 189.166 15.8102H182.25V10.1528H179.458V15.8102H171.877C170.997 15.8102 170.245 16.468 170.138 17.3451L168.097 35.6768C168.097 35.8084 168.097 35.9619 168.097 36.0934L168.785 41.3342C168.892 42.2113 169.622 42.8472 170.503 42.8472H190.497C191.356 42.8472 192.108 42.2113 192.216 41.3342L192.903 36.0934C192.903 35.9619 192.903 35.8084 192.903 35.6768L190.863 17.3451H190.905ZM172.994 20.0642C173.037 19.5818 173.445 19.2529 173.918 19.2529H187.126C187.62 19.2529 188.006 19.6037 188.049 20.0642L189.617 34.0761C189.66 34.3392 189.574 34.6023 189.402 34.7997C189.23 34.997 188.973 35.1067 188.715 35.1067H172.371C172.114 35.1067 171.856 34.997 171.684 34.7997C171.512 34.6023 171.426 34.3392 171.448 34.0761L173.016 20.0642H172.994ZM175.142 38.7467H172.028C171.512 38.7467 171.104 38.3301 171.104 37.8257C171.104 37.3214 171.512 36.9048 172.028 36.9048H175.142C175.657 36.9048 176.065 37.3214 176.065 37.8257C176.065 38.3301 175.657 38.7467 175.142 38.7467ZM189.166 38.7467H186.052C185.536 38.7467 185.128 38.3301 185.128 37.8257C185.128 37.3214 185.558 36.9048 186.052 36.9048H189.166C189.681 36.9048 190.089 37.3214 190.089 37.8257C190.089 38.3301 189.681 38.7467 189.166 38.7467Z" fill="#65BC4B"/>
<path d="M158.133 58.8472V50.7592H159.261V58.8472H158.133ZM155.301 51.5512V50.5192H162.081V51.5512H155.301ZM164.181 55.2232V54.2752H166.437C166.925 54.2752 167.301 54.1512 167.565 53.9032C167.829 53.6552 167.961 53.3192 167.961 52.8952C167.961 52.4952 167.829 52.1632 167.565 51.8992C167.309 51.6352 166.937 51.5032 166.449 51.5032H164.181V50.5192H166.485C167.013 50.5192 167.473 50.6232 167.865 50.8312C168.257 51.0312 168.557 51.3072 168.765 51.6592C168.981 52.0112 169.089 52.4152 169.089 52.8712C169.089 53.3432 168.981 53.7552 168.765 54.1072C168.557 54.4592 168.257 54.7352 167.865 54.9352C167.473 55.1272 167.013 55.2232 166.485 55.2232H164.181ZM163.425 58.8472V50.5192H164.553V58.8472H163.425ZM168.225 58.8472L165.201 55.1152L166.269 54.7432L169.653 58.8472H168.225ZM169.938 58.8472L173.346 50.5192H174.162L177.558 58.8472H176.334L173.538 51.8032H173.958L171.138 58.8472H169.938ZM171.558 56.9632V55.9792H175.938V56.9632H171.558ZM178.812 58.8472V50.5192H179.604L179.94 51.8272V58.8472H178.812ZM184.572 58.8472L179.46 52.0192L179.604 50.5192L184.728 57.3352L184.572 58.8472ZM184.572 58.8472L184.236 57.6112V50.5192H185.364V58.8472H184.572ZM190.056 58.8472L186.72 50.5192H187.944L190.692 57.5632H190.248L193.02 50.5192H194.232L190.872 58.8472H190.056ZM195.593 58.8472V50.5192H196.721V58.8472H195.593ZM195.449 49.6672L194.957 49.1752L196.517 47.2432L197.369 48.0952L195.449 49.6672ZM198.075 58.8472L201.483 50.5192H202.299L205.695 58.8472H204.471L201.675 51.8032H202.095L199.275 58.8472H198.075ZM199.695 56.9632V55.9792H204.075V56.9632H199.695Z" fill="#65BC4B"/>
<path d="M251.057 10.9473H229.879C228.134 10.9473 226.712 12.3772 226.712 14.115V36.7511C226.712 38.401 227.983 39.7429 229.577 39.9189C229.577 39.9629 229.577 40.0069 229.577 40.0509C229.577 41.1728 230.482 42.0527 231.602 42.0527C232.723 42.0527 233.628 41.1508 233.628 40.0509C233.628 40.0069 233.628 39.9849 233.628 39.9409H247.373C247.373 39.9409 247.373 40.0069 247.373 40.0509C247.373 41.1728 248.277 42.0527 249.398 42.0527C250.518 42.0527 251.423 41.1508 251.423 40.0509C251.423 40.0069 251.423 39.9629 251.423 39.9189C253.017 39.7649 254.288 38.401 254.288 36.7511V14.115C254.288 12.3772 252.866 10.9473 251.121 10.9473M231.818 13.1691H249.613C250.173 13.1691 250.647 13.6311 250.647 14.203C250.647 14.775 250.195 15.2369 249.613 15.2369H231.775C231.193 15.2369 230.741 14.775 230.741 14.203C230.741 13.6311 231.193 13.1691 231.775 13.1691M231.085 37.1691C230.245 37.1691 229.577 36.4872 229.577 35.6732C229.577 34.8593 230.245 34.1554 231.085 34.1554C231.926 34.1554 232.593 34.8373 232.593 35.6732C232.593 36.5092 231.926 37.1691 231.085 37.1691ZM239.918 31.2736H231.602C230.504 31.2736 229.599 30.3717 229.599 29.2718V18.5587C229.599 17.4588 230.504 16.5348 231.602 16.5348H239.918V31.2736ZM249.893 37.1691C249.053 37.1691 248.385 36.4872 248.385 35.6732C248.385 34.8593 249.053 34.1554 249.893 34.1554C250.733 34.1554 251.401 34.8373 251.401 35.6732C251.401 36.5092 250.733 37.1691 249.893 37.1691ZM251.401 29.2498C251.401 30.3497 250.496 31.2516 249.398 31.2516H241.06V16.5128H249.398C250.496 16.5128 251.401 17.4148 251.401 18.5367V29.2498Z" fill="#65BC4B"/>
<path d="M231.125 58.0527V57.0687H233.645C234.125 57.0687 234.501 56.9287 234.773 56.6487C235.045 56.3607 235.181 56.0167 235.181 55.6167C235.181 55.3447 235.121 55.1007 235.001 54.8847C234.881 54.6607 234.705 54.4847 234.473 54.3567C234.249 54.2287 233.985 54.1647 233.681 54.1647H231.125V53.1807H233.513C233.913 53.1807 234.229 53.0767 234.461 52.8687C234.701 52.6527 234.821 52.3447 234.821 51.9447C234.821 51.5447 234.697 51.2407 234.449 51.0327C234.201 50.8167 233.873 50.7087 233.465 50.7087H231.125V49.7247H233.489C234.033 49.7247 234.485 49.8247 234.845 50.0247C235.213 50.2167 235.489 50.4727 235.673 50.7927C235.865 51.1127 235.961 51.4647 235.961 51.8487C235.961 52.2967 235.837 52.6887 235.589 53.0247C235.349 53.3607 234.993 53.6247 234.521 53.8167L234.617 53.4567C235.153 53.6487 235.569 53.9407 235.865 54.3327C236.169 54.7167 236.321 55.1727 236.321 55.7007C236.321 56.1407 236.213 56.5367 235.997 56.8887C235.781 57.2407 235.469 57.5247 235.061 57.7407C234.661 57.9487 234.169 58.0527 233.585 58.0527H231.125ZM230.369 58.0527V49.7247H231.497V58.0527H230.369ZM240.965 58.1727C240.349 58.1727 239.797 58.0367 239.309 57.7647C238.829 57.4847 238.449 57.1047 238.169 56.6247C237.889 56.1367 237.749 55.5847 237.749 54.9687V49.7247H238.877V54.9447C238.877 55.3847 238.969 55.7647 239.153 56.0847C239.337 56.4047 239.585 56.6527 239.897 56.8287C240.217 57.0047 240.573 57.0927 240.965 57.0927C241.373 57.0927 241.729 57.0047 242.033 56.8287C242.345 56.6527 242.589 56.4047 242.765 56.0847C242.949 55.7647 243.041 55.3887 243.041 54.9567V49.7247H244.181V54.9807C244.181 55.5967 244.041 56.1447 243.761 56.6247C243.481 57.1047 243.101 57.4847 242.621 57.7647C242.141 58.0367 241.589 58.1727 240.965 58.1727ZM248.259 58.1727C247.603 58.1727 247.043 58.0527 246.579 57.8127C246.115 57.5727 245.703 57.2247 245.343 56.7687L246.111 56.0007C246.375 56.3687 246.679 56.6487 247.023 56.8407C247.367 57.0247 247.791 57.1167 248.295 57.1167C248.791 57.1167 249.187 57.0087 249.483 56.7927C249.787 56.5767 249.939 56.2807 249.939 55.9047C249.939 55.5927 249.867 55.3407 249.723 55.1487C249.579 54.9567 249.383 54.8007 249.135 54.6807C248.895 54.5527 248.631 54.4407 248.343 54.3447C248.055 54.2407 247.767 54.1327 247.479 54.0207C247.191 53.9007 246.927 53.7567 246.687 53.5887C246.447 53.4127 246.251 53.1847 246.099 52.9047C245.955 52.6247 245.883 52.2727 245.883 51.8487C245.883 51.3767 245.995 50.9767 246.219 50.6487C246.451 50.3127 246.763 50.0567 247.155 49.8807C247.555 49.6967 248.003 49.6047 248.499 49.6047C249.043 49.6047 249.531 49.7127 249.963 49.9287C250.395 50.1367 250.747 50.4127 251.019 50.7567L250.251 51.5247C250.003 51.2367 249.735 51.0207 249.447 50.8767C249.167 50.7327 248.843 50.6607 248.475 50.6607C248.027 50.6607 247.671 50.7607 247.407 50.9607C247.143 51.1527 247.011 51.4247 247.011 51.7767C247.011 52.0567 247.083 52.2847 247.227 52.4607C247.379 52.6287 247.575 52.7727 247.815 52.8927C248.055 53.0127 248.319 53.1247 248.607 53.2287C248.903 53.3247 249.195 53.4327 249.483 53.5527C249.771 53.6727 250.035 53.8247 250.275 54.0087C250.515 54.1927 250.707 54.4327 250.851 54.7287C251.003 55.0167 251.079 55.3807 251.079 55.8207C251.079 56.5567 250.823 57.1327 250.311 57.5487C249.807 57.9647 249.123 58.1727 248.259 58.1727Z" fill="#65BC4B"/>
<path d="M277.845 38.08V35.54H287.145V38.08H277.845ZM281.205 31.92H283.805V41.66H281.205V31.92Z" fill="#65BC4B"/>
<path d="M336.403 12.7772C336.286 11.7722 335.442 11.0065 334.41 11.0065H314.596C313.588 11.0065 312.72 11.7722 312.603 12.7772L310.258 33.7622C310.258 33.9297 310.258 34.0733 310.258 34.2408L311.055 40.2468C311.196 41.2278 312.04 41.9935 313.025 41.9935H335.958C336.943 41.9935 337.81 41.2517 337.928 40.2468L338.725 34.2408C338.748 34.0733 338.748 33.9297 338.725 33.7622L336.38 12.7772H336.403ZM314.08 31.9197L315.862 15.8878C315.932 15.3375 316.378 14.9546 316.917 14.9546H332.065C332.605 14.9546 333.074 15.3614 333.121 15.8878L334.926 31.9197C334.95 32.2069 334.856 32.5179 334.668 32.7572C334.457 32.9965 334.176 33.1161 333.871 33.1161H315.135C314.83 33.1161 314.549 32.9965 314.338 32.7572C314.15 32.5419 314.033 32.2308 314.08 31.9197ZM318.348 37.2797H314.783C314.197 37.2797 313.728 36.8011 313.728 36.2029C313.728 35.6047 314.197 35.15 314.783 35.15H318.348C318.934 35.15 319.403 35.6286 319.403 36.2029C319.403 36.7772 318.934 37.2797 318.348 37.2797ZM334.434 37.2797H330.869C330.283 37.2797 329.791 36.8011 329.791 36.2029C329.791 35.6047 330.26 35.15 330.869 35.15H334.434C335.02 35.15 335.489 35.6286 335.489 36.2029C335.489 36.7772 335.02 37.2797 334.434 37.2797Z" fill="#65BC4B"/>
<path d="M304.923 57.9935V49.6655H305.715L309.243 55.4615H308.703L312.231 49.6655H313.023V57.9935H311.895V51.6455L312.159 51.7175L309.375 56.2895H308.583L305.799 51.7175L306.051 51.6455V57.9935H304.923ZM314.99 57.9935V49.6655H316.118V57.9935H314.99ZM315.758 57.9935V56.9615H320.534V57.9935H315.758ZM315.758 54.2255V53.2415H320.138V54.2255H315.758ZM315.758 50.6975V49.6655H320.474V50.6975H315.758ZM323.96 57.9935V49.9055H325.088V57.9935H323.96ZM321.128 50.6975V49.6655H327.908V50.6975H321.128ZM330.008 54.3695V53.4215H332.264C332.752 53.4215 333.128 53.2975 333.392 53.0495C333.656 52.8015 333.788 52.4655 333.788 52.0415C333.788 51.6415 333.656 51.3095 333.392 51.0455C333.136 50.7815 332.764 50.6495 332.276 50.6495H330.008V49.6655H332.312C332.84 49.6655 333.3 49.7695 333.692 49.9775C334.084 50.1775 334.384 50.4535 334.592 50.8055C334.808 51.1575 334.916 51.5615 334.916 52.0175C334.916 52.4895 334.808 52.9015 334.592 53.2535C334.384 53.6055 334.084 53.8815 333.692 54.0815C333.3 54.2735 332.84 54.3695 332.312 54.3695H330.008ZM329.252 57.9935V49.6655H330.38V57.9935H329.252ZM334.052 57.9935L331.028 54.2615L332.096 53.8895L335.48 57.9935H334.052ZM340.309 58.1135C339.717 58.1135 339.165 58.0055 338.653 57.7895C338.141 57.5655 337.693 57.2575 337.309 56.8655C336.925 56.4655 336.625 56.0055 336.409 55.4855C336.201 54.9655 336.097 54.4095 336.097 53.8175C336.097 53.2175 336.201 52.6615 336.409 52.1495C336.625 51.6295 336.921 51.1735 337.297 50.7815C337.681 50.3895 338.125 50.0855 338.629 49.8695C339.141 49.6535 339.693 49.5455 340.285 49.5455C340.877 49.5455 341.425 49.6535 341.929 49.8695C342.441 50.0855 342.889 50.3895 343.273 50.7815C343.657 51.1735 343.957 51.6295 344.173 52.1495C344.389 52.6695 344.497 53.2295 344.497 53.8295C344.497 54.4215 344.389 54.9775 344.173 55.4975C343.957 56.0175 343.657 56.4735 343.273 56.8655C342.897 57.2575 342.453 57.5655 341.941 57.7895C341.437 58.0055 340.893 58.1135 340.309 58.1135ZM340.285 57.0335C340.885 57.0335 341.409 56.8975 341.857 56.6255C342.313 56.3455 342.673 55.9655 342.937 55.4855C343.201 54.9975 343.333 54.4415 343.333 53.8175C343.333 53.3535 343.257 52.9295 343.105 52.5455C342.953 52.1535 342.741 51.8135 342.469 51.5255C342.197 51.2375 341.877 51.0175 341.509 50.8655C341.141 50.7055 340.733 50.6255 340.285 50.6255C339.693 50.6255 339.169 50.7615 338.713 51.0335C338.265 51.3055 337.909 51.6815 337.645 52.1615C337.389 52.6415 337.261 53.1935 337.261 53.8175C337.261 54.2815 337.333 54.7135 337.477 55.1135C337.629 55.5055 337.837 55.8455 338.101 56.1335C338.373 56.4135 338.693 56.6335 339.061 56.7935C339.437 56.9535 339.845 57.0335 340.285 57.0335Z" fill="#65BC4B"/>
<path d="M396.345 25.0561C396.345 25.0561 396.326 24.9332 396.287 24.8718L392.329 11.6004C392.08 10.7607 391.239 10.3102 390.455 10.5764C389.671 10.8427 389.231 11.7233 389.48 12.5425L389.958 14.1605H379L379.479 12.5425C379.727 11.7233 379.287 10.8427 378.503 10.5764C377.719 10.3102 376.878 10.7812 376.629 11.6004L372.671 24.8718C372.671 24.8718 372.633 24.9947 372.633 25.0561C372.594 25.2609 372.269 27.1451 372.805 29.1727C373.57 32.2243 376.17 41.0309 376.285 41.3996C376.553 42.2393 377.375 42.6898 378.159 42.4236C378.79 42.2188 379.192 41.6044 379.211 40.949H389.805C389.805 41.6044 390.206 42.2188 390.837 42.4236C391.622 42.6898 392.463 42.2188 392.712 41.3996C392.826 41.0309 395.427 32.2243 396.211 29.1727C396.727 27.1451 396.402 25.2609 396.364 25.0561M393.323 28.374C393.113 29.2137 392.75 30.5244 392.348 31.9581H376.648C376.247 30.5039 375.883 29.2137 375.673 28.374C375.386 27.1861 375.52 25.9982 375.558 25.7115L378.159 16.9663H390.799L393.419 25.691C393.457 25.9777 393.61 27.1861 393.304 28.374" fill="#65BC4B"/>
<path d="M370.52 58.62C369.92 58.62 369.364 58.512 368.852 58.296C368.34 58.072 367.892 57.764 367.508 57.372C367.132 56.98 366.84 56.524 366.632 56.004C366.424 55.484 366.32 54.928 366.32 54.336C366.32 53.736 366.424 53.176 366.632 52.656C366.84 52.136 367.132 51.684 367.508 51.3C367.892 50.908 368.336 50.604 368.84 50.388C369.352 50.164 369.908 50.052 370.508 50.052C371.164 50.052 371.74 50.164 372.236 50.388C372.732 50.612 373.172 50.916 373.556 51.3L372.776 52.08C372.512 51.784 372.188 51.552 371.804 51.384C371.428 51.216 370.996 51.132 370.508 51.132C370.068 51.132 369.664 51.212 369.296 51.372C368.928 51.524 368.608 51.744 368.336 52.032C368.064 52.32 367.852 52.66 367.7 53.052C367.556 53.444 367.484 53.872 367.484 54.336C367.484 54.8 367.556 55.228 367.7 55.62C367.852 56.012 368.064 56.352 368.336 56.64C368.608 56.928 368.928 57.152 369.296 57.312C369.664 57.464 370.068 57.54 370.508 57.54C371.028 57.54 371.48 57.456 371.864 57.288C372.248 57.112 372.572 56.876 372.836 56.58L373.616 57.348C373.232 57.748 372.78 58.06 372.26 58.284C371.748 58.508 371.168 58.62 370.52 58.62ZM374.179 58.5L377.587 50.172H378.403L381.799 58.5H380.575L377.779 51.456H378.199L375.379 58.5H374.179ZM375.799 56.616V55.632H380.179V56.616H375.799ZM383.808 58.5V57.516H386.328C386.808 57.516 387.184 57.376 387.456 57.096C387.728 56.808 387.864 56.464 387.864 56.064C387.864 55.792 387.804 55.548 387.684 55.332C387.564 55.108 387.388 54.932 387.156 54.804C386.932 54.676 386.668 54.612 386.364 54.612H383.808V53.628H386.196C386.596 53.628 386.912 53.524 387.144 53.316C387.384 53.1 387.504 52.792 387.504 52.392C387.504 51.992 387.38 51.688 387.132 51.48C386.884 51.264 386.556 51.156 386.148 51.156H383.808V50.172H386.172C386.716 50.172 387.168 50.272 387.528 50.472C387.896 50.664 388.172 50.92 388.356 51.24C388.548 51.56 388.644 51.912 388.644 52.296C388.644 52.744 388.52 53.136 388.272 53.472C388.032 53.808 387.676 54.072 387.204 54.264L387.3 53.904C387.836 54.096 388.252 54.388 388.548 54.78C388.852 55.164 389.004 55.62 389.004 56.148C389.004 56.588 388.896 56.984 388.68 57.336C388.464 57.688 388.152 57.972 387.744 58.188C387.344 58.396 386.852 58.5 386.268 58.5H383.808ZM383.052 58.5V50.172H384.18V58.5H383.052ZM390.529 58.5V50.172H391.657V58.5H390.529ZM391.297 58.5V57.468H395.761V58.5H391.297ZM397.15 58.5V50.172H398.278V58.5H397.15ZM397.918 58.5V57.468H402.694V58.5H397.918ZM397.918 54.732V53.748H402.298V54.732H397.918ZM397.918 51.204V50.172H402.634V51.204H397.918Z" fill="#65BC4B"/>
</svg>
