<svg width="360" height="72" viewBox="0 0 360 72" fill="none" xmlns="http://www.w3.org/2000/svg">
<rect width="360" height="72" rx="36" fill="white"/>
<rect x="12" y="12" width="48" height="48" rx="24" fill="#111716"/>
<path d="M32.4476 43.5L36.8876 37.32L38.0476 37.24C37.8742 37.5467 37.6809 37.82 37.4676 38.06C37.2676 38.2867 37.0076 38.4667 36.6876 38.6C36.3809 38.72 35.9676 38.78 35.4476 38.78C34.5942 38.78 33.8076 38.58 33.0876 38.18C32.3809 37.7667 31.8142 37.2133 31.3876 36.52C30.9742 35.8133 30.7676 35.0133 30.7676 34.12C30.7676 33.1867 31.0009 32.3467 31.4676 31.6C31.9342 30.8533 32.5609 30.26 33.3476 29.82C34.1342 29.38 35.0209 29.16 36.0076 29.16C36.9942 29.16 37.8809 29.38 38.6676 29.82C39.4542 30.2467 40.0742 30.8333 40.5276 31.58C40.9942 32.3133 41.2276 33.1467 41.2276 34.08C41.2276 35.28 40.8142 36.4867 39.9876 37.7L36.0076 43.5H32.4476ZM36.0076 36.44C36.4209 36.44 36.7942 36.34 37.1276 36.14C37.4609 35.94 37.7209 35.6733 37.9076 35.34C38.0942 34.9933 38.1876 34.6067 38.1876 34.18C38.1876 33.74 38.0942 33.3467 37.9076 33C37.7209 32.6533 37.4609 32.3867 37.1276 32.2C36.7942 32 36.4209 31.9 36.0076 31.9C35.5809 31.9 35.2009 32 34.8676 32.2C34.5476 32.3867 34.2876 32.6533 34.0876 33C33.9009 33.3467 33.8076 33.74 33.8076 34.18C33.8076 34.6067 33.9009 34.9933 34.0876 35.34C34.2876 35.6733 34.5542 35.94 34.8876 36.14C35.2209 36.34 35.5942 36.44 36.0076 36.44Z" fill="white"/>
<path opacity="0.6" d="M106.557 10.9473H85.3789C83.6338 10.9473 82.2119 12.3771 82.2119 14.115V36.7511C82.2119 38.401 83.483 39.7429 85.0773 39.9189C85.0773 39.9628 85.0773 40.0068 85.0773 40.0508C85.0773 41.1727 85.9821 42.0527 87.1024 42.0527C88.2227 42.0527 89.1275 41.1507 89.1275 40.0508C89.1275 40.0068 89.1275 39.9848 89.1275 39.9409H102.873C102.873 39.9409 102.873 40.0068 102.873 40.0508C102.873 41.1727 103.777 42.0527 104.898 42.0527C106.018 42.0527 106.923 41.1507 106.923 40.0508C106.923 40.0068 106.923 39.9628 106.923 39.9189C108.517 39.7649 109.788 38.401 109.788 36.7511V14.115C109.788 12.3771 108.366 10.9473 106.621 10.9473M87.3178 13.1691H105.113C105.673 13.1691 106.147 13.631 106.147 14.203C106.147 14.7749 105.695 15.2369 105.113 15.2369H87.2748C86.6931 15.2369 86.2406 14.7749 86.2406 14.203C86.2406 13.631 86.6931 13.1691 87.2748 13.1691M86.5853 37.1691C85.7451 37.1691 85.0773 36.4871 85.0773 35.6732C85.0773 34.8593 85.7451 34.1553 86.5853 34.1553C87.4256 34.1553 88.0934 34.8373 88.0934 35.6732C88.0934 36.5091 87.4256 37.1691 86.5853 37.1691ZM95.4184 31.2736H87.1024C86.0037 31.2736 85.0988 30.3716 85.0988 29.2717V18.5586C85.0988 17.4587 86.0037 16.5348 87.1024 16.5348H95.4184V31.2736ZM105.393 37.1691C104.553 37.1691 103.885 36.4871 103.885 35.6732C103.885 34.8593 104.553 34.1553 105.393 34.1553C106.233 34.1553 106.901 34.8373 106.901 35.6732C106.901 36.5091 106.233 37.1691 105.393 37.1691ZM106.901 29.2497C106.901 30.3496 105.996 31.2516 104.898 31.2516H96.5602V16.5128H104.898C105.996 16.5128 106.901 17.4147 106.901 18.5366V29.2497Z" fill="#65BC4B"/>
<path d="M79.7699 58.1727C79.1699 58.1727 78.6139 58.0647 78.1019 57.8487C77.5899 57.6247 77.1419 57.3167 76.7579 56.9247C76.3819 56.5327 76.0899 56.0767 75.8819 55.5567C75.6739 55.0367 75.5699 54.4807 75.5699 53.8887C75.5699 53.2887 75.6739 52.7287 75.8819 52.2087C76.0899 51.6887 76.3819 51.2367 76.7579 50.8527C77.1419 50.4607 77.5859 50.1567 78.0899 49.9407C78.6019 49.7167 79.1579 49.6047 79.7579 49.6047C80.4139 49.6047 80.9899 49.7167 81.4859 49.9407C81.9819 50.1647 82.4219 50.4687 82.8059 50.8527L82.0259 51.6327C81.7619 51.3367 81.4379 51.1047 81.0539 50.9367C80.6779 50.7687 80.2459 50.6847 79.7579 50.6847C79.3179 50.6847 78.9139 50.7647 78.5459 50.9247C78.1779 51.0767 77.8579 51.2967 77.5859 51.5847C77.3139 51.8727 77.1019 52.2127 76.9499 52.6047C76.8059 52.9967 76.7339 53.4247 76.7339 53.8887C76.7339 54.3527 76.8059 54.7807 76.9499 55.1727C77.1019 55.5647 77.3139 55.9047 77.5859 56.1927C77.8579 56.4807 78.1779 56.7047 78.5459 56.8647C78.9139 57.0167 79.3179 57.0927 79.7579 57.0927C80.2779 57.0927 80.7299 57.0087 81.1139 56.8407C81.4979 56.6647 81.8219 56.4287 82.0859 56.1327L82.8659 56.9007C82.4819 57.3007 82.0299 57.6127 81.5099 57.8367C80.9979 58.0607 80.4179 58.1727 79.7699 58.1727ZM85.0076 58.1727C84.7836 58.1727 84.5956 58.0967 84.4436 57.9447C84.2996 57.7847 84.2276 57.5967 84.2276 57.3807C84.2276 57.1567 84.2996 56.9727 84.4436 56.8287C84.5956 56.6767 84.7836 56.6007 85.0076 56.6007C85.2316 56.6007 85.4156 56.6767 85.5596 56.8287C85.7116 56.9727 85.7876 57.1567 85.7876 57.3807C85.7876 57.5967 85.7116 57.7847 85.5596 57.9447C85.4156 58.0967 85.2316 58.1727 85.0076 58.1727ZM92.2081 58.1727C91.6641 58.1727 91.1681 58.0727 90.7201 57.8727C90.2801 57.6647 89.9081 57.3647 89.6041 56.9727L90.3721 56.2047C90.5561 56.4847 90.8081 56.7087 91.1281 56.8767C91.4481 57.0367 91.8041 57.1167 92.1961 57.1167C92.5641 57.1167 92.8801 57.0487 93.1441 56.9127C93.4161 56.7687 93.6281 56.5687 93.7801 56.3127C93.9401 56.0567 94.0201 55.7607 94.0201 55.4247C94.0201 55.0807 93.9401 54.7847 93.7801 54.5367C93.6281 54.2807 93.4121 54.0847 93.1321 53.9487C92.8521 53.8127 92.5201 53.7447 92.1361 53.7447C91.9921 53.7447 91.8481 53.7567 91.7041 53.7807C91.5601 53.7967 91.4201 53.8247 91.2841 53.8647L91.7641 53.2167C91.9161 53.1447 92.0801 53.0887 92.2561 53.0487C92.4321 53.0087 92.6081 52.9887 92.7841 52.9887C93.2321 52.9887 93.6321 53.0927 93.9841 53.3007C94.3441 53.5087 94.6281 53.8007 94.8361 54.1767C95.0521 54.5527 95.1601 54.9887 95.1601 55.4847C95.1601 56.0127 95.0321 56.4807 94.7761 56.8887C94.5281 57.2887 94.1841 57.6047 93.7441 57.8367C93.3041 58.0607 92.7921 58.1727 92.2081 58.1727ZM91.2841 53.8647V53.1807L93.7201 50.4087L95.0641 50.3967L92.5561 53.2407L91.2841 53.8647ZM90.0001 50.7327V49.7247H95.0641V50.3967L94.0801 50.7327H90.0001ZM102.973 58.1727C102.381 58.1727 101.829 58.0647 101.317 57.8487C100.805 57.6247 100.357 57.3167 99.9733 56.9247C99.5893 56.5247 99.2893 56.0647 99.0733 55.5447C98.8653 55.0247 98.7613 54.4687 98.7613 53.8767C98.7613 53.2767 98.8653 52.7207 99.0733 52.2087C99.2893 51.6887 99.5853 51.2327 99.9613 50.8407C100.345 50.4487 100.789 50.1447 101.293 49.9287C101.805 49.7127 102.357 49.6047 102.949 49.6047C103.541 49.6047 104.089 49.7127 104.593 49.9287C105.105 50.1447 105.553 50.4487 105.937 50.8407C106.321 51.2327 106.621 51.6887 106.837 52.2087C107.053 52.7287 107.161 53.2887 107.161 53.8887C107.161 54.4807 107.053 55.0367 106.837 55.5567C106.621 56.0767 106.321 56.5327 105.937 56.9247C105.561 57.3167 105.117 57.6247 104.605 57.8487C104.101 58.0647 103.557 58.1727 102.973 58.1727ZM102.949 57.0927C103.549 57.0927 104.073 56.9567 104.521 56.6847C104.977 56.4047 105.337 56.0247 105.601 55.5447C105.865 55.0567 105.997 54.5007 105.997 53.8767C105.997 53.4127 105.921 52.9887 105.769 52.6047C105.617 52.2127 105.405 51.8727 105.133 51.5847C104.861 51.2967 104.541 51.0767 104.173 50.9247C103.805 50.7647 103.397 50.6847 102.949 50.6847C102.357 50.6847 101.833 50.8207 101.377 51.0927C100.929 51.3647 100.573 51.7407 100.309 52.2207C100.053 52.7007 99.9253 53.2527 99.9253 53.8767C99.9253 54.3407 99.9973 54.7727 100.141 55.1727C100.293 55.5647 100.501 55.9047 100.765 56.1927C101.037 56.4727 101.357 56.6927 101.725 56.8527C102.101 57.0127 102.509 57.0927 102.949 57.0927ZM102.241 48.8727L101.749 48.3807L103.309 46.4487L104.161 47.3007L102.241 48.8727ZM113.605 58.1727C113.053 58.1727 112.557 58.0447 112.117 57.7887C111.685 57.5327 111.341 57.1887 111.085 56.7567C110.829 56.3247 110.701 55.8447 110.701 55.3167C110.701 54.5807 110.957 53.8487 111.469 53.1207L113.917 49.7247H115.225L112.717 53.1447L112.309 53.3607C112.405 53.1927 112.521 53.0527 112.657 52.9407C112.793 52.8207 112.961 52.7287 113.161 52.6647C113.361 52.6007 113.597 52.5687 113.869 52.5687C114.357 52.5687 114.797 52.6847 115.189 52.9167C115.589 53.1487 115.909 53.4687 116.149 53.8767C116.397 54.2767 116.521 54.7447 116.521 55.2807C116.521 55.8087 116.389 56.2927 116.125 56.7327C115.869 57.1727 115.517 57.5247 115.069 57.7887C114.629 58.0447 114.141 58.1727 113.605 58.1727ZM113.605 57.1167C113.941 57.1167 114.241 57.0367 114.505 56.8767C114.777 56.7087 114.989 56.4887 115.141 56.2167C115.301 55.9367 115.381 55.6247 115.381 55.2807C115.381 54.9367 115.301 54.6287 115.141 54.3567C114.989 54.0767 114.777 53.8567 114.505 53.6967C114.241 53.5367 113.941 53.4567 113.605 53.4567C113.269 53.4567 112.965 53.5367 112.693 53.6967C112.429 53.8567 112.217 54.0767 112.057 54.3567C111.905 54.6287 111.829 54.9367 111.829 55.2807C111.829 55.6247 111.905 55.9367 112.057 56.2167C112.217 56.4967 112.429 56.7167 112.693 56.8767C112.965 57.0367 113.269 57.1167 113.605 57.1167Z" fill="#65BC4B"/>
<path d="M133.345 38.08V35.54H142.645V38.08H133.345ZM136.705 31.92H139.305V41.66H136.705V31.92Z" fill="#65BC4B"/>
<path d="M191.903 12.7772C191.786 11.7722 190.942 11.0065 189.91 11.0065H170.096C169.088 11.0065 168.22 11.7722 168.103 12.7772L165.758 33.7622C165.758 33.9297 165.758 34.0733 165.758 34.2408L166.555 40.2467C166.696 41.2278 167.54 41.9935 168.525 41.9935H191.458C192.443 41.9935 193.31 41.2517 193.428 40.2467L194.225 34.2408C194.248 34.0733 194.248 33.9297 194.225 33.7622L191.88 12.7772H191.903ZM169.58 31.9197L171.362 15.8878C171.432 15.3375 171.878 14.9546 172.417 14.9546H187.565C188.105 14.9546 188.574 15.3614 188.621 15.8878L190.426 31.9197C190.45 32.2069 190.356 32.5179 190.168 32.7572C189.957 32.9965 189.676 33.1161 189.371 33.1161H170.635C170.33 33.1161 170.049 32.9965 169.838 32.7572C169.65 32.5419 169.533 32.2308 169.58 31.9197ZM173.848 37.2796H170.283C169.697 37.2796 169.228 36.8011 169.228 36.2029C169.228 35.6047 169.697 35.15 170.283 35.15H173.848C174.434 35.15 174.903 35.6286 174.903 36.2029C174.903 36.7772 174.434 37.2796 173.848 37.2796ZM189.934 37.2796H186.369C185.783 37.2796 185.291 36.8011 185.291 36.2029C185.291 35.6047 185.76 35.15 186.369 35.15H189.934C190.52 35.15 190.989 35.6286 190.989 36.2029C190.989 36.7772 190.52 37.2796 189.934 37.2796Z" fill="#65BC4B"/>
<path d="M160.423 57.9935V49.6655H161.215L164.743 55.4615H164.203L167.731 49.6655H168.523V57.9935H167.395V51.6455L167.659 51.7175L164.875 56.2895H164.083L161.299 51.7175L161.551 51.6455V57.9935H160.423ZM170.49 57.9935V49.6655H171.618V57.9935H170.49ZM171.258 57.9935V56.9615H176.034V57.9935H171.258ZM171.258 54.2255V53.2415H175.638V54.2255H171.258ZM171.258 50.6975V49.6655H175.974V50.6975H171.258ZM179.46 57.9935V49.9055H180.588V57.9935H179.46ZM176.628 50.6975V49.6655H183.408V50.6975H176.628ZM185.508 54.3695V53.4215H187.764C188.252 53.4215 188.628 53.2975 188.892 53.0495C189.156 52.8015 189.288 52.4655 189.288 52.0415C189.288 51.6415 189.156 51.3095 188.892 51.0455C188.636 50.7815 188.264 50.6495 187.776 50.6495H185.508V49.6655H187.812C188.34 49.6655 188.8 49.7695 189.192 49.9775C189.584 50.1775 189.884 50.4535 190.092 50.8055C190.308 51.1575 190.416 51.5615 190.416 52.0175C190.416 52.4895 190.308 52.9015 190.092 53.2535C189.884 53.6055 189.584 53.8815 189.192 54.0815C188.8 54.2735 188.34 54.3695 187.812 54.3695H185.508ZM184.752 57.9935V49.6655H185.88V57.9935H184.752ZM189.552 57.9935L186.528 54.2615L187.596 53.8895L190.98 57.9935H189.552ZM195.809 58.1135C195.217 58.1135 194.665 58.0055 194.153 57.7895C193.641 57.5655 193.193 57.2575 192.809 56.8655C192.425 56.4655 192.125 56.0055 191.909 55.4855C191.701 54.9655 191.597 54.4095 191.597 53.8175C191.597 53.2175 191.701 52.6615 191.909 52.1495C192.125 51.6295 192.421 51.1735 192.797 50.7815C193.181 50.3895 193.625 50.0855 194.129 49.8695C194.641 49.6535 195.193 49.5455 195.785 49.5455C196.377 49.5455 196.925 49.6535 197.429 49.8695C197.941 50.0855 198.389 50.3895 198.773 50.7815C199.157 51.1735 199.457 51.6295 199.673 52.1495C199.889 52.6695 199.997 53.2295 199.997 53.8295C199.997 54.4215 199.889 54.9775 199.673 55.4975C199.457 56.0175 199.157 56.4735 198.773 56.8655C198.397 57.2575 197.953 57.5655 197.441 57.7895C196.937 58.0055 196.393 58.1135 195.809 58.1135ZM195.785 57.0335C196.385 57.0335 196.909 56.8975 197.357 56.6255C197.813 56.3455 198.173 55.9655 198.437 55.4855C198.701 54.9975 198.833 54.4415 198.833 53.8175C198.833 53.3535 198.757 52.9295 198.605 52.5455C198.453 52.1535 198.241 51.8135 197.969 51.5255C197.697 51.2375 197.377 51.0175 197.009 50.8655C196.641 50.7055 196.233 50.6255 195.785 50.6255C195.193 50.6255 194.669 50.7615 194.213 51.0335C193.765 51.3055 193.409 51.6815 193.145 52.1615C192.889 52.6415 192.761 53.1935 192.761 53.8175C192.761 54.2815 192.833 54.7135 192.977 55.1135C193.129 55.5055 193.337 55.8455 193.601 56.1335C193.873 56.4135 194.193 56.6335 194.561 56.7935C194.937 56.9535 195.345 57.0335 195.785 57.0335Z" fill="#65BC4B"/>
<path d="M251.845 25.0561C251.845 25.0561 251.826 24.9332 251.787 24.8718L247.829 11.6004C247.58 10.7607 246.739 10.3102 245.955 10.5764C245.171 10.8427 244.731 11.7233 244.98 12.5425L245.458 14.1605H234.5L234.979 12.5425C235.227 11.7233 234.787 10.8427 234.003 10.5764C233.219 10.3102 232.378 10.7812 232.129 11.6004L228.171 24.8718C228.171 24.8718 228.133 24.9947 228.133 25.0561C228.094 25.2609 227.769 27.1451 228.305 29.1727C229.07 32.2243 231.67 41.0309 231.785 41.3996C232.053 42.2393 232.875 42.6898 233.659 42.4236C234.29 42.2188 234.692 41.6044 234.711 40.949H245.305C245.305 41.6044 245.706 42.2188 246.337 42.4236C247.122 42.6898 247.963 42.2188 248.212 41.3996C248.326 41.0309 250.927 32.2243 251.711 29.1727C252.227 27.1451 251.902 25.2609 251.864 25.0561M248.823 28.374C248.613 29.2137 248.25 30.5244 247.848 31.9581H232.148C231.747 30.5039 231.383 29.2137 231.173 28.374C230.886 27.1861 231.02 25.9982 231.058 25.7115L233.659 16.9663H246.299L248.919 25.691C248.957 25.9777 249.11 27.1861 248.804 28.374" fill="#65BC4B"/>
<path d="M226.02 58.62C225.42 58.62 224.864 58.512 224.352 58.296C223.84 58.072 223.392 57.764 223.008 57.372C222.632 56.98 222.34 56.524 222.132 56.004C221.924 55.484 221.82 54.928 221.82 54.336C221.82 53.736 221.924 53.176 222.132 52.656C222.34 52.136 222.632 51.684 223.008 51.3C223.392 50.908 223.836 50.604 224.34 50.388C224.852 50.164 225.408 50.052 226.008 50.052C226.664 50.052 227.24 50.164 227.736 50.388C228.232 50.612 228.672 50.916 229.056 51.3L228.276 52.08C228.012 51.784 227.688 51.552 227.304 51.384C226.928 51.216 226.496 51.132 226.008 51.132C225.568 51.132 225.164 51.212 224.796 51.372C224.428 51.524 224.108 51.744 223.836 52.032C223.564 52.32 223.352 52.66 223.2 53.052C223.056 53.444 222.984 53.872 222.984 54.336C222.984 54.8 223.056 55.228 223.2 55.62C223.352 56.012 223.564 56.352 223.836 56.64C224.108 56.928 224.428 57.152 224.796 57.312C225.164 57.464 225.568 57.54 226.008 57.54C226.528 57.54 226.98 57.456 227.364 57.288C227.748 57.112 228.072 56.876 228.336 56.58L229.116 57.348C228.732 57.748 228.28 58.06 227.76 58.284C227.248 58.508 226.668 58.62 226.02 58.62ZM229.679 58.5L233.087 50.172H233.903L237.299 58.5H236.075L233.279 51.456H233.699L230.879 58.5H229.679ZM231.299 56.616V55.632H235.679V56.616H231.299ZM239.308 58.5V57.516H241.828C242.308 57.516 242.684 57.376 242.956 57.096C243.228 56.808 243.364 56.464 243.364 56.064C243.364 55.792 243.304 55.548 243.184 55.332C243.064 55.108 242.888 54.932 242.656 54.804C242.432 54.676 242.168 54.612 241.864 54.612H239.308V53.628H241.696C242.096 53.628 242.412 53.524 242.644 53.316C242.884 53.1 243.004 52.792 243.004 52.392C243.004 51.992 242.88 51.688 242.632 51.48C242.384 51.264 242.056 51.156 241.648 51.156H239.308V50.172H241.672C242.216 50.172 242.668 50.272 243.028 50.472C243.396 50.664 243.672 50.92 243.856 51.24C244.048 51.56 244.144 51.912 244.144 52.296C244.144 52.744 244.02 53.136 243.772 53.472C243.532 53.808 243.176 54.072 242.704 54.264L242.8 53.904C243.336 54.096 243.752 54.388 244.048 54.78C244.352 55.164 244.504 55.62 244.504 56.148C244.504 56.588 244.396 56.984 244.18 57.336C243.964 57.688 243.652 57.972 243.244 58.188C242.844 58.396 242.352 58.5 241.768 58.5H239.308ZM238.552 58.5V50.172H239.68V58.5H238.552ZM246.029 58.5V50.172H247.157V58.5H246.029ZM246.797 58.5V57.468H251.261V58.5H246.797ZM252.65 58.5V50.172H253.778V58.5H252.65ZM253.418 58.5V57.468H258.194V58.5H253.418ZM253.418 54.732V53.748H257.798V54.732H253.418ZM253.418 51.204V50.172H258.134V51.204H253.418Z" fill="#65BC4B"/>
<path d="M277.345 38.08V35.54H286.645V38.08H277.345ZM280.705 31.92H283.305V41.66H280.705V31.92Z" fill="#65BC4B"/>
<path opacity="0.6" d="M334.557 10.9473H313.379C311.634 10.9473 310.212 12.3771 310.212 14.115V36.7511C310.212 38.401 311.483 39.7429 313.077 39.9189C313.077 39.9628 313.077 40.0068 313.077 40.0508C313.077 41.1727 313.982 42.0527 315.102 42.0527C316.223 42.0527 317.128 41.1507 317.128 40.0508C317.128 40.0068 317.128 39.9848 317.128 39.9409H330.873C330.873 39.9409 330.873 40.0068 330.873 40.0508C330.873 41.1727 331.777 42.0527 332.898 42.0527C334.018 42.0527 334.923 41.1507 334.923 40.0508C334.923 40.0068 334.923 39.9628 334.923 39.9189C336.517 39.7649 337.788 38.401 337.788 36.7511V14.115C337.788 12.3771 336.366 10.9473 334.621 10.9473M315.318 13.1691H333.113C333.673 13.1691 334.147 13.631 334.147 14.203C334.147 14.7749 333.695 15.2369 333.113 15.2369H315.275C314.693 15.2369 314.241 14.7749 314.241 14.203C314.241 13.631 314.693 13.1691 315.275 13.1691M314.585 37.1691C313.745 37.1691 313.077 36.4871 313.077 35.6732C313.077 34.8593 313.745 34.1553 314.585 34.1553C315.426 34.1553 316.093 34.8373 316.093 35.6732C316.093 36.5091 315.426 37.1691 314.585 37.1691ZM323.418 31.2736H315.102C314.004 31.2736 313.099 30.3716 313.099 29.2717V18.5586C313.099 17.4587 314.004 16.5348 315.102 16.5348H323.418V31.2736ZM333.393 37.1691C332.553 37.1691 331.885 36.4871 331.885 35.6732C331.885 34.8593 332.553 34.1553 333.393 34.1553C334.233 34.1553 334.901 34.8373 334.901 35.6732C334.901 36.5091 334.233 37.1691 333.393 37.1691ZM334.901 29.2497C334.901 30.3496 333.996 31.2516 332.898 31.2516H324.56V16.5128H332.898C333.996 16.5128 334.901 17.4147 334.901 18.5366V29.2497Z" fill="#65BC4B"/>
<path d="M307.77 58.1727C307.17 58.1727 306.614 58.0647 306.102 57.8487C305.59 57.6247 305.142 57.3167 304.758 56.9247C304.382 56.5327 304.09 56.0767 303.882 55.5567C303.674 55.0367 303.57 54.4807 303.57 53.8887C303.57 53.2887 303.674 52.7287 303.882 52.2087C304.09 51.6887 304.382 51.2367 304.758 50.8527C305.142 50.4607 305.586 50.1567 306.09 49.9407C306.602 49.7167 307.158 49.6047 307.758 49.6047C308.414 49.6047 308.99 49.7167 309.486 49.9407C309.982 50.1647 310.422 50.4687 310.806 50.8527L310.026 51.6327C309.762 51.3367 309.438 51.1047 309.054 50.9367C308.678 50.7687 308.246 50.6847 307.758 50.6847C307.318 50.6847 306.914 50.7647 306.546 50.9247C306.178 51.0767 305.858 51.2967 305.586 51.5847C305.314 51.8727 305.102 52.2127 304.95 52.6047C304.806 52.9967 304.734 53.4247 304.734 53.8887C304.734 54.3527 304.806 54.7807 304.95 55.1727C305.102 55.5647 305.314 55.9047 305.586 56.1927C305.858 56.4807 306.178 56.7047 306.546 56.8647C306.914 57.0167 307.318 57.0927 307.758 57.0927C308.278 57.0927 308.73 57.0087 309.114 56.8407C309.498 56.6647 309.822 56.4287 310.086 56.1327L310.866 56.9007C310.482 57.3007 310.03 57.6127 309.51 57.8367C308.998 58.0607 308.418 58.1727 307.77 58.1727ZM313.008 58.1727C312.784 58.1727 312.596 58.0967 312.444 57.9447C312.3 57.7847 312.228 57.5967 312.228 57.3807C312.228 57.1567 312.3 56.9727 312.444 56.8287C312.596 56.6767 312.784 56.6007 313.008 56.6007C313.232 56.6007 313.416 56.6767 313.56 56.8287C313.712 56.9727 313.788 57.1567 313.788 57.3807C313.788 57.5967 313.712 57.7847 313.56 57.9447C313.416 58.0967 313.232 58.1727 313.008 58.1727ZM320.208 58.1727C319.664 58.1727 319.168 58.0727 318.72 57.8727C318.28 57.6647 317.908 57.3647 317.604 56.9727L318.372 56.2047C318.556 56.4847 318.808 56.7087 319.128 56.8767C319.448 57.0367 319.804 57.1167 320.196 57.1167C320.564 57.1167 320.88 57.0487 321.144 56.9127C321.416 56.7687 321.628 56.5687 321.78 56.3127C321.94 56.0567 322.02 55.7607 322.02 55.4247C322.02 55.0807 321.94 54.7847 321.78 54.5367C321.628 54.2807 321.412 54.0847 321.132 53.9487C320.852 53.8127 320.52 53.7447 320.136 53.7447C319.992 53.7447 319.848 53.7567 319.704 53.7807C319.56 53.7967 319.42 53.8247 319.284 53.8647L319.764 53.2167C319.916 53.1447 320.08 53.0887 320.256 53.0487C320.432 53.0087 320.608 52.9887 320.784 52.9887C321.232 52.9887 321.632 53.0927 321.984 53.3007C322.344 53.5087 322.628 53.8007 322.836 54.1767C323.052 54.5527 323.16 54.9887 323.16 55.4847C323.16 56.0127 323.032 56.4807 322.776 56.8887C322.528 57.2887 322.184 57.6047 321.744 57.8367C321.304 58.0607 320.792 58.1727 320.208 58.1727ZM319.284 53.8647V53.1807L321.72 50.4087L323.064 50.3967L320.556 53.2407L319.284 53.8647ZM318 50.7327V49.7247H323.064V50.3967L322.08 50.7327H318ZM330.973 58.1727C330.381 58.1727 329.829 58.0647 329.317 57.8487C328.805 57.6247 328.357 57.3167 327.973 56.9247C327.589 56.5247 327.289 56.0647 327.073 55.5447C326.865 55.0247 326.761 54.4687 326.761 53.8767C326.761 53.2767 326.865 52.7207 327.073 52.2087C327.289 51.6887 327.585 51.2327 327.961 50.8407C328.345 50.4487 328.789 50.1447 329.293 49.9287C329.805 49.7127 330.357 49.6047 330.949 49.6047C331.541 49.6047 332.089 49.7127 332.593 49.9287C333.105 50.1447 333.553 50.4487 333.937 50.8407C334.321 51.2327 334.621 51.6887 334.837 52.2087C335.053 52.7287 335.161 53.2887 335.161 53.8887C335.161 54.4807 335.053 55.0367 334.837 55.5567C334.621 56.0767 334.321 56.5327 333.937 56.9247C333.561 57.3167 333.117 57.6247 332.605 57.8487C332.101 58.0647 331.557 58.1727 330.973 58.1727ZM330.949 57.0927C331.549 57.0927 332.073 56.9567 332.521 56.6847C332.977 56.4047 333.337 56.0247 333.601 55.5447C333.865 55.0567 333.997 54.5007 333.997 53.8767C333.997 53.4127 333.921 52.9887 333.769 52.6047C333.617 52.2127 333.405 51.8727 333.133 51.5847C332.861 51.2967 332.541 51.0767 332.173 50.9247C331.805 50.7647 331.397 50.6847 330.949 50.6847C330.357 50.6847 329.833 50.8207 329.377 51.0927C328.929 51.3647 328.573 51.7407 328.309 52.2207C328.053 52.7007 327.925 53.2527 327.925 53.8767C327.925 54.3407 327.997 54.7727 328.141 55.1727C328.293 55.5647 328.501 55.9047 328.765 56.1927C329.037 56.4727 329.357 56.6927 329.725 56.8527C330.101 57.0127 330.509 57.0927 330.949 57.0927ZM330.241 48.8727L329.749 48.3807L331.309 46.4487L332.161 47.3007L330.241 48.8727ZM341.605 58.1727C341.053 58.1727 340.557 58.0447 340.117 57.7887C339.685 57.5327 339.341 57.1887 339.085 56.7567C338.829 56.3247 338.701 55.8447 338.701 55.3167C338.701 54.5807 338.957 53.8487 339.469 53.1207L341.917 49.7247H343.225L340.717 53.1447L340.309 53.3607C340.405 53.1927 340.521 53.0527 340.657 52.9407C340.793 52.8207 340.961 52.7287 341.161 52.6647C341.361 52.6007 341.597 52.5687 341.869 52.5687C342.357 52.5687 342.797 52.6847 343.189 52.9167C343.589 53.1487 343.909 53.4687 344.149 53.8767C344.397 54.2767 344.521 54.7447 344.521 55.2807C344.521 55.8087 344.389 56.2927 344.125 56.7327C343.869 57.1727 343.517 57.5247 343.069 57.7887C342.629 58.0447 342.141 58.1727 341.605 58.1727ZM341.605 57.1167C341.941 57.1167 342.241 57.0367 342.505 56.8767C342.777 56.7087 342.989 56.4887 343.141 56.2167C343.301 55.9367 343.381 55.6247 343.381 55.2807C343.381 54.9367 343.301 54.6287 343.141 54.3567C342.989 54.0767 342.777 53.8567 342.505 53.6967C342.241 53.5367 341.941 53.4567 341.605 53.4567C341.269 53.4567 340.965 53.5367 340.693 53.6967C340.429 53.8567 340.217 54.0767 340.057 54.3567C339.905 54.6287 339.829 54.9367 339.829 55.2807C339.829 55.6247 339.905 55.9367 340.057 56.2167C340.217 56.4967 340.429 56.7167 340.693 56.8767C340.965 57.0367 341.269 57.1167 341.605 57.1167Z" fill="#65BC4B"/>
</svg>
