<svg width="360" height="72" viewBox="0 0 360 72" fill="none" xmlns="http://www.w3.org/2000/svg">
<rect width="360" height="72" rx="36" fill="white"/>
<rect x="12" y="12" width="48" height="48" rx="24" fill="#111716"/>
<path d="M36.0048 43.72C34.9914 43.72 34.1048 43.54 33.3448 43.18C32.5981 42.82 32.0114 42.3267 31.5848 41.7C31.1714 41.0733 30.9648 40.36 30.9648 39.56C30.9648 38.8933 31.0914 38.2933 31.3448 37.76C31.6114 37.2267 31.9781 36.78 32.4448 36.42C32.9248 36.06 33.4781 35.8133 34.1048 35.68L34.0448 36.32C33.5114 36.2 33.0581 35.98 32.6848 35.66C32.3114 35.3267 32.0248 34.9267 31.8248 34.46C31.6248 33.9933 31.5248 33.5067 31.5248 33C31.5248 32.2533 31.7114 31.5933 32.0848 31.02C32.4714 30.4333 33.0048 29.9733 33.6848 29.64C34.3648 29.3067 35.1381 29.14 36.0048 29.14C36.8848 29.14 37.6581 29.3067 38.3248 29.64C39.0048 29.9733 39.5314 30.4333 39.9048 31.02C40.2914 31.5933 40.4848 32.2533 40.4848 33C40.4848 33.5067 40.3848 33.9933 40.1848 34.46C39.9981 34.9267 39.7181 35.3267 39.3448 35.66C38.9714 35.98 38.5181 36.2 37.9848 36.32L37.9048 35.68C38.5448 35.8133 39.0981 36.06 39.5648 36.42C40.0448 36.78 40.4114 37.2267 40.6648 37.76C40.9181 38.2933 41.0448 38.8933 41.0448 39.56C41.0448 40.36 40.8381 41.0733 40.4248 41.7C40.0114 42.3267 39.4248 42.82 38.6648 43.18C37.9181 43.54 37.0314 43.72 36.0048 43.72ZM36.0048 41.04C36.4048 41.04 36.7581 40.96 37.0648 40.8C37.3714 40.6267 37.6114 40.3933 37.7848 40.1C37.9714 39.8067 38.0648 39.48 38.0648 39.12C38.0648 38.7467 37.9714 38.42 37.7848 38.14C37.6114 37.8467 37.3714 37.62 37.0648 37.46C36.7581 37.2867 36.4048 37.2 36.0048 37.2C35.6048 37.2 35.2514 37.2867 34.9448 37.46C34.6381 37.62 34.3981 37.8467 34.2248 38.14C34.0514 38.42 33.9648 38.7467 33.9648 39.12C33.9648 39.48 34.0514 39.8067 34.2248 40.1C34.3981 40.3933 34.6381 40.6267 34.9448 40.8C35.2514 40.96 35.6048 41.04 36.0048 41.04ZM36.0048 34.92C36.4714 34.92 36.8514 34.7733 37.1448 34.48C37.4514 34.1733 37.6048 33.7933 37.6048 33.34C37.6048 32.8733 37.4514 32.4933 37.1448 32.2C36.8514 31.8933 36.4714 31.74 36.0048 31.74C35.5514 31.74 35.1714 31.8867 34.8648 32.18C34.5581 32.4733 34.4048 32.8533 34.4048 33.32C34.4048 33.7733 34.5581 34.1533 34.8648 34.46C35.1714 34.7667 35.5514 34.92 36.0048 34.92Z" fill="white"/>
<path opacity="0.6" d="M106.557 10.9473H85.3789C83.6338 10.9473 82.2119 12.3772 82.2119 14.115V36.7511C82.2119 38.401 83.483 39.7429 85.0773 39.9189C85.0773 39.9629 85.0773 40.0069 85.0773 40.0509C85.0773 41.1728 85.9821 42.0527 87.1024 42.0527C88.2227 42.0527 89.1275 41.1508 89.1275 40.0509C89.1275 40.0069 89.1275 39.9849 89.1275 39.9409H102.873C102.873 39.9409 102.873 40.0069 102.873 40.0509C102.873 41.1728 103.777 42.0527 104.898 42.0527C106.018 42.0527 106.923 41.1508 106.923 40.0509C106.923 40.0069 106.923 39.9629 106.923 39.9189C108.517 39.7649 109.788 38.401 109.788 36.7511V14.115C109.788 12.3772 108.366 10.9473 106.621 10.9473M87.3178 13.1691H105.113C105.673 13.1691 106.147 13.6311 106.147 14.203C106.147 14.775 105.695 15.2369 105.113 15.2369H87.2748C86.6931 15.2369 86.2406 14.775 86.2406 14.203C86.2406 13.6311 86.6931 13.1691 87.2748 13.1691M86.5853 37.1691C85.7451 37.1691 85.0773 36.4872 85.0773 35.6732C85.0773 34.8593 85.7451 34.1554 86.5853 34.1554C87.4256 34.1554 88.0934 34.8373 88.0934 35.6732C88.0934 36.5092 87.4256 37.1691 86.5853 37.1691ZM95.4184 31.2736H87.1024C86.0037 31.2736 85.0988 30.3717 85.0988 29.2718V18.5587C85.0988 17.4588 86.0037 16.5348 87.1024 16.5348H95.4184V31.2736ZM105.393 37.1691C104.553 37.1691 103.885 36.4872 103.885 35.6732C103.885 34.8593 104.553 34.1554 105.393 34.1554C106.233 34.1554 106.901 34.8373 106.901 35.6732C106.901 36.5092 106.233 37.1691 105.393 37.1691ZM106.901 29.2498C106.901 30.3497 105.996 31.2516 104.898 31.2516H96.5602V16.5128H104.898C105.996 16.5128 106.901 17.4148 106.901 18.5367V29.2498Z" fill="#65BC4B"/>
<path d="M79.7699 58.1727C79.1699 58.1727 78.6139 58.0647 78.1019 57.8487C77.5899 57.6247 77.1419 57.3167 76.7579 56.9247C76.3819 56.5327 76.0899 56.0767 75.8819 55.5567C75.6739 55.0367 75.5699 54.4807 75.5699 53.8887C75.5699 53.2887 75.6739 52.7287 75.8819 52.2087C76.0899 51.6887 76.3819 51.2367 76.7579 50.8527C77.1419 50.4607 77.5859 50.1567 78.0899 49.9407C78.6019 49.7167 79.1579 49.6047 79.7579 49.6047C80.4139 49.6047 80.9899 49.7167 81.4859 49.9407C81.9819 50.1647 82.4219 50.4687 82.8059 50.8527L82.0259 51.6327C81.7619 51.3367 81.4379 51.1047 81.0539 50.9367C80.6779 50.7687 80.2459 50.6847 79.7579 50.6847C79.3179 50.6847 78.9139 50.7647 78.5459 50.9247C78.1779 51.0767 77.8579 51.2967 77.5859 51.5847C77.3139 51.8727 77.1019 52.2127 76.9499 52.6047C76.8059 52.9967 76.7339 53.4247 76.7339 53.8887C76.7339 54.3527 76.8059 54.7807 76.9499 55.1727C77.1019 55.5647 77.3139 55.9047 77.5859 56.1927C77.8579 56.4807 78.1779 56.7047 78.5459 56.8647C78.9139 57.0167 79.3179 57.0927 79.7579 57.0927C80.2779 57.0927 80.7299 57.0087 81.1139 56.8407C81.4979 56.6647 81.8219 56.4287 82.0859 56.1327L82.8659 56.9007C82.4819 57.3007 82.0299 57.6127 81.5099 57.8367C80.9979 58.0607 80.4179 58.1727 79.7699 58.1727ZM85.0076 58.1727C84.7836 58.1727 84.5956 58.0967 84.4436 57.9447C84.2996 57.7847 84.2276 57.5967 84.2276 57.3807C84.2276 57.1567 84.2996 56.9727 84.4436 56.8287C84.5956 56.6767 84.7836 56.6007 85.0076 56.6007C85.2316 56.6007 85.4156 56.6767 85.5596 56.8287C85.7116 56.9727 85.7876 57.1567 85.7876 57.3807C85.7876 57.5967 85.7116 57.7847 85.5596 57.9447C85.4156 58.0967 85.2316 58.1727 85.0076 58.1727ZM92.2081 58.1727C91.6641 58.1727 91.1681 58.0727 90.7201 57.8727C90.2801 57.6647 89.9081 57.3647 89.6041 56.9727L90.3721 56.2047C90.5561 56.4847 90.8081 56.7087 91.1281 56.8767C91.4481 57.0367 91.8041 57.1167 92.1961 57.1167C92.5641 57.1167 92.8801 57.0487 93.1441 56.9127C93.4161 56.7687 93.6281 56.5687 93.7801 56.3127C93.9401 56.0567 94.0201 55.7607 94.0201 55.4247C94.0201 55.0807 93.9401 54.7847 93.7801 54.5367C93.6281 54.2807 93.4121 54.0847 93.1321 53.9487C92.8521 53.8127 92.5201 53.7447 92.1361 53.7447C91.9921 53.7447 91.8481 53.7567 91.7041 53.7807C91.5601 53.7967 91.4201 53.8247 91.2841 53.8647L91.7641 53.2167C91.9161 53.1447 92.0801 53.0887 92.2561 53.0487C92.4321 53.0087 92.6081 52.9887 92.7841 52.9887C93.2321 52.9887 93.6321 53.0927 93.9841 53.3007C94.3441 53.5087 94.6281 53.8007 94.8361 54.1767C95.0521 54.5527 95.1601 54.9887 95.1601 55.4847C95.1601 56.0127 95.0321 56.4807 94.7761 56.8887C94.5281 57.2887 94.1841 57.6047 93.7441 57.8367C93.3041 58.0607 92.7921 58.1727 92.2081 58.1727ZM91.2841 53.8647V53.1807L93.7201 50.4087L95.0641 50.3967L92.5561 53.2407L91.2841 53.8647ZM90.0001 50.7327V49.7247H95.0641V50.3967L94.0801 50.7327H90.0001ZM102.973 58.1727C102.381 58.1727 101.829 58.0647 101.317 57.8487C100.805 57.6247 100.357 57.3167 99.9733 56.9247C99.5893 56.5247 99.2893 56.0647 99.0733 55.5447C98.8653 55.0247 98.7613 54.4687 98.7613 53.8767C98.7613 53.2767 98.8653 52.7207 99.0733 52.2087C99.2893 51.6887 99.5853 51.2327 99.9613 50.8407C100.345 50.4487 100.789 50.1447 101.293 49.9287C101.805 49.7127 102.357 49.6047 102.949 49.6047C103.541 49.6047 104.089 49.7127 104.593 49.9287C105.105 50.1447 105.553 50.4487 105.937 50.8407C106.321 51.2327 106.621 51.6887 106.837 52.2087C107.053 52.7287 107.161 53.2887 107.161 53.8887C107.161 54.4807 107.053 55.0367 106.837 55.5567C106.621 56.0767 106.321 56.5327 105.937 56.9247C105.561 57.3167 105.117 57.6247 104.605 57.8487C104.101 58.0647 103.557 58.1727 102.973 58.1727ZM102.949 57.0927C103.549 57.0927 104.073 56.9567 104.521 56.6847C104.977 56.4047 105.337 56.0247 105.601 55.5447C105.865 55.0567 105.997 54.5007 105.997 53.8767C105.997 53.4127 105.921 52.9887 105.769 52.6047C105.617 52.2127 105.405 51.8727 105.133 51.5847C104.861 51.2967 104.541 51.0767 104.173 50.9247C103.805 50.7647 103.397 50.6847 102.949 50.6847C102.357 50.6847 101.833 50.8207 101.377 51.0927C100.929 51.3647 100.573 51.7407 100.309 52.2207C100.053 52.7007 99.9253 53.2527 99.9253 53.8767C99.9253 54.3407 99.9973 54.7727 100.141 55.1727C100.293 55.5647 100.501 55.9047 100.765 56.1927C101.037 56.4727 101.357 56.6927 101.725 56.8527C102.101 57.0127 102.509 57.0927 102.949 57.0927ZM102.241 48.8727L101.749 48.3807L103.309 46.4487L104.161 47.3007L102.241 48.8727ZM113.605 58.1727C113.053 58.1727 112.557 58.0447 112.117 57.7887C111.685 57.5327 111.341 57.1887 111.085 56.7567C110.829 56.3247 110.701 55.8447 110.701 55.3167C110.701 54.5807 110.957 53.8487 111.469 53.1207L113.917 49.7247H115.225L112.717 53.1447L112.309 53.3607C112.405 53.1927 112.521 53.0527 112.657 52.9407C112.793 52.8207 112.961 52.7287 113.161 52.6647C113.361 52.6007 113.597 52.5687 113.869 52.5687C114.357 52.5687 114.797 52.6847 115.189 52.9167C115.589 53.1487 115.909 53.4687 116.149 53.8767C116.397 54.2767 116.521 54.7447 116.521 55.2807C116.521 55.8087 116.389 56.2927 116.125 56.7327C115.869 57.1727 115.517 57.5247 115.069 57.7887C114.629 58.0447 114.141 58.1727 113.605 58.1727ZM113.605 57.1167C113.941 57.1167 114.241 57.0367 114.505 56.8767C114.777 56.7087 114.989 56.4887 115.141 56.2167C115.301 55.9367 115.381 55.6247 115.381 55.2807C115.381 54.9367 115.301 54.6287 115.141 54.3567C114.989 54.0767 114.777 53.8567 114.505 53.6967C114.241 53.5367 113.941 53.4567 113.605 53.4567C113.269 53.4567 112.965 53.5367 112.693 53.6967C112.429 53.8567 112.217 54.0767 112.057 54.3567C111.905 54.6287 111.829 54.9367 111.829 55.2807C111.829 55.6247 111.905 55.9367 112.057 56.2167C112.217 56.4967 112.429 56.7167 112.693 56.8767C112.965 57.0367 113.269 57.1167 113.605 57.1167Z" fill="#65BC4B"/>
<path d="M133.345 38.08V35.54H142.645V38.08H133.345ZM136.705 31.92H139.305V41.66H136.705V31.92Z" fill="#65BC4B"/>
<path d="M190.405 17.3451C190.298 16.468 189.568 15.8102 188.666 15.8102H181.75V10.1528H178.958V15.8102H171.377C170.497 15.8102 169.745 16.468 169.638 17.3451L167.597 35.6768C167.597 35.8084 167.597 35.9618 167.597 36.0934L168.285 41.3342C168.392 42.2113 169.122 42.8472 170.003 42.8472H189.997C190.856 42.8472 191.608 42.2113 191.716 41.3342L192.403 36.0934C192.403 35.9618 192.403 35.8084 192.403 35.6768L190.363 17.3451H190.405ZM172.494 20.0642C172.537 19.5818 172.945 19.2528 173.418 19.2528H186.626C187.12 19.2528 187.506 19.6037 187.549 20.0642L189.117 34.0761C189.16 34.3392 189.074 34.6023 188.902 34.7997C188.73 34.997 188.473 35.1067 188.215 35.1067H171.871C171.614 35.1067 171.356 34.997 171.184 34.7997C171.012 34.6023 170.926 34.3392 170.948 34.0761L172.516 20.0642H172.494ZM174.642 38.7467H171.528C171.012 38.7467 170.604 38.3301 170.604 37.8257C170.604 37.3214 171.012 36.9047 171.528 36.9047H174.642C175.157 36.9047 175.565 37.3214 175.565 37.8257C175.565 38.3301 175.157 38.7467 174.642 38.7467ZM188.666 38.7467H185.552C185.036 38.7467 184.628 38.3301 184.628 37.8257C184.628 37.3214 185.058 36.9047 185.552 36.9047H188.666C189.181 36.9047 189.589 37.3214 189.589 37.8257C189.589 38.3301 189.181 38.7467 188.666 38.7467Z" fill="#65BC4B"/>
<path d="M157.633 58.8472V50.7592H158.761V58.8472H157.633ZM154.801 51.5512V50.5192H161.581V51.5512H154.801ZM163.681 55.2232V54.2752H165.937C166.425 54.2752 166.801 54.1512 167.065 53.9032C167.329 53.6552 167.461 53.3192 167.461 52.8952C167.461 52.4952 167.329 52.1632 167.065 51.8992C166.809 51.6352 166.437 51.5032 165.949 51.5032H163.681V50.5192H165.985C166.513 50.5192 166.973 50.6232 167.365 50.8312C167.757 51.0312 168.057 51.3072 168.265 51.6592C168.481 52.0112 168.589 52.4152 168.589 52.8712C168.589 53.3432 168.481 53.7552 168.265 54.1072C168.057 54.4592 167.757 54.7352 167.365 54.9352C166.973 55.1272 166.513 55.2232 165.985 55.2232H163.681ZM162.925 58.8472V50.5192H164.053V58.8472H162.925ZM167.725 58.8472L164.701 55.1152L165.769 54.7432L169.153 58.8472H167.725ZM169.438 58.8472L172.846 50.5192H173.662L177.058 58.8472H175.834L173.038 51.8032H173.458L170.638 58.8472H169.438ZM171.058 56.9632V55.9792H175.438V56.9632H171.058ZM178.312 58.8472V50.5192H179.104L179.44 51.8272V58.8472H178.312ZM184.072 58.8472L178.96 52.0192L179.104 50.5192L184.228 57.3352L184.072 58.8472ZM184.072 58.8472L183.736 57.6112V50.5192H184.864V58.8472H184.072ZM189.556 58.8472L186.22 50.5192H187.444L190.192 57.5632H189.748L192.52 50.5192H193.732L190.372 58.8472H189.556ZM195.093 58.8472V50.5192H196.221V58.8472H195.093ZM194.949 49.6672L194.457 49.1752L196.017 47.2432L196.869 48.0952L194.949 49.6672ZM197.575 58.8472L200.983 50.5192H201.799L205.195 58.8472H203.971L201.175 51.8032H201.595L198.775 58.8472H197.575ZM199.195 56.9632V55.9792H203.575V56.9632H199.195Z" fill="#65BC4B"/>
<path d="M250.557 10.9473H229.379C227.634 10.9473 226.212 12.3772 226.212 14.115V36.7511C226.212 38.401 227.483 39.7429 229.077 39.9189C229.077 39.9629 229.077 40.0069 229.077 40.0509C229.077 41.1728 229.982 42.0527 231.102 42.0527C232.223 42.0527 233.128 41.1508 233.128 40.0509C233.128 40.0069 233.128 39.9849 233.128 39.9409H246.873C246.873 39.9409 246.873 40.0069 246.873 40.0509C246.873 41.1728 247.777 42.0527 248.898 42.0527C250.018 42.0527 250.923 41.1508 250.923 40.0509C250.923 40.0069 250.923 39.9629 250.923 39.9189C252.517 39.7649 253.788 38.401 253.788 36.7511V14.115C253.788 12.3772 252.366 10.9473 250.621 10.9473M231.318 13.1691H249.113C249.673 13.1691 250.147 13.6311 250.147 14.203C250.147 14.775 249.695 15.2369 249.113 15.2369H231.275C230.693 15.2369 230.241 14.775 230.241 14.203C230.241 13.6311 230.693 13.1691 231.275 13.1691M230.585 37.1691C229.745 37.1691 229.077 36.4872 229.077 35.6732C229.077 34.8593 229.745 34.1554 230.585 34.1554C231.426 34.1554 232.093 34.8373 232.093 35.6732C232.093 36.5092 231.426 37.1691 230.585 37.1691ZM239.418 31.2736H231.102C230.004 31.2736 229.099 30.3717 229.099 29.2718V18.5587C229.099 17.4588 230.004 16.5348 231.102 16.5348H239.418V31.2736ZM249.393 37.1691C248.553 37.1691 247.885 36.4872 247.885 35.6732C247.885 34.8593 248.553 34.1554 249.393 34.1554C250.233 34.1554 250.901 34.8373 250.901 35.6732C250.901 36.5092 250.233 37.1691 249.393 37.1691ZM250.901 29.2498C250.901 30.3497 249.996 31.2516 248.898 31.2516H240.56V16.5128H248.898C249.996 16.5128 250.901 17.4148 250.901 18.5367V29.2498Z" fill="#65BC4B"/>
<path d="M230.625 58.0527V57.0687H233.145C233.625 57.0687 234.001 56.9287 234.273 56.6487C234.545 56.3607 234.681 56.0167 234.681 55.6167C234.681 55.3447 234.621 55.1007 234.501 54.8847C234.381 54.6607 234.205 54.4847 233.973 54.3567C233.749 54.2287 233.485 54.1647 233.181 54.1647H230.625V53.1807H233.013C233.413 53.1807 233.729 53.0767 233.961 52.8687C234.201 52.6527 234.321 52.3447 234.321 51.9447C234.321 51.5447 234.197 51.2407 233.949 51.0327C233.701 50.8167 233.373 50.7087 232.965 50.7087H230.625V49.7247H232.989C233.533 49.7247 233.985 49.8247 234.345 50.0247C234.713 50.2167 234.989 50.4727 235.173 50.7927C235.365 51.1127 235.461 51.4647 235.461 51.8487C235.461 52.2967 235.337 52.6887 235.089 53.0247C234.849 53.3607 234.493 53.6247 234.021 53.8167L234.117 53.4567C234.653 53.6487 235.069 53.9407 235.365 54.3327C235.669 54.7167 235.821 55.1727 235.821 55.7007C235.821 56.1407 235.713 56.5367 235.497 56.8887C235.281 57.2407 234.969 57.5247 234.561 57.7407C234.161 57.9487 233.669 58.0527 233.085 58.0527H230.625ZM229.869 58.0527V49.7247H230.997V58.0527H229.869ZM240.465 58.1727C239.849 58.1727 239.297 58.0367 238.809 57.7647C238.329 57.4847 237.949 57.1047 237.669 56.6247C237.389 56.1367 237.249 55.5847 237.249 54.9687V49.7247H238.377V54.9447C238.377 55.3847 238.469 55.7647 238.653 56.0847C238.837 56.4047 239.085 56.6527 239.397 56.8287C239.717 57.0047 240.073 57.0927 240.465 57.0927C240.873 57.0927 241.229 57.0047 241.533 56.8287C241.845 56.6527 242.089 56.4047 242.265 56.0847C242.449 55.7647 242.541 55.3887 242.541 54.9567V49.7247H243.681V54.9807C243.681 55.5967 243.541 56.1447 243.261 56.6247C242.981 57.1047 242.601 57.4847 242.121 57.7647C241.641 58.0367 241.089 58.1727 240.465 58.1727ZM247.759 58.1727C247.103 58.1727 246.543 58.0527 246.079 57.8127C245.615 57.5727 245.203 57.2247 244.843 56.7687L245.611 56.0007C245.875 56.3687 246.179 56.6487 246.523 56.8407C246.867 57.0247 247.291 57.1167 247.795 57.1167C248.291 57.1167 248.687 57.0087 248.983 56.7927C249.287 56.5767 249.439 56.2807 249.439 55.9047C249.439 55.5927 249.367 55.3407 249.223 55.1487C249.079 54.9567 248.883 54.8007 248.635 54.6807C248.395 54.5527 248.131 54.4407 247.843 54.3447C247.555 54.2407 247.267 54.1327 246.979 54.0207C246.691 53.9007 246.427 53.7567 246.187 53.5887C245.947 53.4127 245.751 53.1847 245.599 52.9047C245.455 52.6247 245.383 52.2727 245.383 51.8487C245.383 51.3767 245.495 50.9767 245.719 50.6487C245.951 50.3127 246.263 50.0567 246.655 49.8807C247.055 49.6967 247.503 49.6047 247.999 49.6047C248.543 49.6047 249.031 49.7127 249.463 49.9287C249.895 50.1367 250.247 50.4127 250.519 50.7567L249.751 51.5247C249.503 51.2367 249.235 51.0207 248.947 50.8767C248.667 50.7327 248.343 50.6607 247.975 50.6607C247.527 50.6607 247.171 50.7607 246.907 50.9607C246.643 51.1527 246.511 51.4247 246.511 51.7767C246.511 52.0567 246.583 52.2847 246.727 52.4607C246.879 52.6287 247.075 52.7727 247.315 52.8927C247.555 53.0127 247.819 53.1247 248.107 53.2287C248.403 53.3247 248.695 53.4327 248.983 53.5527C249.271 53.6727 249.535 53.8247 249.775 54.0087C250.015 54.1927 250.207 54.4327 250.351 54.7287C250.503 55.0167 250.579 55.3807 250.579 55.8207C250.579 56.5567 250.323 57.1327 249.811 57.5487C249.307 57.9647 248.623 58.1727 247.759 58.1727Z" fill="#65BC4B"/>
<path d="M277.345 38.08V35.54H286.645V38.08H277.345ZM280.705 31.92H283.305V41.66H280.705V31.92Z" fill="#65BC4B"/>
<path opacity="0.6" d="M334.557 10.9473H313.379C311.634 10.9473 310.212 12.3772 310.212 14.115V36.7511C310.212 38.401 311.483 39.7429 313.077 39.9189C313.077 39.9629 313.077 40.0069 313.077 40.0509C313.077 41.1728 313.982 42.0527 315.102 42.0527C316.223 42.0527 317.128 41.1508 317.128 40.0509C317.128 40.0069 317.128 39.9849 317.128 39.9409H330.873C330.873 39.9409 330.873 40.0069 330.873 40.0509C330.873 41.1728 331.777 42.0527 332.898 42.0527C334.018 42.0527 334.923 41.1508 334.923 40.0509C334.923 40.0069 334.923 39.9629 334.923 39.9189C336.517 39.7649 337.788 38.401 337.788 36.7511V14.115C337.788 12.3772 336.366 10.9473 334.621 10.9473M315.318 13.1691H333.113C333.673 13.1691 334.147 13.6311 334.147 14.203C334.147 14.775 333.695 15.2369 333.113 15.2369H315.275C314.693 15.2369 314.241 14.775 314.241 14.203C314.241 13.6311 314.693 13.1691 315.275 13.1691M314.585 37.1691C313.745 37.1691 313.077 36.4872 313.077 35.6732C313.077 34.8593 313.745 34.1554 314.585 34.1554C315.426 34.1554 316.093 34.8373 316.093 35.6732C316.093 36.5092 315.426 37.1691 314.585 37.1691ZM323.418 31.2736H315.102C314.004 31.2736 313.099 30.3717 313.099 29.2718V18.5587C313.099 17.4588 314.004 16.5348 315.102 16.5348H323.418V31.2736ZM333.393 37.1691C332.553 37.1691 331.885 36.4872 331.885 35.6732C331.885 34.8593 332.553 34.1554 333.393 34.1554C334.233 34.1554 334.901 34.8373 334.901 35.6732C334.901 36.5092 334.233 37.1691 333.393 37.1691ZM334.901 29.2498C334.901 30.3497 333.996 31.2516 332.898 31.2516H324.56V16.5128H332.898C333.996 16.5128 334.901 17.4148 334.901 18.5367V29.2498Z" fill="#65BC4B"/>
<path d="M307.77 58.1727C307.17 58.1727 306.614 58.0647 306.102 57.8487C305.59 57.6247 305.142 57.3167 304.758 56.9247C304.382 56.5327 304.09 56.0767 303.882 55.5567C303.674 55.0367 303.57 54.4807 303.57 53.8887C303.57 53.2887 303.674 52.7287 303.882 52.2087C304.09 51.6887 304.382 51.2367 304.758 50.8527C305.142 50.4607 305.586 50.1567 306.09 49.9407C306.602 49.7167 307.158 49.6047 307.758 49.6047C308.414 49.6047 308.99 49.7167 309.486 49.9407C309.982 50.1647 310.422 50.4687 310.806 50.8527L310.026 51.6327C309.762 51.3367 309.438 51.1047 309.054 50.9367C308.678 50.7687 308.246 50.6847 307.758 50.6847C307.318 50.6847 306.914 50.7647 306.546 50.9247C306.178 51.0767 305.858 51.2967 305.586 51.5847C305.314 51.8727 305.102 52.2127 304.95 52.6047C304.806 52.9967 304.734 53.4247 304.734 53.8887C304.734 54.3527 304.806 54.7807 304.95 55.1727C305.102 55.5647 305.314 55.9047 305.586 56.1927C305.858 56.4807 306.178 56.7047 306.546 56.8647C306.914 57.0167 307.318 57.0927 307.758 57.0927C308.278 57.0927 308.73 57.0087 309.114 56.8407C309.498 56.6647 309.822 56.4287 310.086 56.1327L310.866 56.9007C310.482 57.3007 310.03 57.6127 309.51 57.8367C308.998 58.0607 308.418 58.1727 307.77 58.1727ZM313.008 58.1727C312.784 58.1727 312.596 58.0967 312.444 57.9447C312.3 57.7847 312.228 57.5967 312.228 57.3807C312.228 57.1567 312.3 56.9727 312.444 56.8287C312.596 56.6767 312.784 56.6007 313.008 56.6007C313.232 56.6007 313.416 56.6767 313.56 56.8287C313.712 56.9727 313.788 57.1567 313.788 57.3807C313.788 57.5967 313.712 57.7847 313.56 57.9447C313.416 58.0967 313.232 58.1727 313.008 58.1727ZM320.208 58.1727C319.664 58.1727 319.168 58.0727 318.72 57.8727C318.28 57.6647 317.908 57.3647 317.604 56.9727L318.372 56.2047C318.556 56.4847 318.808 56.7087 319.128 56.8767C319.448 57.0367 319.804 57.1167 320.196 57.1167C320.564 57.1167 320.88 57.0487 321.144 56.9127C321.416 56.7687 321.628 56.5687 321.78 56.3127C321.94 56.0567 322.02 55.7607 322.02 55.4247C322.02 55.0807 321.94 54.7847 321.78 54.5367C321.628 54.2807 321.412 54.0847 321.132 53.9487C320.852 53.8127 320.52 53.7447 320.136 53.7447C319.992 53.7447 319.848 53.7567 319.704 53.7807C319.56 53.7967 319.42 53.8247 319.284 53.8647L319.764 53.2167C319.916 53.1447 320.08 53.0887 320.256 53.0487C320.432 53.0087 320.608 52.9887 320.784 52.9887C321.232 52.9887 321.632 53.0927 321.984 53.3007C322.344 53.5087 322.628 53.8007 322.836 54.1767C323.052 54.5527 323.16 54.9887 323.16 55.4847C323.16 56.0127 323.032 56.4807 322.776 56.8887C322.528 57.2887 322.184 57.6047 321.744 57.8367C321.304 58.0607 320.792 58.1727 320.208 58.1727ZM319.284 53.8647V53.1807L321.72 50.4087L323.064 50.3967L320.556 53.2407L319.284 53.8647ZM318 50.7327V49.7247H323.064V50.3967L322.08 50.7327H318ZM330.973 58.1727C330.381 58.1727 329.829 58.0647 329.317 57.8487C328.805 57.6247 328.357 57.3167 327.973 56.9247C327.589 56.5247 327.289 56.0647 327.073 55.5447C326.865 55.0247 326.761 54.4687 326.761 53.8767C326.761 53.2767 326.865 52.7207 327.073 52.2087C327.289 51.6887 327.585 51.2327 327.961 50.8407C328.345 50.4487 328.789 50.1447 329.293 49.9287C329.805 49.7127 330.357 49.6047 330.949 49.6047C331.541 49.6047 332.089 49.7127 332.593 49.9287C333.105 50.1447 333.553 50.4487 333.937 50.8407C334.321 51.2327 334.621 51.6887 334.837 52.2087C335.053 52.7287 335.161 53.2887 335.161 53.8887C335.161 54.4807 335.053 55.0367 334.837 55.5567C334.621 56.0767 334.321 56.5327 333.937 56.9247C333.561 57.3167 333.117 57.6247 332.605 57.8487C332.101 58.0647 331.557 58.1727 330.973 58.1727ZM330.949 57.0927C331.549 57.0927 332.073 56.9567 332.521 56.6847C332.977 56.4047 333.337 56.0247 333.601 55.5447C333.865 55.0567 333.997 54.5007 333.997 53.8767C333.997 53.4127 333.921 52.9887 333.769 52.6047C333.617 52.2127 333.405 51.8727 333.133 51.5847C332.861 51.2967 332.541 51.0767 332.173 50.9247C331.805 50.7647 331.397 50.6847 330.949 50.6847C330.357 50.6847 329.833 50.8207 329.377 51.0927C328.929 51.3647 328.573 51.7407 328.309 52.2207C328.053 52.7007 327.925 53.2527 327.925 53.8767C327.925 54.3407 327.997 54.7727 328.141 55.1727C328.293 55.5647 328.501 55.9047 328.765 56.1927C329.037 56.4727 329.357 56.6927 329.725 56.8527C330.101 57.0127 330.509 57.0927 330.949 57.0927ZM330.241 48.8727L329.749 48.3807L331.309 46.4487L332.161 47.3007L330.241 48.8727ZM341.605 58.1727C341.053 58.1727 340.557 58.0447 340.117 57.7887C339.685 57.5327 339.341 57.1887 339.085 56.7567C338.829 56.3247 338.701 55.8447 338.701 55.3167C338.701 54.5807 338.957 53.8487 339.469 53.1207L341.917 49.7247H343.225L340.717 53.1447L340.309 53.3607C340.405 53.1927 340.521 53.0527 340.657 52.9407C340.793 52.8207 340.961 52.7287 341.161 52.6647C341.361 52.6007 341.597 52.5687 341.869 52.5687C342.357 52.5687 342.797 52.6847 343.189 52.9167C343.589 53.1487 343.909 53.4687 344.149 53.8767C344.397 54.2767 344.521 54.7447 344.521 55.2807C344.521 55.8087 344.389 56.2927 344.125 56.7327C343.869 57.1727 343.517 57.5247 343.069 57.7887C342.629 58.0447 342.141 58.1727 341.605 58.1727ZM341.605 57.1167C341.941 57.1167 342.241 57.0367 342.505 56.8767C342.777 56.7087 342.989 56.4887 343.141 56.2167C343.301 55.9367 343.381 55.6247 343.381 55.2807C343.381 54.9367 343.301 54.6287 343.141 54.3567C342.989 54.0767 342.777 53.8567 342.505 53.6967C342.241 53.5367 341.941 53.4567 341.605 53.4567C341.269 53.4567 340.965 53.5367 340.693 53.6967C340.429 53.8567 340.217 54.0767 340.057 54.3567C339.905 54.6287 339.829 54.9367 339.829 55.2807C339.829 55.6247 339.905 55.9367 340.057 56.2167C340.217 56.4967 340.429 56.7167 340.693 56.8767C340.965 57.0367 341.269 57.1167 341.605 57.1167Z" fill="#65BC4B"/>
</svg>
