<svg width="212" height="217" viewBox="0 0 212 217" fill="none" xmlns="http://www.w3.org/2000/svg">
<path d="M145.366 116.192C145.213 107.109 146.722 98.938 149.016 90.8675C150.719 84.8676 153.299 79.1682 155.359 73.3018C156.807 69.1831 158.072 65.0199 158.979 60.7676C159.846 56.7269 160.509 52.6304 160.468 48.5006C160.428 44.9385 159.5 41.5545 157.338 38.5378C156.665 37.6027 156.512 37.9812 156.206 38.6714C154.87 41.688 153.534 44.7158 152.198 47.7325C150.413 51.7733 148.659 55.8252 146.854 59.8549C144.764 64.5413 142.765 69.2611 140.93 74.0477C138.676 79.9474 136.647 85.914 135.168 92.0363C134.209 95.9992 133.465 100.007 132.955 104.047C132.405 108.455 132.088 112.864 132.241 117.294C132.486 124.318 133.536 131.242 135.566 138.021C137.279 143.754 139.757 149.186 142.663 154.44C143.744 156.399 145.039 158.236 146.416 160.028C147.742 161.765 147.548 163.346 146.049 164.559C145.253 165.204 144.234 165.494 143.255 165.327C138.615 164.57 133.965 163.824 129.508 162.266C123.38 160.128 117.781 157.145 112.631 153.327C109.541 151.034 106.676 148.529 104.065 145.78C99.0074 140.47 94.9691 134.515 92.0016 127.88C90.217 123.906 88.7995 119.821 87.9123 115.602C87.3719 113.053 87.0048 110.459 86.7498 107.843C86.3419 103.758 85.8932 99.6615 86.0666 95.5539C86.2603 90.9232 86.6683 86.3036 87.4841 81.7062C89.1055 72.5226 92.3789 63.9067 97.0086 55.7584C99.7518 50.9161 103.046 46.3967 106.686 42.1222C109.643 38.6602 112.703 35.2762 116.119 32.215C119.576 29.1204 123.094 26.0704 126.867 23.2986C130.059 20.9498 133.067 18.3784 136.178 15.9295C139.471 13.3247 142.796 10.7421 146.08 8.13733C148.354 6.33401 150.577 4.48616 152.841 2.6717C156.552 -0.300437 161.437 -1.05736 165.577 1.75894C166.597 2.4491 167.474 3.32848 168.371 4.14109C172.838 8.20413 177.335 12.256 181.598 16.5194C187.431 22.3524 192.958 28.4303 197.516 35.2651C201.116 40.6528 204.114 46.3188 206.48 52.3076C208.53 57.5061 209.988 62.8381 210.916 68.3038C211.395 71.1201 211.681 73.9697 211.783 76.8417C211.844 78.6339 212.089 80.4372 211.966 82.2183C211.721 85.7804 211.528 89.3425 211.048 92.9046C209.957 100.975 207.765 108.767 204.95 116.426C201.391 126.11 196.619 135.205 190.429 143.598C187.676 147.338 184.565 150.8 181.282 154.151C179.13 156.344 176.907 158.425 174.368 160.151C171.217 162.299 167.811 163.568 163.905 161.976C161.641 161.052 159.907 159.461 158.51 157.635C154.003 151.757 151.189 145.09 148.884 138.21C147.375 133.724 146.416 129.127 145.814 124.452C145.427 121.468 145.325 118.485 145.355 116.181L145.366 116.192Z" fill="#71A842"/>
<path d="M146.263 187.29C141.868 187.29 138.329 187.134 134.811 187.323C129.141 187.635 123.471 187.624 117.822 187.468C113.794 187.357 109.766 187.412 105.748 187.267C101.832 187.123 97.9162 186.922 94.0207 186.544C87.7186 185.932 81.4471 185.119 75.2572 183.739C67.4866 182.013 60.0015 179.598 52.7306 176.47C46.918 173.965 41.4929 170.859 36.4349 167.186C32.0091 163.969 28.0524 160.262 24.4833 156.155C20.9141 152.036 17.8956 147.605 15.4584 142.819C12.3073 136.619 10.1047 130.084 8.78916 123.283C8.09573 119.698 7.57565 116.103 7.25952 112.463C6.85162 107.799 6.67827 103.124 6.82103 98.4482C6.9434 94.3073 7.19834 90.1663 7.58585 86.0476C7.91218 82.6191 8.1977 79.2017 8.02434 75.7731C7.60624 67.4689 5.92365 59.443 1.59987 52.0962C0.886034 50.8828 0.34555 49.5915 0.0906095 48.2224C-0.429468 45.5174 1.34492 43.9033 3.9861 44.2372C6.5559 44.56 9.07469 45.2947 11.6241 45.7511C15.6929 46.4747 19.772 47.1203 23.851 47.7882C28.9091 48.6119 33.9568 49.458 38.9639 50.5043C44.9906 51.7622 50.8951 53.432 56.5854 55.7362C61.8473 57.8623 66.7421 60.5451 71.1679 64.0293C73.8499 66.1443 75.9302 68.6934 77.6026 71.532C78.8569 73.6581 79.5911 76.0403 79.9786 78.4781C80.4375 81.4168 80.3356 84.3445 79.7441 87.261C79.4178 88.8862 78.7549 89.6097 77.368 89.721C76.022 89.8324 75.1042 89.2201 74.5025 87.7062C73.0952 84.133 71.2087 80.7935 68.9754 77.6321C63.4177 69.7954 55.9837 64.263 46.6631 61.0237C42.788 59.6768 38.8313 58.8196 34.7421 58.3632C31.9989 58.0627 29.2558 57.8846 26.5024 57.918C24.0244 57.9514 23.1678 59.0423 23.9326 61.2686C25.3501 65.3984 26.4412 69.6173 27.1653 73.903C27.6446 76.7527 28.0524 79.6247 28.2666 82.5189C28.5113 85.7693 28.8784 89.0086 29.0212 92.2702C29.164 95.5206 29.4495 98.7822 29.7656 102.021C30.5203 109.825 31.7134 117.55 34.12 125.086C35.5171 129.439 37.1895 133.691 39.3106 137.765C42.013 142.952 45.2354 147.806 49.1615 152.281C54.658 158.548 61.1743 163.535 68.6491 167.475C74.1252 170.359 79.9175 172.44 85.9544 173.887C89.4828 174.733 93.0723 175.312 96.6823 175.791C104.871 176.87 113.08 176.37 121.289 176.47C126.673 176.537 132.058 176.525 137.442 176.47C140.797 176.436 144.152 176.614 147.487 176.781C155.278 177.182 163.059 177.794 170.656 179.631C176.978 181.156 182.944 183.516 188.032 187.501C192.295 190.852 195.334 195.037 196.282 200.325C196.945 203.998 196.955 207.738 195.263 211.2C193.886 214.017 191.398 215.686 188.145 216.232C186.36 216.532 184.626 216.455 182.862 216.009C180.262 215.364 179.252 213.349 179.212 211.223C179.161 208.429 179.436 205.623 179.405 202.829C179.354 198.711 178.049 195.037 174.786 192.154C172.44 190.073 169.595 188.937 166.526 188.292C164.007 187.768 161.417 187.69 158.847 187.49C154.35 187.145 149.863 187.49 146.243 187.312L146.263 187.29Z" fill="#71A842"/>
</svg>
