<svg width="1478" height="719" viewBox="0 0 1478 719" fill="none" xmlns="http://www.w3.org/2000/svg">
<rect width="1478" height="719" fill="#4B4949"/>
<rect width="1478" height="719" fill="#6EA93A"/>
<path d="M1232 379C1232 568.986 1003.81 609 736.5 609C469.194 609 264 568.986 264 379C264 189.014 480.694 35 748 35C1015.31 35 1232 189.014 1232 379Z" fill="#82B451"/>
<path d="M124.45 252.213C137.685 225.366 164.801 208.153 194.728 207.601L227.673 206.993C260.216 206.393 289.879 225.569 302.691 255.49L359 387H58L124.45 252.213Z" fill="#669A33"/>
<path d="M536.005 363.793C546.548 336.498 572.794 318.5 602.055 318.5V318.5C631.509 318.5 657.887 336.734 668.294 364.289L695 435H508.5L536.005 363.793Z" fill="#669A33"/>
<path d="M960.564 308.374C968.841 293.051 984.855 283.5 1002.27 283.5V283.5C1017.49 283.5 1031.78 290.805 1040.69 303.138L1076 352H937L960.564 308.374Z" fill="#669A33"/>
<path d="M1410.5 187C1412.63 187 1414.73 187.096 1416.82 187.28V222H1417C1416.88 223.597 1416.82 225.209 1416.82 226.836V433H1299.82L1340.86 243.188C1347.95 210.401 1376.95 187 1410.5 187Z" fill="#669A33"/>
<rect x="401" y="300.613" width="65.8209" height="135.169" fill="#C8D5C6"/>
<rect x="466.821" y="300.613" width="39.1791" height="135.169" fill="#6A7368"/>
<rect x="408.836" y="315.226" width="7.83582" height="121.774" fill="#A3B99F"/>
<rect x="421.373" y="315.226" width="7.83582" height="120.556" fill="#A3B99F"/>
<rect x="433.91" y="315.226" width="7.83582" height="119.339" fill="#A3B99F"/>
<rect x="448.015" y="315.226" width="7.83582" height="118.121" fill="#A3B99F"/>
<rect x="401" y="292.089" width="105" height="8.52419" fill="#7E9C64"/>
<rect x="410.403" y="286" width="86.194" height="6.08871" fill="#6A7368"/>
<rect x="911" y="303" width="42" height="111" fill="#C8D5C6"/>
<rect x="953" y="303" width="25" height="111" fill="#6A7368"/>
<rect x="916" y="315" width="5" height="100" fill="#A3B99F"/>
<rect x="924" y="315" width="5" height="99" fill="#A3B99F"/>
<rect x="932" y="315" width="5" height="98" fill="#A3B99F"/>
<rect x="941" y="315" width="5" height="97" fill="#A3B99F"/>
<rect x="952" y="371" width="117" height="112" fill="#4E7725"/>
<rect x="1069" y="371" width="52" height="112" fill="#426824"/>
<rect x="962" y="379" width="18" height="22.5366" fill="#6EA838"/>
<rect x="989" y="379" width="18" height="22.5366" fill="#6EA838"/>
<rect x="1016" y="379" width="18" height="22.5366" fill="#6EA838"/>
<rect x="1043" y="379" width="18" height="22.5366" fill="#6EA838"/>
<rect x="1074" y="379" width="18" height="22.5366" fill="#5F8F32"/>
<rect x="1101" y="379" width="18" height="22.5366" fill="#5F8F32"/>
<rect x="962" y="408.707" width="18" height="22.5366" fill="#6EA838"/>
<rect x="989" y="408.707" width="18" height="22.5366" fill="#6EA838"/>
<rect x="1016" y="408.707" width="18" height="22.5366" fill="#6EA93A"/>
<rect x="1043" y="408.707" width="18" height="22.5366" fill="#6EA838"/>
<rect x="1074" y="408.707" width="18" height="22.5366" fill="#5F8F32"/>
<rect x="1101" y="408.707" width="18" height="22.5366" fill="#5F8F32"/>
<rect x="962" y="437.39" width="18" height="24.5854" fill="#6EA838"/>
<rect x="989" y="437.39" width="18" height="24.5854" fill="#6EA838"/>
<rect x="1016" y="437.39" width="18" height="25.6098" fill="#6EA838"/>
<rect x="1043" y="437.39" width="18" height="25.6098" fill="#6EA838"/>
<rect x="1074" y="437.39" width="18" height="25.6098" fill="#5F8F32"/>
<rect x="1101" y="437.39" width="18" height="24.5854" fill="#5F8F32"/>
<rect x="952" y="507" width="117" height="109" fill="#53862A"/>
<rect x="1069" y="507" width="52" height="109" fill="#426824"/>
<rect x="962" y="514.786" width="18" height="21.9329" fill="#6EA838"/>
<rect x="989" y="514.786" width="18" height="21.9329" fill="#6EA838"/>
<rect x="1016" y="514.786" width="18" height="21.9329" fill="#6EA838"/>
<rect x="1043" y="514.786" width="18" height="21.9329" fill="#6EA838"/>
<rect x="1074" y="514.786" width="18" height="21.9329" fill="#5F8F32"/>
<rect x="1101" y="514.786" width="18" height="21.9329" fill="#5F8F32"/>
<rect x="962" y="543.697" width="18" height="21.9329" fill="#6EA838"/>
<rect x="989" y="543.697" width="18" height="21.9329" fill="#6EA838"/>
<rect x="1016" y="543.697" width="18" height="21.9329" fill="#6EA838"/>
<rect x="1043" y="543.697" width="18" height="21.9329" fill="#6EA838"/>
<rect x="1074" y="543.697" width="18" height="21.9329" fill="#5F8F32"/>
<rect x="1101" y="543.697" width="18" height="21.9329" fill="#5F8F32"/>
<rect x="962" y="571.612" width="18" height="23.9268" fill="#6EA838"/>
<rect x="989" y="571.612" width="18" height="23.9268" fill="#6EA838"/>
<rect x="1016" y="571.612" width="18" height="24.9238" fill="#6EA838"/>
<rect x="1043" y="571.612" width="18" height="24.9238" fill="#6EA838"/>
<rect x="1074" y="571.612" width="18" height="24.9238" fill="#5F8F32"/>
<rect x="1101" y="571.612" width="18" height="23.9268" fill="#5F8F32"/>
<rect x="952" y="347" width="169" height="24" fill="#364518"/>
<rect x="952" y="483" width="169" height="24" fill="#364518"/>
<rect x="997" y="307" width="65" height="40" fill="#58832E"/>
<rect x="1062" y="307" width="37" height="40" fill="#445C22"/>
<rect x="1023" y="295" width="56" height="12" fill="#455B1F"/>
<rect x="1048" y="257" width="7" height="38" fill="#405F19"/>
<rect x="1049" y="256" width="5" height="1" fill="#405F19"/>
<rect x="1050" y="255" width="3" height="1" fill="#405F19"/>
<rect x="1024" y="294" width="54" height="1" fill="#405F19"/>
<rect x="1028" y="293" width="46" height="1" fill="#405F19"/>
<rect x="952" y="371" width="117" height="117.943" fill="#4E7725"/>
<rect x="1069" y="371" width="52" height="117.943" fill="#426824"/>
<rect x="962" y="379.424" width="18" height="23.7324" fill="#6EA838"/>
<rect x="989" y="379.424" width="18" height="23.7324" fill="#6EA838"/>
<rect x="1016" y="379.424" width="18" height="23.7324" fill="#6EA838"/>
<rect x="1043" y="379.424" width="18" height="23.7324" fill="#6EA838"/>
<rect x="1074" y="379.424" width="18" height="23.7324" fill="#5F8F32"/>
<rect x="1101" y="379.424" width="18" height="23.7324" fill="#5F8F32"/>
<rect x="962" y="410.708" width="18" height="23.7324" fill="#6EA838"/>
<rect x="989" y="410.708" width="18" height="23.7324" fill="#6EA838"/>
<rect x="1016" y="410.708" width="18" height="23.7324" fill="#6EA93A"/>
<rect x="1043" y="410.708" width="18" height="23.7324" fill="#6EA838"/>
<rect x="1074" y="410.708" width="18" height="23.7324" fill="#5F8F32"/>
<rect x="1101" y="410.708" width="18" height="23.7324" fill="#5F8F32"/>
<rect x="962" y="440.913" width="18" height="25.8899" fill="#6EA838"/>
<rect x="989" y="440.913" width="18" height="25.8899" fill="#6EA838"/>
<rect x="1016" y="440.913" width="18" height="26.9686" fill="#6EA838"/>
<rect x="1043" y="440.913" width="18" height="26.9686" fill="#6EA838"/>
<rect x="1074" y="440.913" width="18" height="26.9686" fill="#5F8F32"/>
<rect x="1101" y="440.913" width="18" height="25.8899" fill="#5F8F32"/>
<rect x="952" y="514.216" width="117" height="114.784" fill="#53862A"/>
<rect x="1069" y="514.216" width="52" height="114.784" fill="#426824"/>
<rect x="962" y="522.415" width="18" height="23.0967" fill="#6EA838"/>
<rect x="989" y="522.415" width="18" height="23.0967" fill="#6EA838"/>
<rect x="1016" y="522.415" width="18" height="23.0967" fill="#6EA838"/>
<rect x="1043" y="522.415" width="18" height="23.0967" fill="#6EA838"/>
<rect x="1074" y="522.415" width="18" height="23.0967" fill="#5F8F32"/>
<rect x="1101" y="522.415" width="18" height="23.0967" fill="#5F8F32"/>
<rect x="962" y="552.861" width="18" height="23.0967" fill="#6EA838"/>
<rect x="989" y="552.861" width="18" height="23.0967" fill="#6EA838"/>
<rect x="1016" y="552.861" width="18" height="23.0967" fill="#6EA838"/>
<rect x="1043" y="552.861" width="18" height="23.0967" fill="#6EA838"/>
<rect x="1074" y="552.861" width="18" height="23.0967" fill="#5F8F32"/>
<rect x="1101" y="552.861" width="18" height="23.0967" fill="#5F8F32"/>
<rect x="962" y="582.257" width="18" height="25.1964" fill="#6EA838"/>
<rect x="989" y="582.257" width="18" height="25.1964" fill="#6EA838"/>
<rect x="1016" y="582.257" width="18" height="26.2463" fill="#6EA838"/>
<rect x="1043" y="582.257" width="18" height="26.2463" fill="#6EA838"/>
<rect x="1074" y="582.257" width="18" height="26.2463" fill="#5F8F32"/>
<rect x="1101" y="582.257" width="18" height="25.1964" fill="#5F8F32"/>
<rect x="952" y="347" width="169" height="24" fill="#364518"/>
<rect x="952" y="483" width="169" height="24" fill="#364518"/>
<rect x="997" y="307" width="65" height="40" fill="#58832E"/>
<rect x="1062" y="307" width="37" height="40" fill="#445C22"/>
<rect x="1023" y="295" width="56" height="12" fill="#455B1F"/>
<rect x="1048" y="257" width="7" height="38" fill="#405F19"/>
<rect x="1049" y="256" width="5" height="1" fill="#405F19"/>
<rect x="1050" y="255" width="3" height="1" fill="#405F19"/>
<rect x="1024" y="294" width="54" height="1" fill="#405F19"/>
<rect x="1028" y="293" width="46" height="1" fill="#405F19"/>
<rect x="1261" y="181.821" width="51.403" height="135.851" fill="#C8D5C6"/>
<rect x="1312.4" y="181.821" width="30.597" height="135.851" fill="#6A7368"/>
<rect x="1267.12" y="196.507" width="6.1194" height="122.388" fill="#A3B99F"/>
<rect x="1276.91" y="196.507" width="6.1194" height="121.164" fill="#A3B99F"/>
<rect x="1286.7" y="196.507" width="6.1194" height="119.94" fill="#A3B99F"/>
<rect x="1297.72" y="196.507" width="6.1194" height="118.716" fill="#A3B99F"/>
<rect x="1264.67" y="176.925" width="74.6567" height="4.89552" fill="#A3B99F"/>
<rect x="1275.69" y="173.254" width="52.6269" height="3.67164" fill="#D9D9D9"/>
<rect x="1297.72" y="150" width="7.34328" height="23.2537" fill="#A6C89F"/>
<path d="M1252 307.001L1411 286.501V584.001H1252V307.001Z" fill="#4E7725"/>
<path d="M1281 321.001H1316V381.001H1281V321.001Z" fill="#6EA93A" stroke="#445F1F" stroke-width="3" stroke-linejoin="round"/>
<path d="M1282 369.388H1315V373.259H1282V369.388Z" fill="#445F1F"/>
<path d="M1395.5 320.501V370.501H1330.5V320.501H1395.5Z" fill="#6EA93A" stroke="#445F1F" stroke-width="3"/>
<rect x="1364" y="321.001" width="4" height="49" fill="#445F1F"/>
<path d="M1285 302.616L1289.96 302.001L1290.27 304.481C1290.44 305.852 1289.47 307.1 1288.1 307.27C1286.73 307.44 1285.48 306.467 1285.31 305.097L1285 302.616Z" fill="#425E20"/>
<path d="M1285 303.068L1292.07 302.001L1292.29 303.408C1292.58 305.361 1291.24 307.183 1289.28 307.478C1287.33 307.773 1285.51 306.428 1285.21 304.475L1285 303.068Z" fill="#425E20"/>
<path d="M1336 296.806L1343 296L1343.19 297.386C1343.45 299.352 1342.05 301.152 1340.08 301.376C1338.14 301.595 1336.38 300.2 1336.16 298.258L1336 296.806Z" fill="#425E20"/>
<path d="M1391 289.484L1398.03 289.008L1398.15 290.4C1398.33 292.377 1396.84 294.109 1394.86 294.24C1392.91 294.369 1391.23 292.892 1391.1 290.942L1391 289.484Z" fill="#425E20"/>
<path d="M1252 306.378L1274 304V531H1252V306.378Z" fill="#445B20"/>
<path d="M1409 287.501L1412 287.001V508.001H1409V287.501Z" fill="#445B20"/>
<path d="M1274 380H1412.5C1414.99 380 1417 382.015 1417 384.5C1417 386.986 1414.99 389 1412.5 389H1274V380Z" fill="#425E21"/>
<rect x="1388" y="407" width="12" height="4" fill="#466224"/>
<rect x="1382" y="411" width="12" height="4" fill="#466224"/>
<rect width="12" height="4" transform="matrix(-1 0 0 1 1327 433)" fill="#466224"/>
<rect width="12" height="4" transform="matrix(-1 0 0 1 1333 437)" fill="#466224"/>
<rect width="12" height="4" transform="matrix(-1 0 0 1 1376 453)" fill="#466224"/>
<rect width="12" height="4" transform="matrix(-1 0 0 1 1322 487)" fill="#466224"/>
<path d="M1243.49 304.631C1243.22 302.511 1244.72 300.575 1246.84 300.308L1411.95 279.485C1414.07 279.217 1416 280.719 1416.27 282.84C1416.54 284.96 1415.04 286.895 1412.92 287.163L1247.81 307.986C1245.69 308.253 1243.75 306.751 1243.49 304.631Z" fill="#425E20"/>
<path d="M1246.9 300.804L1412.01 279.981C1413.86 279.748 1415.54 281.056 1415.78 282.902C1416.01 284.748 1414.7 286.434 1412.85 286.667L1247.75 307.49C1245.9 307.723 1244.22 306.414 1243.98 304.568C1243.75 302.722 1245.06 301.037 1246.9 300.804Z" stroke="black" stroke-opacity="0.02"/>
<path d="M1120 273.151L1252 248V613H1120V273.151Z" fill="#4E7725"/>
<path d="M1148 268.932L1153.87 268L1154.07 269.378C1154.3 271.003 1153.18 272.529 1151.55 272.786V272.786C1149.93 273.044 1148.43 271.935 1148.2 270.31L1148 268.932Z" fill="#425E20"/>
<path d="M1189 261.714L1194.81 261.011L1194.99 262.376C1195.2 264.01 1194.02 265.512 1192.39 265.707V265.707C1190.78 265.9 1189.33 264.747 1189.15 263.132L1189 261.714Z" fill="#425E20"/>
<path d="M1234 252.422L1239.84 252.006L1239.95 253.381C1240.09 255.022 1238.85 256.464 1237.21 256.578V256.578C1235.59 256.691 1234.19 255.469 1234.09 253.849L1234 252.422Z" fill="#425E20"/>
<path d="M1144.41 282.29H1229.41V371.571H1144.41V282.29Z" fill="#445F1F"/>
<path d="M1147.41 286.302H1183.41V340.473H1147.41V286.302Z" fill="#6EA93A"/>
<rect width="12" height="4.01264" transform="matrix(-1 0 0 1 1245.41 390.631)" fill="#466224"/>
<rect width="12" height="4.01264" transform="matrix(-1 0 0 1 1169.41 403.672)" fill="#466224"/>
<rect width="12" height="4.01264" transform="matrix(-1 0 0 1 1175.41 407.684)" fill="#466224"/>
<path d="M1188.41 286.302H1226.41V340.473H1188.41V286.302Z" fill="#6EA93A"/>
<rect x="1147.41" y="346.492" width="79" height="20.0632" fill="#5F8F34"/>
<path d="M1110.71 272.781C1110.32 270.571 1111.79 268.441 1113.99 268.022L1252.29 241.758C1254.5 241.339 1256.6 242.791 1256.99 245.001V245.001C1257.38 247.211 1255.91 249.342 1253.71 249.76L1115.41 276.024C1113.2 276.443 1111.1 274.991 1110.71 272.781V272.781Z" fill="#425E20"/>
<path d="M1114.08 268.514L1252.38 242.25C1254.31 241.883 1256.16 243.157 1256.5 245.095C1256.84 247.032 1255.55 248.901 1253.62 249.268L1115.32 275.532C1113.39 275.899 1111.54 274.626 1111.2 272.688C1110.86 270.75 1112.15 268.881 1114.08 268.514Z" stroke="black" stroke-opacity="0.02"/>
<rect x="713" y="209" width="73.5" height="194.25" fill="#C8D5C6"/>
<rect x="786.5" y="209" width="43.75" height="194.25" fill="#6A7368"/>
<path d="M808.375 158.25L830.25 209H808.375H786.5L808.375 158.25Z" fill="#7C847A"/>
<path d="M737.5 158.25L713 209H786.5L808.375 158.25H737.5Z" fill="#D5E5D3"/>
<rect x="741" y="135.5" width="24.5" height="5.25" fill="#D9D9D9"/>
<rect x="741" y="140.75" width="24.5" height="5.25" fill="#2A5012"/>
<rect x="807.5" y="140.75" width="24.5" height="3.5" fill="#EEFF07" fill-opacity="0.74"/>
<rect x="807.5" y="144.25" width="24.5" height="3.5" fill="#1C16C9" fill-opacity="0.6"/>
<rect x="807.5" y="147.75" width="24.5" height="3.5" fill="#FA0000" fill-opacity="0.64"/>
<path d="M739.25 135.5H741V158.25H740.125H739.25V135.5Z" fill="#828282"/>
<rect x="805.75" y="140.75" width="1.75" height="17.5" fill="#828282"/>
<rect x="721.75" y="230" width="8.75" height="175" fill="#A3B99F"/>
<rect x="735.75" y="230" width="8.75" height="173.25" fill="#A3B99F"/>
<rect x="749.75" y="230" width="8.75" height="171.5" fill="#A3B99F"/>
<rect x="765.5" y="230" width="8.75" height="169.75" fill="#A3B99F"/>
<path d="M554 426.43L761 402V629H554V426.43Z" fill="#4E7725"/>
<path d="M604.971 420.934L613.667 419.898C614.201 422.257 612.693 424.425 610.292 424.711C607.891 424.997 605.505 423.293 604.971 420.934Z" fill="#425E20"/>
<path d="M667.682 414.711L676.29 413.904C676.772 416.268 675.16 418.408 672.764 418.629C670.387 418.849 668.099 417.123 667.692 414.77L667.682 414.711Z" fill="#425E20"/>
<path d="M735.306 407.505L743.954 406.984C744.28 409.361 742.527 411.447 740.135 411.588C737.746 411.729 735.558 409.884 735.306 407.505Z" fill="#425E20"/>
<path d="M648.945 453H741.781V520H648.945V453Z" fill="#445F1F" fill-opacity="0.75"/>
<rect width="12.1091" height="4" transform="matrix(-1 0 0 1 727.055 508.16)" fill="#466224"/>
<rect width="12.1091" height="4" transform="matrix(-1 0 0 1 586.381 541)" fill="#466224"/>
<rect width="12.1091" height="4" transform="matrix(-1 0 0 1 592.436 545)" fill="#466224"/>
<rect x="729.672" y="567" width="12.1091" height="4" fill="#466224"/>
<rect x="723.618" y="571" width="12.1091" height="4" fill="#466224"/>
<path d="M544.748 423.932C544.386 422.045 545.643 420.358 547.554 420.164L762.239 398.352C764.151 398.157 765.993 399.53 766.354 401.416C766.716 403.303 765.459 404.99 763.548 405.184L548.863 426.996C546.951 427.191 545.109 425.818 544.748 423.932Z" fill="#425E20"/>
<path d="M547.648 420.655L762.333 398.843C763.97 398.676 765.547 399.851 765.857 401.467C766.166 403.083 765.09 404.527 763.454 404.693L548.769 426.505C547.132 426.672 545.555 425.497 545.245 423.881C544.936 422.266 546.012 420.821 547.648 420.655Z" stroke="black" stroke-opacity="0.02"/>
<rect x="653.99" y="458" width="38.3455" height="57" fill="#6EA93A"/>
<rect width="37.3364" height="57" transform="matrix(-1 0 0 1 736.736 458)" fill="#6EA93A"/>
<rect x="578.308" y="446" width="44.4001" height="81" fill="#466320"/>
<rect x="583.354" y="451" width="34.3091" height="55" fill="#6EA93A"/>
<path d="M583 509H617V522H583V509Z" fill="#6EA93A"/>
<rect x="759" y="362" width="167" height="267" fill="#56842C"/>
<rect x="925" y="362" width="27" height="267" fill="#465A25"/>
<rect x="785.5" y="380.5" width="40" height="54" fill="#669C35" stroke="#46601D" stroke-width="3"/>
<rect x="860.5" y="380.5" width="40" height="54" fill="#669C35" stroke="#46601D" stroke-width="3"/>
<rect x="785.5" y="465.5" width="40" height="54" fill="#669C35" stroke="#46601D" stroke-width="3"/>
<rect x="860.5" y="465.5" width="40" height="54" fill="#669C35" stroke="#46601D" stroke-width="3"/>
<rect x="785.5" y="557.5" width="40" height="54" fill="#669C35" stroke="#46601D" stroke-width="3"/>
<rect x="860.5" y="557.5" width="40" height="54" fill="#669C35" stroke="#46601D" stroke-width="3"/>
<rect x="780" y="433" width="49" height="7" fill="#4A6B21"/>
<path d="M855 433H904V440H855V433Z" fill="#4A6B21"/>
<path d="M780 517.5H829V524.5H780V517.5Z" fill="#4A6B21"/>
<rect x="855" y="518" width="49" height="7" fill="#4A6B21"/>
<rect x="780" y="610" width="49" height="7" fill="#4A6B21"/>
<rect x="855" y="610" width="49" height="7" fill="#4A6B21"/>
<rect x="761" y="480" width="15" height="5" fill="#425E20"/>
<rect x="767" y="485" width="15" height="5" fill="#425E20"/>
<rect x="783" y="324" width="109" height="38" fill="#465B20"/>
<rect x="892" y="324" width="25" height="38" fill="#344318"/>
<path d="M943 344C945.761 344 948 346.239 948 349V362H765V349C765 346.239 767.239 344 770 344H943ZM770 347C768.895 347 768 347.895 768 349V357C768 358.105 768.895 359 770 359H775C776.105 359 777 358.105 777 357V349C777 347.895 776.105 347 775 347H770ZM782 347C780.895 347 780 347.895 780 349V357C780 358.105 780.895 359 782 359H787C788.105 359 789 358.105 789 357V349C789 347.895 788.105 347 787 347H782ZM794 347C792.895 347 792 347.895 792 349V357C792 358.105 792.895 359 794 359H799C800.105 359 801 358.105 801 357V349C801 347.895 800.105 347 799 347H794ZM806 347C804.895 347 804 347.895 804 349V357C804 358.105 804.895 359 806 359H811C812.105 359 813 358.105 813 357V349C813 347.895 812.105 347 811 347H806ZM818 347C816.895 347 816 347.895 816 349V357C816 358.105 816.895 359 818 359H823C824.105 359 825 358.105 825 357V349C825 347.895 824.105 347 823 347H818ZM830 347C828.895 347 828 347.895 828 349V357C828 358.105 828.895 359 830 359H835C836.105 359 837 358.105 837 357V349C837 347.895 836.105 347 835 347H830ZM842 347C840.895 347 840 347.895 840 349V357C840 358.105 840.895 359 842 359H847C848.105 359 849 358.105 849 357V349C849 347.895 848.105 347 847 347H842ZM854 347C852.895 347 852 347.895 852 349V357C852 358.105 852.895 359 854 359H859C860.105 359 861 358.105 861 357V349C861 347.895 860.105 347 859 347H854ZM866 347C864.895 347 864 347.895 864 349V357C864 358.105 864.895 359 866 359H871C872.105 359 873 358.105 873 357V349C873 347.895 872.105 347 871 347H866ZM878 347C876.895 347 876 347.895 876 349V357C876 358.105 876.895 359 878 359H883C884.105 359 885 358.105 885 357V349C885 347.895 884.105 347 883 347H878ZM890 347C888.895 347 888 347.895 888 349V357C888 358.105 888.895 359 890 359H895C896.105 359 897 358.105 897 357V349C897 347.895 896.105 347 895 347H890ZM902 347C900.895 347 900 347.895 900 349V357C900 358.105 900.895 359 902 359H907C908.105 359 909 358.105 909 357V349C909 347.895 908.105 347 907 347H902ZM914 347C912.895 347 912 347.895 912 349V357C912 358.105 912.895 359 914 359H919C920.105 359 921 358.105 921 357V349C921 347.895 920.105 347 919 347H914ZM926 347C924.895 347 924 347.895 924 349V357C924 358.105 924.895 359 926 359H931C932.105 359 933 358.105 933 357V349C933 347.895 932.105 347 931 347H926ZM938 347C936.895 347 936 347.895 936 349V357C936 358.105 936.895 359 938 359H943C944.105 359 945 358.105 945 357V349C945 347.895 944.105 347 943 347H938Z" fill="#4D7625"/>
<rect x="41" y="345" width="321" height="284" fill="#56842C"/>
<rect x="362" y="345" width="26" height="284" fill="#425E1F"/>
<path d="M41 324H362V345H41V324Z" fill="#445C22"/>
<path d="M362 324H388V345H362V324Z" fill="#364718"/>
<path d="M75 377H119V436H75V377Z" fill="#6EA93A"/>
<path d="M165 376H215V435H165V376Z" fill="#6EA93A"/>
<path d="M223 376H314V435H223V376Z" fill="#6EA93A"/>
<rect x="72" y="435" width="50" height="5" fill="#4A6A20"/>
<path d="M75 493H119V552H75V493Z" fill="#6EA93A"/>
<rect x="72" y="551" width="50" height="5" fill="#4A6A20"/>
<rect x="156" y="441" width="167" height="39" fill="#4A6A25"/>
<rect x="150" y="435" width="179" height="7" fill="#4A6A25"/>
<path d="M165 493H215V552H165V493Z" fill="#6EA93A"/>
<path d="M223 493H314V552H223V493Z" fill="#6EA93A"/>
<rect x="156" y="558" width="167" height="39" fill="#4A6A25"/>
<rect x="150" y="552" width="179" height="7" fill="#4A6A25"/>
<rect x="337" y="388" width="17" height="7" fill="#496D23"/>
<rect x="343" y="395" width="17" height="7" fill="#486B22"/>
<rect x="45" y="559" width="17" height="7" fill="#496D23"/>
<rect x="51" y="566" width="17" height="7" fill="#486B22"/>
<rect x="344" y="465" width="17" height="7" fill="#486B22"/>
<path d="M386.367 430L556.046 406V629H386.367V430Z" fill="#56842C"/>
<path d="M428.413 424.934L435.528 423.898L435.669 424.658C436.031 426.611 434.732 428.425 432.767 428.711C430.802 428.997 428.916 427.647 428.554 425.694L428.413 424.934Z" fill="#425E20"/>
<path d="M479.726 418.711L486.769 417.904L486.89 418.625C487.219 420.597 485.855 422.407 483.87 422.631C481.92 422.851 480.115 421.454 479.839 419.511L479.726 418.711Z" fill="#425E20"/>
<path d="M535.059 411.505L542.136 410.984L542.216 411.702C542.439 413.69 540.979 415.446 538.985 415.59C537.025 415.731 535.299 414.258 535.128 412.301L535.059 411.505Z" fill="#425E20"/>
<rect width="9.90826" height="4" transform="matrix(-1 0 0 1 528.308 512.16)" fill="#466224"/>
<rect width="9.90826" height="4" transform="matrix(-1 0 0 1 413.202 545)" fill="#466224"/>
<rect width="9.90826" height="4" transform="matrix(-1 0 0 1 418.156 549)" fill="#466224"/>
<rect x="530.45" y="571" width="9.90826" height="4" fill="#466224"/>
<rect x="525.495" y="575" width="9.90826" height="4" fill="#466224"/>
<path d="M379.764 427.854C379.468 425.967 380.765 424.246 382.66 424.011L559.446 402.06C561.341 401.825 563.118 403.163 563.413 405.05C563.709 406.937 562.412 408.657 560.517 408.893L383.731 430.844C381.835 431.079 380.059 429.74 379.764 427.854Z" fill="#425E20"/>
<path d="M382.737 424.505L559.523 402.554C561.144 402.353 562.664 403.498 562.917 405.112C563.17 406.726 562.06 408.197 560.439 408.399L383.653 430.35C382.032 430.551 380.513 429.406 380.26 427.792C380.007 426.178 381.116 424.706 382.737 424.505Z" stroke="black" stroke-opacity="0.02"/>
<rect x="416" y="443" width="94" height="89" fill="#445F1F"/>
<rect x="420" y="446" width="86" height="54" fill="#6EA93A"/>
<rect x="420" y="521" width="6" height="6" fill="#5F8F34"/>
<rect x="420" y="512" width="6" height="6" fill="#5F8F34"/>
<rect x="420" y="503" width="6" height="6" fill="#5F8F34"/>
<rect x="430" y="521" width="6" height="6" fill="#5F8F34"/>
<rect x="430" y="512" width="6" height="6" fill="#5F8F34"/>
<rect x="430" y="503" width="6" height="6" fill="#5F8F34"/>
<rect x="440" y="521" width="6" height="6" fill="#5F8F34"/>
<rect x="440" y="512" width="6" height="6" fill="#5F8F34"/>
<rect x="440" y="503" width="6" height="6" fill="#5F8F34"/>
<rect x="450" y="521" width="6" height="6" fill="#5F8F34"/>
<rect x="450" y="512" width="6" height="6" fill="#5F8F34"/>
<rect x="450" y="503" width="6" height="6" fill="#5F8F34"/>
<rect x="460" y="521" width="6" height="6" fill="#5F8F34"/>
<rect x="460" y="512" width="6" height="6" fill="#5F8F34"/>
<rect x="460" y="503" width="6" height="6" fill="#5F8F34"/>
<rect x="470" y="521" width="6" height="6" fill="#5F8F34"/>
<rect x="470" y="512" width="6" height="6" fill="#5F8F34"/>
<rect x="470" y="503" width="6" height="6" fill="#5F8F34"/>
<rect x="480" y="521" width="6" height="6" fill="#5F8F34"/>
<rect x="480" y="512" width="6" height="6" fill="#5F8F34"/>
<rect x="480" y="503" width="6" height="6" fill="#5F8F34"/>
<rect x="490" y="521" width="6" height="6" fill="#5F8F34"/>
<rect x="490" y="512" width="6" height="6" fill="#5F8F34"/>
<rect x="490" y="503" width="6" height="6" fill="#5F8F34"/>
<rect x="500" y="521" width="6" height="6" fill="#5F8F34"/>
<rect x="500" y="512" width="6" height="6" fill="#5F8F34"/>
<rect x="500" y="503" width="6" height="6" fill="#5F8F34"/>
<rect x="386" y="617" width="359" height="18" fill="#4A6A25"/>
<rect x="735" y="617" width="359" height="18" fill="#4A6A25"/>
<path d="M1235.75 459.938C1299.41 434.616 1362.94 425.842 1417 431.786V640.999H1030C1071.2 567.857 1148.87 494.494 1235.75 459.938Z" fill="#6EA93A"/>
<rect width="14.4647" height="6.3656" transform="matrix(0.83026 -0.557376 0.529368 0.848393 1237.15 534.77)" fill="#D7CCCC"/>
<rect x="1228.46" y="525.207" width="12.4038" height="29.5915" fill="#D7CCCC"/>
<ellipse cx="1235.29" cy="496.902" rx="29.1488" ry="29.5915" fill="#57832E"/>
<path d="M1232.18 544.506H1254.92C1258.12 544.506 1260.71 547.098 1260.71 550.295V550.295C1260.71 553.493 1258.12 556.085 1254.92 556.085H1232.18V544.506Z" fill="#313131" fill-opacity="0.11"/>
<path d="M1131.71 615.268H1154.45C1157.65 615.268 1160.24 617.86 1160.24 621.057V621.057C1160.24 624.255 1157.65 626.847 1154.45 626.847H1131.71V615.268Z" fill="#313131" fill-opacity="0.11"/>
<rect width="14.4647" height="6.3656" transform="matrix(0.83026 -0.557376 0.529368 0.848393 1136.68 609.178)" fill="#D7CCCC"/>
<rect x="1130.47" y="601.115" width="11.1634" height="25.7318" fill="#D7CCCC"/>
<ellipse cx="1136.68" cy="577.957" rx="24.8075" ry="24.4452" fill="#57832E"/>
<path d="M1307.85 522.633H1330.59C1333.78 522.633 1336.38 525.226 1336.38 528.423V528.423C1336.38 531.621 1333.78 534.213 1330.59 534.213H1307.85V522.633Z" fill="#313131" fill-opacity="0.11"/>
<rect x="1307.85" y="512.341" width="11.1634" height="21.872" fill="#D7CCCC"/>
<ellipse cx="1312.81" cy="489.825" rx="23.5671" ry="23.8019" fill="#57832E"/>
<ellipse cx="1312.81" cy="460.877" rx="17.3653" ry="18.0122" fill="#57832E"/>
<path d="M1278.08 613.981H1300.82C1304.01 613.981 1306.61 616.573 1306.61 619.771V619.771C1306.61 622.968 1304.01 625.561 1300.82 625.561H1278.08V613.981Z" fill="#313131" fill-opacity="0.11"/>
<rect x="1278.08" y="603.689" width="11.1634" height="21.872" fill="#D7CCCC"/>
<ellipse cx="1283.04" cy="581.173" rx="23.5671" ry="23.8019" fill="#57832E"/>
<ellipse cx="1283.04" cy="552.225" rx="17.3653" ry="18.0122" fill="#56852A"/>
<path d="M1362.42 581.817H1385.16C1388.36 581.817 1390.95 584.409 1390.95 587.606V587.606C1390.95 590.804 1388.36 593.396 1385.16 593.396H1362.42V581.817Z" fill="#313131" fill-opacity="0.11"/>
<rect x="1361.18" y="570.237" width="11.1634" height="23.1586" fill="#D7CCCC"/>
<ellipse cx="1366.14" cy="547.079" rx="24.8075" ry="24.4452" fill="#57832E"/>
<ellipse cx="1366.14" cy="516.844" rx="18.6056" ry="18.6555" fill="#56852A"/>
<ellipse cx="1372.97" cy="467.953" rx="5.58169" ry="5.78965" fill="#56842B"/>
<path d="M1399.62 467.953C1399.62 475.03 1400.34 476.316 1395.91 476.316C1391.48 476.316 1383.51 472.572 1383.51 467.953C1383.51 463.335 1387.1 459.591 1391.53 459.591C1395.96 459.591 1399.62 463.335 1399.62 467.953Z" fill="#56842B"/>
<path d="M1385.99 467.953C1385.99 471.151 1383.49 473.743 1380.41 473.743C1377.33 473.743 1374.83 471.151 1374.83 467.953C1374.83 464.756 1377.33 462.164 1380.41 462.164C1383.49 462.164 1385.99 464.756 1385.99 467.953Z" fill="#56842B"/>
<ellipse cx="1364.9" cy="471.17" rx="4.9615" ry="5.14635" fill="#56842B"/>
<path d="M1364.74 475.111C1364.23 473.842 1365.16 472.457 1366.53 472.457H1397.7C1398.77 472.457 1399.63 473.321 1399.63 474.386V474.386C1399.63 475.452 1398.77 476.316 1397.7 476.316H1366.53C1365.74 476.316 1365.03 475.84 1364.74 475.111V475.111Z" fill="#56842B"/>
<rect x="1367.39" y="471.17" width="19.846" height="3.85976" fill="#56842B"/>
<ellipse cx="1214.2" cy="547.722" rx="5.58169" ry="5.78965" fill="#56842B"/>
<path d="M1240.85 547.722C1240.85 554.798 1241.58 556.085 1237.15 556.085C1232.71 556.085 1224.74 552.341 1224.74 547.722C1224.74 543.103 1228.33 539.359 1232.76 539.359C1237.2 539.359 1240.85 543.103 1240.85 547.722Z" fill="#56842B"/>
<path d="M1227.22 547.722C1227.22 550.919 1224.72 553.512 1221.64 553.512C1218.56 553.512 1216.06 550.919 1216.06 547.722C1216.06 544.524 1218.56 541.932 1221.64 541.932C1224.72 541.932 1227.22 544.524 1227.22 547.722Z" fill="#56842B"/>
<ellipse cx="1206.14" cy="550.938" rx="4.9615" ry="5.14635" fill="#56842B"/>
<path d="M1205.97 554.88C1205.46 553.611 1206.39 552.225 1207.76 552.225H1238.94C1240 552.225 1240.87 553.089 1240.87 554.155V554.155C1240.87 555.221 1240 556.085 1238.94 556.085H1207.76C1206.97 556.085 1206.27 555.608 1205.97 554.88V554.88Z" fill="#56842B"/>
<rect x="1208.62" y="550.938" width="19.846" height="3.85976" fill="#56842B"/>
<ellipse cx="1334.52" cy="615.911" rx="5.58169" ry="5.78965" fill="#56842B"/>
<path d="M1361.16 615.911C1361.16 622.987 1361.89 624.274 1357.46 624.274C1353.03 624.274 1345.06 620.53 1345.06 615.911C1345.06 611.292 1348.65 607.548 1353.08 607.548C1357.51 607.548 1361.16 611.292 1361.16 615.911Z" fill="#56842B"/>
<path d="M1347.54 615.911C1347.54 619.109 1345.04 621.701 1341.96 621.701C1338.87 621.701 1336.38 619.109 1336.38 615.911C1336.38 612.714 1338.87 610.121 1341.96 610.121C1345.04 610.121 1347.54 612.714 1347.54 615.911Z" fill="#56842B"/>
<ellipse cx="1326.45" cy="619.128" rx="4.9615" ry="5.14635" fill="#56842B"/>
<path d="M1326.29 623.069C1325.77 621.8 1326.71 620.414 1328.08 620.414H1359.25C1360.32 620.414 1361.18 621.278 1361.18 622.344V622.344C1361.18 623.41 1360.32 624.274 1359.25 624.274H1328.08C1327.29 624.274 1326.58 623.797 1326.29 623.069V623.069Z" fill="#56842B"/>
<rect x="1328.93" y="619.128" width="19.846" height="3.85976" fill="#56842B"/>
<circle cx="1203.58" cy="162.5" r="16.9615" fill="#C4CFA5"/>
<path d="M1284.56 162.5C1284.56 183.231 1286.77 187 1273.31 187C1259.84 187 1235.62 176.031 1235.62 162.5C1235.62 148.969 1246.53 138 1260 138C1273.46 138 1284.56 148.969 1284.56 162.5Z" fill="#C4CFA5"/>
<path d="M1243.15 162.5C1243.15 171.868 1235.56 179.462 1226.19 179.462C1216.82 179.462 1209.23 171.868 1209.23 162.5C1209.23 153.132 1216.82 145.538 1226.19 145.538C1235.56 145.538 1243.15 153.132 1243.15 162.5Z" fill="#C4CFA5"/>
<circle cx="1179.08" cy="171.923" r="15.0769" fill="#C4CFA5"/>
<path d="M1178.6 183.537C1177.04 179.811 1179.77 175.692 1183.82 175.692H1278.96C1282.08 175.692 1284.62 178.224 1284.62 181.346V181.346C1284.62 184.469 1282.08 187 1278.96 187H1183.82C1181.54 187 1179.49 185.635 1178.6 183.537V183.537Z" fill="#C4CFA5"/>
<rect x="1186.62" y="171.923" width="60.3077" height="11.3077" fill="#C4CFA5"/>
<circle cx="776.846" cy="89" r="20.0769" fill="#C4CFA5"/>
<path d="M872.704 89C872.704 113.538 875.323 118 859.385 118C843.447 118 814.769 105.016 814.769 89C814.769 72.9837 827.689 60 843.627 60C859.565 60 872.704 72.9837 872.704 89Z" fill="#C4CFA5"/>
<path d="M823.692 89C823.692 100.088 814.704 109.077 803.615 109.077C792.527 109.077 783.538 100.088 783.538 89C783.538 77.9118 792.527 68.923 803.615 68.923C814.704 68.923 823.692 77.9118 823.692 89Z" fill="#C4CFA5"/>
<circle cx="747.846" cy="100.154" r="17.8461" fill="#C4CFA5"/>
<path d="M747.287 113.901C745.433 109.49 748.672 104.615 753.457 104.615H866.077C869.773 104.615 872.769 107.612 872.769 111.308V111.308C872.769 115.004 869.773 118 866.077 118H753.457C750.762 118 748.331 116.384 747.287 113.901V113.901Z" fill="#C4CFA5"/>
<rect x="756.769" y="100.154" width="71.3846" height="13.3846" fill="#C4CFA5"/>
<circle cx="284" cy="88.9999" r="27" fill="#C4CFA5"/>
<path d="M412.912 89C412.912 122 416.434 128 395 128C373.566 128 335 110.539 335 89C335 67.4609 352.376 50 373.809 50C395.243 50 412.912 67.4609 412.912 89Z" fill="#C4CFA5"/>
<path d="M347 88.9999C347 103.912 334.912 116 320 116C305.088 116 293 103.912 293 88.9999C293 74.0882 305.088 61.9999 320 61.9999C334.912 61.9999 347 74.0882 347 88.9999Z" fill="#C4CFA5"/>
<circle cx="245" cy="104" r="24" fill="#C4CFA5"/>
<path d="M244.248 122.487C241.755 116.556 246.111 110 252.545 110H404C408.971 110 413 114.029 413 119V119C413 123.971 408.971 128 404 128H252.545C248.922 128 245.652 125.827 244.248 122.487V122.487Z" fill="#C4CFA5"/>
<rect x="257" y="104" width="96" height="18" fill="#C4CFA5"/>
<rect x="438" y="209" width="211" height="39" rx="19.5" fill="#C4CFA5"/>
<rect x="985" y="189" width="89" height="16" rx="8" fill="#C4CFA5"/>
<rect x="41" y="674" width="68" height="9" fill="#C4CFA5"/>
<rect x="133" y="674" width="68" height="9" fill="#C4CFA5"/>
<rect x="225" y="674" width="68" height="9" fill="#C4CFA5"/>
<rect x="317" y="674" width="68" height="9" fill="#C4CFA5"/>
<rect x="409" y="674" width="68" height="9" fill="#C4CFA5"/>
<rect x="501" y="674" width="68" height="9" fill="#C4CFA5"/>
<rect x="593" y="674" width="68" height="9" fill="#C4CFA5"/>
<rect x="685" y="674" width="68" height="9" fill="#C4CFA5"/>
<rect x="777" y="674" width="68" height="9" fill="#C4CFA5"/>
<rect x="869" y="674" width="68" height="9" fill="#C4CFA5"/>
<rect x="961" y="674" width="68" height="9" fill="#C4CFA5"/>
<rect x="1053" y="674" width="68" height="9" fill="#C4CFA5"/>
<rect x="1145" y="674" width="68" height="9" fill="#C4CFA5"/>
<rect x="1237" y="674" width="68" height="9" fill="#C4CFA5"/>
<rect x="1329" y="674" width="68" height="9" fill="#C4CFA5"/>
<path d="M958.015 458.986H1125.03C1129.55 458.986 1133.51 462.025 1134.68 466.395L1170 598L958.015 598.295V458.986Z" fill="#0F1614"/>
<path d="M665 463.986C665 461.225 667.239 458.986 670 458.986H861.095V555.794H665V463.986Z" fill="#0B1617"/>
<ellipse cx="848.698" cy="653.783" rx="30.4285" ry="31.8757" fill="#535353"/>
<ellipse cx="848.698" cy="653.783" rx="16.9047" ry="17.7087" fill="#EFEFEF"/>
<path d="M687.208 652.602L665 629.439V555.794H859.968V652.602H687.208Z" fill="#EFEFEF"/>
<ellipse cx="758.539" cy="653.783" rx="30.4285" ry="31.8757" fill="#868686"/>
<ellipse cx="758.539" cy="653.783" rx="16.9047" ry="17.7087" fill="#EFEFEF"/>
<ellipse cx="1105.65" cy="653.783" rx="30.4285" ry="31.8757" fill="#535353"/>
<ellipse cx="1105.65" cy="653.783" rx="16.9047" ry="17.7087" fill="#EFEFEF"/>
<rect x="665" y="580.586" width="194.968" height="14.167" fill="#EDB100"/>
<rect x="665" y="594.753" width="194.968" height="14.167" fill="#6EA93A"/>
<path d="M1012.1 556H958V652.808L1061 653L1052.5 598L1012.1 556Z" fill="#EFEFEF"/>
<path d="M958 581H1036.23L1049.67 595H958V581Z" fill="#EDB100"/>
<rect x="668.381" y="479.056" width="192.714" height="75.5573" fill="#182825"/>
<path d="M709.516 479.056L668.381 531.592V554.614H686.976L745.579 479.056H709.516Z" fill="white" fill-opacity="0.07"/>
<path d="M698.809 554.614L756.285 479.056H763.047L705.571 554.614H753.468L812.634 479.056H852.079L792.349 554.614H753.468H705.571H698.809Z" fill="white" fill-opacity="0.07"/>
<path d="M859.968 481.417L802.492 554.614H809.253L859.968 488.501V481.417Z" fill="white" fill-opacity="0.07"/>
<rect x="854.333" y="649.038" width="108.19" height="3.56348" fill="#D9D9D9"/>
<rect x="859.968" y="647.851" width="98.0473" height="1.18783" fill="#A7A7A7"/>
<rect x="859.968" y="458.986" width="98.0473" height="188.864" fill="#0F1614"/>
<rect x="864.476" y="474.334" width="39.4443" height="162.826" fill="#182825"/>
<rect x="912.936" y="474.334" width="39.4443" height="162.826" fill="#182825"/>
<path d="M864.476 543.775L903.92 487.504V494.687L864.476 549.761V543.775Z" fill="#283734"/>
<path d="M864.476 560.536L903.92 505.463V553.353L864.476 609.623V560.536Z" fill="#283734"/>
<path d="M952.38 556.944L912.936 613.215V606.032L952.38 550.958V556.944Z" fill="#283734"/>
<path d="M952.38 540.183L912.936 595.256V547.366L952.38 491.095V540.183Z" fill="#283734"/>
<path d="M668.381 467.528C668.381 464.767 670.62 462.528 673.381 462.528H710.079V474.334H668.381V467.528Z" fill="#404E4B"/>
<rect x="717.968" y="462.528" width="46.2062" height="11.8058" fill="#404E4B"/>
<rect x="769.809" y="462.528" width="45.0792" height="11.8058" fill="#404E4B"/>
<rect x="821.65" y="462.528" width="38.3173" height="11.8058" fill="#404E4B"/>
<rect x="959.142" y="462.528" width="49.5871" height="11.8058" fill="#404E4B"/>
<path d="M969.285 446H1034.79C1040.32 446 1044.79 450.477 1044.79 456V458.986H969.285V446Z" fill="#9F9C9C"/>
<path d="M849.825 456C849.825 450.477 854.302 446 859.825 446H969.428C974.95 446 979.428 450.477 979.428 456V458.986H849.825V456Z" fill="#D9D9D9"/>
<path d="M1052.5 598H1170.1L1177.12 641.403C1178.11 647.484 1173.41 653 1167.25 653H1061.01L1052.5 598Z" fill="#D9D9D9"/>
<path d="M1089.31 626.039L1054 608L1052.5 598H1057L1087.05 616.004H1151.29L1171.01 604.198L1172.5 613.5L1151.29 626.039H1089.31Z" fill="#61893D"/>
<path d="M1164.25 631.942C1164.25 635.528 1161.98 638.435 1159.18 638.435C1156.38 638.435 1154.11 635.528 1154.11 631.942C1154.11 628.356 1156.38 625.449 1159.18 625.449C1161.98 625.449 1164.25 628.356 1164.25 631.942Z" fill="#182825"/>
<path d="M1161.43 631.849C1161.43 633.479 1160.43 634.8 1159.18 634.8C1157.94 634.8 1156.93 633.479 1156.93 631.849C1156.93 630.219 1157.94 628.897 1159.18 628.897C1160.43 628.897 1161.43 630.219 1161.43 631.849Z" fill="#EFEFEF"/>
<path d="M1078.6 631.942C1078.6 635.528 1076.33 638.435 1073.53 638.435C1070.73 638.435 1068.46 635.528 1068.46 631.942C1068.46 628.356 1070.73 625.449 1073.53 625.449C1076.33 625.449 1078.6 628.356 1078.6 631.942Z" fill="#182825"/>
<path d="M1075.78 631.849C1075.78 633.479 1074.78 634.8 1073.53 634.8C1072.29 634.8 1071.28 633.479 1071.28 631.849C1071.28 630.219 1072.29 628.897 1073.53 628.897C1074.78 628.897 1075.78 630.219 1075.78 631.849Z" fill="#EFEFEF"/>
<ellipse cx="1063.95" cy="627.81" rx="2.25396" ry="3.54175" fill="#EDB100"/>
<ellipse cx="1168.76" cy="628.99" rx="2.25396" ry="3.54175" fill="#EDB100"/>
<path d="M1086.63 610.986L1081 598H1150.87L1146.36 610.986H1086.63Z" fill="#0F1614"/>
<path d="M1095.17 634L1089 653H1144L1136.14 634H1095.17Z" fill="#0F1614"/>
<ellipse cx="1001.97" cy="653.783" rx="30.4285" ry="31.8757" fill="#868686"/>
<ellipse cx="1001.97" cy="653.783" rx="16.9047" ry="17.7087" fill="#EFEFEF"/>
<path d="M1016.62 462.528H1067.33L1109.03 592.392H1056.06L1016.62 462.528Z" fill="#182825"/>
<path d="M1016.62 462.528H1067.33L1109.03 592.392H1056.06L1016.62 462.528Z" fill="#182825"/>
<path d="M1074.09 462.528H1121.65C1126.17 462.528 1130.13 465.563 1131.31 469.93L1164.25 592.392H1115.79L1074.09 462.528Z" fill="#182825"/>
<path d="M1015.49 552.252V479.056L1050.43 588.85L1015.49 552.252Z" fill="#182825"/>
<rect x="958.015" y="479.056" width="50.7141" height="73.1961" fill="#182825"/>
<rect x="814.888" y="462.528" width="6.76188" height="93.266" fill="#0B1617"/>
<rect x="763.047" y="462.528" width="6.76188" height="93.266" fill="#0B1617"/>
<rect x="710.079" y="462.528" width="7.88887" height="93.266" fill="#0B1617"/>
<rect x="665" y="546.35" width="194.968" height="9.44466" fill="#0B1617"/>
<path d="M1096.63 554.023L1089.31 531.002L1052.68 581.767L1056.06 592.392H1069.59L1096.63 554.023Z" fill="#283734"/>
<path d="M1132.13 472.563L1094.07 524.509L1098.89 539.856L1101.7 548.711L1139.46 500.307L1132.13 472.563Z" fill="#283734"/>
<rect x="36" y="626" width="355" height="18" fill="#4A6A25"/>
<path d="M958 595H1049.5L1052.5 598L1054 608L958 609V595Z" fill="#6EA93A"/>
</svg>
