<svg width="183" height="263" viewBox="0 0 183 263" fill="none" xmlns="http://www.w3.org/2000/svg">
<path d="M180.242 0.00534058H0.102295V183.213H180.242V0.00534058Z" fill="white"/>
<path d="M0.0568848 0.349085C0.802273 0.221089 1.5439 0.014037 2.30811 0.0065078C55.6297 0.00274322 108.948 0.0065078 162.269 0.0065078C169.166 0.0290953 176.063 -0.0424317 182.956 0.0441538C182.876 43.0696 182.944 86.0951 182.922 129.124C182.944 147.153 182.876 165.181 182.956 183.21C140.182 183.251 97.4053 183.218 54.6321 183.229C40.2965 183.278 25.961 183.131 11.6217 183.187C15.9133 182.947 20.2125 183.15 24.5079 183.037C27.1468 182.909 29.9326 183.478 32.4361 182.393C46.813 176.935 61.2164 171.544 75.6272 166.176C95.4624 158.631 115.362 151.26 135.224 143.787C137.747 142.801 139.847 140.832 141.123 138.457C142.874 135.144 142.61 130.984 140.683 127.807L140.615 127.667C141.082 126.997 141.417 126.256 141.696 125.495C141.805 125.077 141.925 124.667 142.057 124.264C142.234 122.86 142.215 121.441 142.072 120.037C141.248 116.633 138.928 113.479 135.578 112.229C128.128 109.413 120.731 106.473 113.299 103.608C112.204 103.19 111.108 102.776 110.028 102.32C109.493 102.121 108.959 101.918 108.424 101.729C107.965 101.545 107.502 101.36 107.043 101.172C105.864 100.743 104.701 100.269 103.53 99.8207C102.439 99.3991 101.35 98.9737 100.266 98.5408C99.7243 98.345 99.1856 98.1413 98.651 97.9309C98.2938 97.8255 97.5781 97.6109 97.2167 97.5055L97.5254 97.385C110.178 92.269 122.982 87.5407 135.657 82.4848C138.687 81.1785 141.066 78.4642 141.97 75.2907C142.67 72.3957 142.283 69.2485 140.686 66.7112L140.645 66.6284C141.3 65.5894 141.722 64.4336 142.057 63.2591C142.388 60.8497 142.242 58.3011 141.041 56.1365C139.87 53.9041 137.92 52.1121 135.623 51.0844C135.081 50.9041 134.543 50.7079 134.004 50.5197C133.025 50.1244 132.036 49.7668 131.042 49.4167C118.901 44.8164 106.745 40.2575 94.5932 35.691C94.0511 35.4915 93.5165 35.2844 92.974 35.0887C87.8692 33.1386 82.7419 31.245 77.63 29.31C71.6894 27.1303 65.8016 24.8151 59.8611 22.6317C59.3981 22.4472 58.9312 22.2703 58.4682 22.0896C57.832 21.8637 57.1995 21.6341 56.5709 21.3894C56.0363 21.1861 55.5017 20.979 54.9671 20.7795C54.5041 20.5992 54.0373 20.4219 53.578 20.2412C51.0181 19.3188 48.4845 18.325 45.9208 17.4102C45.454 17.222 44.9835 17.0413 44.5166 16.8568C43.9821 16.6648 43.4475 16.4615 42.9129 16.2658C31.8714 12.1021 20.8261 7.94978 9.78081 3.78992C9.15589 3.55275 8.5272 3.31558 7.89852 3.0897C7.43171 2.909 6.9649 2.73583 6.50186 2.55513C4.33722 1.86245 2.28891 0.797071 0.0568848 0.349085Z" fill="#242021"/>
<path d="M0.177051 23.0872C22.0192 31.4596 43.9629 39.561 65.8239 47.8808C74.6029 51.1484 83.3593 54.4763 92.1346 57.7553C93.4183 58.128 94.5364 59.182 94.7359 60.5411C94.9957 62.1899 93.791 63.805 92.2438 64.2868C89.9398 65.1263 87.666 66.0411 85.347 66.8354C84.8727 66.0825 83.9391 65.9847 83.1335 65.9357C66.4902 59.5811 49.7642 53.4523 33.1322 47.0714C22.3505 43.0357 11.5574 39.0189 0.801972 34.9268C0.628801 34.8515 0.28246 34.6972 0.109289 34.6219C0.0494317 30.782 -0.0789407 26.9195 0.177051 23.0872Z" fill="#59AB42"/>
<path d="M0.0263522 35.3183C0.222111 35.2204 0.609863 35.0247 0.801857 34.9268C11.5573 39.0189 22.3503 43.0357 33.1321 47.0713C49.7641 53.4523 66.4901 59.5811 83.1333 65.9357C83.8449 66.1729 84.53 66.474 85.0985 66.9785C83.6792 67.3926 82.3127 67.9573 80.9198 68.4504C79.9335 68.8419 78.9358 69.2071 77.942 69.576C71.9074 71.8348 65.8803 74.1161 59.8381 76.3485C55.5691 77.9372 51.3075 79.5447 47.0385 81.1258C43.4885 82.5224 41.0415 85.903 40.2321 89.5622C40.0891 90.9514 40.0853 92.3555 40.2321 93.7484C40.586 94.9682 40.9512 96.1917 41.5686 97.3135C39.5131 100.751 39.4792 105.309 41.5196 108.762C42.3666 110.218 43.5412 111.472 44.8739 112.492C46.3383 113.603 48.1415 114.088 49.8356 114.728C61.6978 119.159 73.56 123.594 85.4561 127.935C82.8359 128.977 80.1781 129.93 77.5392 130.924C77.0724 131.108 76.6018 131.281 76.135 131.466C75.5025 131.692 74.8814 131.928 74.2602 132.177C71.3314 133.254 68.4176 134.365 65.4925 135.449C65.0257 135.633 64.5589 135.806 64.0921 135.987C63.5575 136.179 63.0267 136.382 62.4959 136.578C56.3521 138.886 50.212 141.205 44.0795 143.539C43.5525 143.72 43.0292 143.912 42.5022 144.092C42.0354 144.284 41.5648 144.472 41.098 144.668C40.5634 144.845 40.0326 145.033 39.498 145.21C39.0388 145.391 38.5795 145.572 38.1202 145.76C35.5565 146.694 33.0154 147.687 30.448 148.617C29.9925 148.798 29.5332 148.979 29.0739 149.159C28.5318 149.348 27.9972 149.551 27.4589 149.75C26.9996 149.927 26.5366 150.101 26.0773 150.289C18.5067 153.086 10.9851 156.011 3.41071 158.793C2.30393 159.207 1.21973 159.689 0.0564688 159.922C0.0338813 120.037 0.0527042 80.1508 0.045175 40.265C0.045175 38.7215 0.0752917 37.178 0 35.6345L0.0263522 35.3183Z" fill="#242021"/>
<path d="M135.503 71.0028C137.645 70.1633 139.347 68.5408 140.687 66.7112C142.283 69.2485 142.671 72.3957 141.971 75.2907C141.067 78.4642 138.688 81.1785 135.657 82.4848C122.982 87.5407 110.179 92.269 97.5258 97.3851C94.9885 96.8016 92.6089 95.5781 90.1698 94.667C87.5911 93.7184 87.5685 89.5961 90.1698 88.6663C105.269 82.7559 120.396 76.8982 135.503 71.0028Z" fill="#59AB42"/>
<path d="M41.5688 97.3135C42.9278 99.2974 44.637 101.176 46.907 102.106C61.7621 107.613 76.6021 113.166 91.4684 118.647C92.2477 118.952 93.0684 119.22 93.7309 119.75C95.0824 120.872 95.2179 123.169 93.9643 124.411C93.2525 125.213 92.146 125.424 91.197 125.819C89.2695 126.489 87.4136 127.37 85.456 127.935C73.5599 123.594 61.6981 119.159 49.8355 114.728C48.1414 114.088 46.3382 113.603 44.8738 112.492C43.5411 111.472 42.3665 110.218 41.5195 108.762C39.4791 105.309 39.5134 100.751 41.5688 97.3135Z" fill="#59AB42"/>
<path d="M135.582 132.095C137.728 131.285 139.302 129.565 140.683 127.807C142.611 130.984 142.874 135.144 141.124 138.457C139.847 140.832 137.747 142.801 135.224 143.787C115.363 151.26 95.4629 158.632 75.6273 166.176C61.2165 171.544 46.8131 176.935 32.4362 182.393C29.9327 183.478 27.1469 182.909 24.508 183.037C20.2126 183.15 15.9134 182.947 11.6218 183.188C7.80451 183.361 3.96839 182.999 0.162773 183.474L0.102539 182.89C5.02285 181.301 9.80388 179.287 14.6677 177.537C54.971 162.381 95.2822 147.258 135.582 132.095Z" fill="#59AB42"/>
<path d="M1.03896 193.333C61.6865 193.363 122.33 193.363 182.974 193.337C183.012 216.414 183.004 239.491 182.978 262.571C122.33 262.541 61.6868 262.541 1.03896 262.571C1.03143 239.494 1.02804 216.414 1.03896 193.333Z" fill="#242021"/>
<path d="M150.836 201.295C155.101 200.459 159.727 200.775 163.624 202.808C166.843 204.476 169.297 207.495 170.306 210.974C171.101 213.714 171.149 216.632 170.72 219.44C170.031 223.528 167.483 227.293 163.809 229.266C159.585 231.521 154.491 231.784 149.899 230.648C145.81 229.616 142.196 226.71 140.551 222.802C138.872 218.774 138.853 214.117 140.277 210.01C141.895 205.466 146.149 202.176 150.836 201.295Z" fill="#FCFCFC"/>
<path d="M12.5286 201.657C15.785 201.652 19.0451 201.641 22.3015 201.664C24.3645 208.892 26.5931 216.075 28.6185 223.314C29.3526 222.798 29.281 221.771 29.5897 221.01C31.5134 214.554 33.3054 208.057 35.3078 201.623C38.5679 201.683 41.828 201.638 45.0919 201.649C45.107 211.272 45.1296 220.89 45.0806 230.512C43.0331 230.501 40.9848 230.497 38.9372 230.516C38.9033 223.126 38.8469 215.732 38.9673 208.343L38.6059 208.335L38.5946 207.405C36.6747 215.164 34.3482 222.817 32.176 230.505C29.9474 230.505 27.7187 230.493 25.4901 230.515C23.1636 222.689 20.9237 214.836 18.7251 206.972C18.567 214.813 18.7138 222.659 18.6536 230.505C16.6132 230.505 14.5766 230.505 12.5399 230.5C12.5102 220.886 12.5324 211.271 12.5286 201.657Z" fill="#FCFCFC"/>
<path d="M51.8988 201.664C59.7555 201.63 67.6121 201.668 75.4688 201.645C75.4726 203.283 75.4801 204.924 75.4575 206.562C69.8069 206.509 64.1563 206.57 58.5056 206.532C58.4529 208.632 58.4943 210.733 58.4755 212.837C63.6706 212.849 68.8661 212.837 74.0571 212.842C74.0308 214.475 74.0458 216.113 74.0345 217.751C68.8469 217.716 63.6631 217.739 58.4793 217.739C58.4981 220.242 58.4454 222.75 58.5131 225.253C64.4345 225.242 70.3603 225.223 76.282 225.265C76.2406 227.011 76.2745 228.762 76.2481 230.512C68.2107 230.527 60.1696 230.444 52.1322 230.554C51.9703 230.136 51.8875 229.703 51.8912 229.262C51.9067 220.062 51.8954 210.861 51.8988 201.664Z" fill="#FCFCFC"/>
<path d="M78.6006 201.653C87.2139 201.653 95.8235 201.645 104.433 201.657C104.437 203.351 104.429 205.049 104.437 206.747C101.214 206.766 97.9882 206.717 94.7661 206.773C94.7811 214.682 94.8 222.599 94.7582 230.513C92.5973 230.501 90.4326 230.497 88.2722 230.513C88.2082 222.592 88.2684 214.671 88.242 206.75C85.0271 206.743 81.8121 206.75 78.5972 206.747C78.6006 205.049 78.5934 203.351 78.6006 201.653Z" fill="#FCFCFC"/>
<path d="M108.319 201.657C113.89 201.645 119.462 201.652 125.033 201.652C127.48 201.758 130.074 202.183 132.051 203.746C133.097 204.544 133.677 205.767 134.174 206.957C134.385 208.24 134.675 209.528 134.525 210.842C134.137 213.413 132.439 216.229 129.596 216.428C129.815 216.579 130.033 216.737 130.256 216.895C131.561 217.358 132.725 218.311 133.154 219.67C133.993 222.267 133.73 225.038 133.926 227.722C134.024 228.777 135.051 229.435 135.1 230.505C132.71 230.52 130.319 230.467 127.932 230.535C126.317 227.602 127.755 224.06 126.472 221.029C125.862 219.621 124.187 219.264 122.809 219.218C120.204 219.184 117.599 219.233 114.997 219.195C114.968 222.862 115.009 226.528 114.983 230.196C114.903 230.271 114.741 230.418 114.662 230.493C112.55 230.534 110.438 230.485 108.327 230.5C108.307 220.886 108.319 211.271 108.319 201.657Z" fill="#FCFCFC"/>
<path d="M152.458 206.231C155.64 205.632 159.333 205.959 161.716 208.388C164.249 211.004 164.539 214.892 164.231 218.337C163.79 220.747 162.747 223.198 160.665 224.632C157.977 226.518 154.371 226.446 151.325 225.603C148.223 224.354 146.405 221.203 146.04 217.984C145.829 215.68 146.047 213.353 146.774 211.151C147.786 208.741 149.872 206.803 152.458 206.231Z" fill="#242021"/>
<path d="M115.004 206.528C117.982 206.566 120.96 206.52 123.937 206.547C125.624 206.536 127.439 207.563 127.819 209.299C127.966 210.428 128.03 211.697 127.318 212.668C126.415 214.024 124.638 214.223 123.147 214.321C120.433 214.355 117.715 214.31 115 214.34C114.982 211.738 114.974 209.133 115.004 206.528Z" fill="#242021"/>
<path d="M149.62 237.39C150.426 236.159 151.137 234.872 152.014 233.693C152.918 233.712 153.821 233.712 154.729 233.72C153.554 234.932 152.447 236.215 151.193 237.341C150.682 237.488 150.139 237.371 149.62 237.39Z" fill="#FCFCFC"/>
<path d="M12.6716 238.851C15.2504 238.836 17.8291 238.832 20.4079 238.843C22.7231 238.903 25.2115 239.946 26.2731 242.122C27.2067 243.816 27.1163 245.811 27.0147 247.679C26.8302 250.027 25.2228 252.204 23.0129 253.028C21.7029 253.585 20.2497 253.604 18.8456 253.608C16.7901 253.597 14.7346 253.612 12.6792 253.597C12.6908 248.68 12.7017 243.767 12.6716 238.851Z" fill="#FCFCFC"/>
<path d="M30.0076 238.854C34.1448 238.821 38.2821 238.851 42.4156 238.839C42.4081 239.679 42.3968 240.522 42.3705 241.365C39.4002 241.298 36.4224 241.471 33.4597 241.26C33.4409 242.374 33.4409 243.489 33.4522 244.607C36.1664 244.554 38.8845 244.611 41.5987 244.569C41.6066 245.401 41.6066 246.237 41.6066 247.076C38.8886 247.058 36.1706 247.095 33.4488 247.054C33.445 248.341 33.445 249.636 33.4375 250.928C36.5696 250.935 39.7018 250.935 42.8339 250.928C42.8414 251.816 42.8452 252.712 42.8489 253.608C38.5686 253.585 34.292 253.634 30.0117 253.582C30.026 248.673 30.0335 243.763 30.0076 238.854Z" fill="#FCFCFC"/>
<path d="M52.4451 238.839C54.1542 238.839 55.8671 238.839 57.5762 238.839C58.7319 242.653 59.8764 246.471 61.0359 250.284C62.169 246.485 63.3059 242.686 64.3901 238.873C66.118 238.813 67.8498 238.843 69.5777 238.843C69.5476 243.763 69.5739 248.684 69.5626 253.608C68.5199 253.6 67.4771 253.6 66.4343 253.615C66.4079 249.87 66.4343 246.128 66.4267 242.382L65.9486 242.717C65.0075 246.338 63.784 249.885 62.9257 253.529C61.7022 253.631 60.4712 253.619 59.2439 253.585C58.0392 249.587 56.9889 245.529 55.6148 241.588C55.5358 245.593 55.6186 249.606 55.581 253.615C54.5495 253.6 53.518 253.6 52.4902 253.63C52.4033 248.703 52.4902 243.771 52.4451 238.839Z" fill="#FCFCFC"/>
<path d="M73.24 238.854C77.3848 238.832 81.5296 238.828 85.6744 238.854C85.6594 239.683 85.6556 240.518 85.6481 241.35C82.6364 241.369 79.6247 241.339 76.6093 241.365C76.6206 242.435 76.6206 243.504 76.6131 244.577C79.38 244.595 82.147 244.584 84.914 244.58C84.9215 245.409 84.929 246.237 84.929 247.069C82.1508 247.076 79.3763 247.065 76.6018 247.076C76.6281 248.356 76.6281 249.64 76.598 250.924C79.7603 250.943 82.9187 250.928 86.081 250.932C86.0848 251.824 86.0848 252.712 86.0889 253.608C81.8086 253.597 77.532 253.616 73.2554 253.597C73.2592 248.68 73.2814 243.767 73.24 238.854Z" fill="#FCFCFC"/>
<path d="M88.7764 238.87C91.3288 238.813 93.8849 238.847 96.4377 238.839C98.8353 238.854 101.482 239.912 102.54 242.205C103.685 244.825 103.715 248.059 102.254 250.562C101.068 252.599 98.6433 253.559 96.3737 253.585C93.8435 253.619 91.3099 253.623 88.7801 253.57C88.7914 248.669 88.8031 243.767 88.7764 238.87Z" fill="#FCFCFC"/>
<path d="M106.135 238.877C110.329 238.809 114.522 238.832 118.717 238.862C118.72 239.634 118.728 240.409 118.754 241.185C115.758 241.569 112.708 241.253 109.689 241.358C109.697 242.431 109.697 243.508 109.693 244.588C112.377 244.562 115.062 244.637 117.746 244.539C118.002 245.352 117.964 246.21 117.957 247.061C115.197 247.084 112.438 247.065 109.679 247.073C109.705 248.356 109.705 249.644 109.679 250.931C112.814 250.946 115.95 250.908 119.086 250.954C119.082 251.824 119.086 252.693 119.094 253.57C114.768 253.612 110.435 253.661 106.114 253.544C106.14 252.847 106.162 252.155 106.178 251.466C106.121 248.959 106.14 246.448 106.167 243.94C106.135 242.25 106.15 240.564 106.135 238.877Z" fill="#FCFCFC"/>
<path d="M121.838 238.854C122.993 238.836 124.149 238.836 125.305 238.851C125.248 242.879 125.305 246.907 125.275 250.935C128.113 250.943 130.955 250.912 133.794 250.95C133.79 251.823 133.794 252.697 133.802 253.574C129.815 253.634 125.828 253.604 121.845 253.585C121.856 248.676 121.867 243.767 121.838 238.854Z" fill="#FCFCFC"/>
<path d="M135.649 238.847C136.831 238.836 138.017 238.836 139.203 238.851C139.15 242.875 139.214 246.899 139.169 250.923C141.936 250.938 144.707 250.938 147.482 250.923C147.492 251.82 147.492 252.719 147.492 253.619C143.551 253.581 139.61 253.619 135.668 253.6C135.668 248.684 135.702 243.763 135.649 238.847Z" fill="#FCFCFC"/>
<path d="M149.642 238.851C150.817 238.836 151.991 238.836 153.17 238.847C153.132 243.767 153.159 248.688 153.155 253.608C151.988 253.604 150.821 253.604 149.654 253.597C149.661 248.68 149.684 243.767 149.642 238.851Z" fill="#FCFCFC"/>
<path d="M156.863 238.851C158.09 238.836 159.318 238.839 160.548 238.832C162.743 242.1 165.051 245.299 167.136 248.639C167.272 248.665 167.543 248.714 167.678 248.74C167.611 245.442 167.682 242.141 167.633 238.843C168.736 238.839 169.839 238.839 170.942 238.836C171.014 243.756 170.954 248.676 170.976 253.597C169.723 253.604 168.465 253.668 167.223 253.495C165.8 251.131 164.14 248.921 162.619 246.624C161.832 245.578 161.26 244.362 160.296 243.462C160.27 246.847 160.304 250.231 160.281 253.615C159.141 253.604 158.003 253.604 156.87 253.593C156.878 248.676 156.889 243.763 156.863 238.851Z" fill="#FCFCFC"/>
<path d="M16.0447 241.354C18.1453 241.531 20.6488 240.794 22.3955 242.318C23.7094 243.628 23.6868 245.635 23.5663 247.359C23.5136 248.978 22.4031 250.608 20.735 250.883C19.1802 251.086 17.6028 250.958 16.0405 250.988C16.0563 247.777 16.0488 244.565 16.0447 241.354Z" fill="#242021"/>
<path d="M92.2327 241.358C94.194 241.478 96.3327 240.974 98.1431 241.949C99.9727 243.195 99.9802 245.751 99.702 247.72C99.6338 249.301 98.3765 250.709 96.7991 250.905C95.2824 251.07 93.7536 250.958 92.2327 250.988C92.2327 247.777 92.2327 244.569 92.2327 241.358Z" fill="#242021"/>
</svg>
